SplineFontDB: 3.0
FontName: Untitled1
FullName: Untitled1
FamilyName: Untitled1
Weight: Regular
Copyright: Copyright (c) 2019, Jack
UComments: "2019-8-23: Created with FontForge (http://fontforge.org)"
Version: 001.000
ItalicAngle: 0
UnderlinePosition: -329.67
UnderlineWidth: 35.1648
Ascent: 630
Descent: 370
InvalidEm: 0
LayerCount: 2
Layer: 0 0 "Back" 1
Layer: 1 0 "Fore" 0
XUID: [1021 647 -312734098 29385]
StyleMap: 0x0000
FSType: 0
OS2Version: 0
OS2_WeightWidthSlopeOnly: 0
OS2_UseTypoMetrics: 1
CreationTime: 1566577596
ModificationTime: 1567254749
OS2TypoAscent: 0
OS2TypoAOffset: 1
OS2TypoDescent: 0
OS2TypoDOffset: 1
OS2TypoLinegap: 90
OS2WinAscent: 0
OS2WinAOffset: 1
OS2WinDescent: 0
OS2WinDOffset: 1
HheadAscent: 0
HheadAOffset: 1
HheadDescent: 0
HheadDOffset: 1
Lookup: 6 0 0 "semivowels" { "semivowels contextual 0"  "semivowels contextual 1"  } ['liga' ('latn' <'dflt' > 'DFLT' <'dflt' > ) ]
Lookup: 1 0 0 "Single Substitution lookup 1" { "Single Substitution lookup 1 subtable"  } []
Lookup: 1 0 0 "Single Substitution lookup 2" { "Single Substitution lookup 2 subtable"  } []
Lookup: 4 0 1 "diphthongs" { "diphthongs subtable"  } ['liga' ('latn' <'dflt' > 'DFLT' <'dflt' > ) ]

StartChar: my
Encoding: 0 60256 0
Width: 810
VWidth: 2197
Flags: W
HStem: 34.9453 40<151.868 659.121> 308.571 40<151.868 659.121> 582.198 40<151.868 659.121>
VStem: 111.868 40<74.9453 308.571 348.571 582.198> 659.121 40<74.9453 308.571 348.571 582.198>
CounterMasks: 1 e0
AnchorPoint: "Above" 405 0 basechar 0
LayerCount: 2
Back
SplineSet
131.868164062 602.198242188 m 1
 679.12109375 602.198242188 l 1
 679.12109375 54.9453125 l 1
 131.868164062 54.9453125 l 1
 131.868164062 602.198242188 l 1
131.868164062 328.571289062 m 1
 679.12109375 328.571289062 l 1025
EndSplineSet
Fore
SplineSet
131.868164062 622.198242188 m 2
 679.12109375 622.198242188 l 2
 691.227124034 622.198242188 699.12109375 610.782165654 699.12109375 602.198242188 c 2
 699.12109375 348.571289062 l 1
 699.12109375 328.571289062 l 1
 699.12109375 308.571289062 l 1
 699.12109375 54.9453125 l 2
 699.12109375 42.8392822156 687.705017216 34.9453125 679.12109375 34.9453125 c 2
 131.868164062 34.9453125 l 2
 119.762133778 34.9453125 111.868164062 46.3613890339 111.868164062 54.9453125 c 2
 111.868164062 308.571289062 l 1
 111.868164062 328.571289062 l 1
 111.868164062 348.571289062 l 1
 111.868164062 602.198242188 l 2
 111.868164062 614.304272472 123.284240596 622.198242188 131.868164062 622.198242188 c 2
659.12109375 348.571289062 m 1
 659.12109375 582.198242188 l 1
 151.868164062 582.198242188 l 1
 151.868164062 348.571289062 l 1
 659.12109375 348.571289062 l 1
659.12109375 308.571289062 m 1
 151.868164062 308.571289062 l 1
 151.868164062 74.9453125 l 1
 659.12109375 74.9453125 l 1
 659.12109375 308.571289062 l 1
EndSplineSet
Substitution2: "Single Substitution lookup 194 subtable" my.cvc.3
Substitution2: "Single Substitution lookup 190 subtable" my.cvc.1
Substitution2: "Single Substitution lookup 186 subtable" my.ccv.1
Substitution2: "Single Substitution lookup 170 subtable" my.ccv.2
Substitution2: "Single Substitution lookup 162 subtable" my.ccv.2
Substitution2: "Single Substitution lookup 157 subtable" my.ccv.2
Substitution2: "Single Substitution lookup 149 subtable" my.ccv.2
Substitution2: "Single Substitution lookup 128 subtable" my.cvc.3
Substitution2: "Single Substitution lookup 124 subtable" my.cvc.1
Substitution2: "Single Substitution lookup 120 subtable" my.ccv.1
Substitution2: "Single Substitution lookup 104 subtable" my.ccv.2
Substitution2: "Single Substitution lookup 96 subtable" my.ccv.2
Substitution2: "Single Substitution lookup 91 subtable" my.ccv.2
Substitution2: "Single Substitution lookup 83 subtable" my.ccv.2
Substitution2: "Single Substitution lookup 62 subtable" my.cvc.3
Substitution2: "Single Substitution lookup 58 subtable" my.cvc.1
Substitution2: "Single Substitution lookup 54 subtable" my.ccv.1
Substitution2: "Single Substitution lookup 38 subtable" my.ccv.2
Substitution2: "Single Substitution lookup 30 subtable" my.ccv.2
Substitution2: "Single Substitution lookup 25 subtable" my.ccv.2
Substitution2: "Single Substitution lookup 17 subtable" my.ccv.2
EndChar

StartChar: py
Encoding: 1 60257 1
Width: 810
VWidth: 2197
Flags: W
HStem: 34.9453 40<151.868 699.121> 308.571 40<151.868 699.121> 582.198 40<151.868 699.121>
VStem: 111.868 40<74.9453 308.571 348.571 582.198>
CounterMasks: 1 e0
AnchorPoint: "Above" 405 0 basechar 0
LayerCount: 2
Back
SplineSet
679.12109375 54.9453125 m 5
 131.868164062 54.9453125 l 5
 131.868164062 602.198242188 l 5
 679.12109375 602.198242188 l 1029
131.868164062 328.571289062 m 5
 679.12109375 328.571289062 l 1029
EndSplineSet
Fore
SplineSet
699.12109375 54.9453125 m 1
 699.12109375 34.9453125 l 1
 679.12109375 34.9453125 l 1
 131.868164062 34.9453125 l 2
 119.762133778 34.9453125 111.868164062 46.3613890339 111.868164062 54.9453125 c 2
 111.868164062 308.571289062 l 1
 111.868164062 328.571289062 l 1
 111.868164062 348.571289062 l 1
 111.868164062 602.198242188 l 2
 111.868164062 614.304272472 123.284240596 622.198242188 131.868164062 622.198242188 c 2
 679.12109375 622.198242188 l 1
 699.12109375 622.198242188 l 1
 699.12109375 602.198242188 l 1
 699.12109375 582.198242188 l 1
 679.12109375 582.198242188 l 1
 151.868164062 582.198242188 l 1
 151.868164062 348.571289062 l 1
 679.12109375 348.571289062 l 1
 699.12109375 348.571289062 l 1
 699.12109375 328.571289062 l 1
 699.12109375 308.571289062 l 1
 679.12109375 308.571289062 l 1
 151.868164062 308.571289062 l 1
 151.868164062 74.9453125 l 1
 679.12109375 74.9453125 l 1
 699.12109375 74.9453125 l 1
 699.12109375 54.9453125 l 1
EndSplineSet
Substitution2: "Single Substitution lookup 194 subtable" py.cvc.3
Substitution2: "Single Substitution lookup 190 subtable" py.cvc.1
Substitution2: "Single Substitution lookup 186 subtable" py.ccv.1
Substitution2: "Single Substitution lookup 158 subtable" py.ccv.2
Substitution2: "Single Substitution lookup 145 subtable" py.ccv.2
Substitution2: "Single Substitution lookup 128 subtable" py.cvc.3
Substitution2: "Single Substitution lookup 124 subtable" py.cvc.1
Substitution2: "Single Substitution lookup 120 subtable" py.ccv.1
Substitution2: "Single Substitution lookup 92 subtable" py.ccv.2
Substitution2: "Single Substitution lookup 79 subtable" py.ccv.2
Substitution2: "Single Substitution lookup 62 subtable" py.cvc.3
Substitution2: "Single Substitution lookup 58 subtable" py.cvc.1
Substitution2: "Single Substitution lookup 54 subtable" py.ccv.1
Substitution2: "Single Substitution lookup 26 subtable" py.ccv.2
Substitution2: "Single Substitution lookup 13 subtable" py.ccv.2
EndChar

StartChar: by
Encoding: 2 60258 2
Width: 810
VWidth: 2197
Flags: W
HStem: 34.9453 40<111.868 659.121> 308.571 40<111.868 659.121> 582.198 40<111.868 659.121>
VStem: 659.121 40<74.9453 308.571 348.571 582.198>
CounterMasks: 1 e0
AnchorPoint: "Above" 405 0 basechar 0
LayerCount: 2
Back
SplineSet
131.868164062 602.198242188 m 5
 679.12109375 602.198242188 l 5
 679.12109375 54.9453125 l 5
 131.868164062 54.9453125 l 1029
131.868164062 328.571289062 m 5
 679.12109375 328.571289062 l 1029
EndSplineSet
Fore
SplineSet
111.868164062 328.571289062 m 1
 111.868164062 348.571289062 l 1
 131.868164062 348.571289062 l 1
 659.12109375 348.571289062 l 1
 659.12109375 582.198242188 l 1
 131.868164062 582.198242188 l 1
 111.868164062 582.198242188 l 1
 111.868164062 602.198242188 l 1
 111.868164062 622.198242188 l 1
 131.868164062 622.198242188 l 1
 679.12109375 622.198242188 l 2
 691.227124034 622.198242188 699.12109375 610.782165654 699.12109375 602.198242188 c 2
 699.12109375 348.571289062 l 1
 699.12109375 328.571289062 l 1
 699.12109375 308.571289062 l 1
 699.12109375 54.9453125 l 2
 699.12109375 42.8392822156 687.705017216 34.9453125 679.12109375 34.9453125 c 2
 131.868164062 34.9453125 l 1
 111.868164062 34.9453125 l 1
 111.868164062 54.9453125 l 1
 111.868164062 74.9453125 l 1
 131.868164062 74.9453125 l 1
 659.12109375 74.9453125 l 1
 659.12109375 308.571289062 l 1
 131.868164062 308.571289062 l 1
 111.868164062 308.571289062 l 1
 111.868164062 328.571289062 l 1
EndSplineSet
Substitution2: "Single Substitution lookup 194 subtable" by.cvc.3
Substitution2: "Single Substitution lookup 190 subtable" by.cvc.1
Substitution2: "Single Substitution lookup 186 subtable" by.ccv.1
Substitution2: "Single Substitution lookup 166 subtable" by.ccv.2
Substitution2: "Single Substitution lookup 153 subtable" by.ccv.2
Substitution2: "Single Substitution lookup 128 subtable" by.cvc.3
Substitution2: "Single Substitution lookup 124 subtable" by.cvc.1
Substitution2: "Single Substitution lookup 120 subtable" by.ccv.1
Substitution2: "Single Substitution lookup 100 subtable" by.ccv.2
Substitution2: "Single Substitution lookup 87 subtable" by.ccv.2
Substitution2: "Single Substitution lookup 62 subtable" by.cvc.3
Substitution2: "Single Substitution lookup 58 subtable" by.cvc.1
Substitution2: "Single Substitution lookup 54 subtable" by.ccv.1
Substitution2: "Single Substitution lookup 34 subtable" by.ccv.2
Substitution2: "Single Substitution lookup 21 subtable" by.ccv.2
EndChar

StartChar: fy
Encoding: 3 60259 3
Width: 810
VWidth: 2197
Flags: W
HStem: 35.4941 40<206.813 522.169> 308.571 40<206.813 547.212>
VStem: 166.813 40<75.4941 308.571 348.571 622.198>
AnchorPoint: "Above" 405 0 basechar 0
LayerCount: 2
Back
SplineSet
187.912109375 328.571289062 m 5
 545.0546875 328.571289062 l 1029
186.813476562 602.198242188 m 5
 186.813476562 55.494140625 l 5
 539.560546875 55.494140625 l 5
 556.549804688 290.936523438 569.8125 432.146484375 701.098632812 602.198242188 c 1029
EndSplineSet
Fore
SplineSet
186.813476562 622.198242188 m 1
 206.813476562 622.198242188 l 1
 206.813476562 602.198242188 l 1
 206.813476562 348.571289062 l 1
 545.0546875 348.571289062 l 1
 555.826974058 348.571289062 l 1
 577.998835466 440.612783273 615.388963678 523.908177501 685.267641894 614.420342111 c 2
 697.489741818 630.25133303 l 1
 713.320732736 618.029233106 l 1
 729.151723655 605.807133182 l 1
 716.929623731 589.976142264 l 2
 589.105949857 424.409223911 576.529141157 289.929509959 559.508680301 54.0547057297 c 0
 558.863867465 45.1186902689 550.609905479 35.494140625 539.560546875 35.494140625 c 2
 186.813476562 35.494140625 l 2
 178.229553096 35.494140625 166.813476562 43.3881103406 166.813476562 55.494140625 c 2
 166.813476562 602.198242188 l 1
 166.813476562 622.198242188 l 1
 186.813476562 622.198242188 l 1
206.813476562 308.571289062 m 1
 206.813476562 75.494140625 l 1
 520.960326041 75.494140625 l 1
 527.393058117 163.339695178 533.8655506 238.926603405 547.21156362 308.571289062 c 1
 545.0546875 308.571289062 l 1
 206.813476562 308.571289062 l 1
EndSplineSet
Substitution2: "Single Substitution lookup 194 subtable" fy.cvc.3
Substitution2: "Single Substitution lookup 190 subtable" fy.cvc.1
Substitution2: "Single Substitution lookup 186 subtable" fy.ccv.1
Substitution2: "Single Substitution lookup 159 subtable" fy.ccv.2
Substitution2: "Single Substitution lookup 146 subtable" fy.ccv.2
Substitution2: "Single Substitution lookup 128 subtable" fy.cvc.3
Substitution2: "Single Substitution lookup 124 subtable" fy.cvc.1
Substitution2: "Single Substitution lookup 120 subtable" fy.ccv.1
Substitution2: "Single Substitution lookup 93 subtable" fy.ccv.2
Substitution2: "Single Substitution lookup 80 subtable" fy.ccv.2
Substitution2: "Single Substitution lookup 62 subtable" fy.cvc.3
Substitution2: "Single Substitution lookup 58 subtable" fy.cvc.1
Substitution2: "Single Substitution lookup 54 subtable" fy.ccv.1
Substitution2: "Single Substitution lookup 27 subtable" fy.ccv.2
Substitution2: "Single Substitution lookup 14 subtable" fy.ccv.2
EndChar

StartChar: vy
Encoding: 4 60260 4
Width: 810
VWidth: 2197
Flags: W
HStem: 308.571 40<308.629 659.121> 582.198 40<348.383 659.121>
VStem: 659.121 40<34.9453 308.571 348.571 582.198>
AnchorPoint: "Above" 405 0 basechar 0
LayerCount: 2
Back
SplineSet
131.868164062 54.9453125 m 5
 229.8125 177.999023438 291.185546875 253.153320312 332.966796875 602.198242188 c 5
 679.12109375 602.198242188 l 5
 679.12109375 54.9453125 l 1029
308.791015625 328.571289062 m 5
 679.12109375 328.571289062 l 1029
EndSplineSet
Fore
SplineSet
119.412965538 39.2970528613 m 1
 103.764705899 51.7522513857 l 1
 116.219904424 67.4005110244 l 2
 213.538052688 189.667502482 271.520810931 257.146910221 313.108560072 604.575305724 c 0
 314.360781177 615.036491492 324.075105829 622.198242188 332.966796875 622.198242188 c 2
 679.12109375 622.198242188 l 2
 691.227124034 622.198242188 699.12109375 610.782165654 699.12109375 602.198242188 c 2
 699.12109375 348.571289062 l 1
 699.12109375 328.571289062 l 1
 699.12109375 308.571289062 l 1
 699.12109375 54.9453125 l 1
 699.12109375 34.9453125 l 1
 679.12109375 34.9453125 l 1
 659.12109375 34.9453125 l 1
 659.12109375 54.9453125 l 1
 659.12109375 308.571289062 l 1
 308.791015625 308.571289062 l 1
 297.350437491 308.571289062 l 1
 259.167314991 183.616631661 210.137702707 121.165217457 147.516423701 42.4901139756 c 2
 135.061225177 26.841854337 l 1
 119.412965538 39.2970528613 l 1
308.628506924 348.571289062 m 1
 308.791015625 348.571289062 l 1
 659.12109375 348.571289062 l 1
 659.12109375 582.198242188 l 1
 350.670397747 582.198242188 l 1
 338.588075394 485.738876792 324.654756425 410.175974667 308.628506924 348.571289062 c 1
EndSplineSet
Substitution2: "Single Substitution lookup 194 subtable" vy.cvc.3
Substitution2: "Single Substitution lookup 190 subtable" vy.cvc.1
Substitution2: "Single Substitution lookup 186 subtable" vy.ccv.1
Substitution2: "Single Substitution lookup 167 subtable" vy.ccv.2
Substitution2: "Single Substitution lookup 154 subtable" vy.ccv.2
Substitution2: "Single Substitution lookup 128 subtable" vy.cvc.3
Substitution2: "Single Substitution lookup 124 subtable" vy.cvc.1
Substitution2: "Single Substitution lookup 120 subtable" vy.ccv.1
Substitution2: "Single Substitution lookup 101 subtable" vy.ccv.2
Substitution2: "Single Substitution lookup 88 subtable" vy.ccv.2
Substitution2: "Single Substitution lookup 62 subtable" vy.cvc.3
Substitution2: "Single Substitution lookup 58 subtable" vy.cvc.1
Substitution2: "Single Substitution lookup 54 subtable" vy.ccv.1
Substitution2: "Single Substitution lookup 35 subtable" vy.ccv.2
Substitution2: "Single Substitution lookup 22 subtable" vy.ccv.2
EndChar

StartChar: ky
Encoding: 5 60261 5
Width: 810
VWidth: 2197
Flags: W
AnchorPoint: "Above" 405 0 basechar 0
LayerCount: 2
Back
SplineSet
679.12109375 602.198242188 m 5
 132.966796875 339.560546875 l 5
 679.12109375 54.9453125 l 1029
EndSplineSet
Fore
SplineSet
697.145323618 610.865833415 m 1
 705.812914845 592.841603547 l 1
 687.788684977 584.17401232 l 1
 177.622121667 338.842297125 l 1
 688.363865809 72.6814666676 l 1
 706.100019977 63.4386946081 l 1
 696.857247918 45.7025404405 l 1
 687.614475858 27.9663862729 l 1
 669.878321691 37.2091583324 l 1
 123.724024816 321.824392707 l 2
 121.483358015 322.992062559 117.591295853 326.216088051 115.678160787 329.505545025 c 0
 109.898383287 339.443332342 113.938587143 352.602505282 124.299205648 357.584776743 c 2
 670.453502523 620.222472055 l 1
 688.477732391 628.890063282 l 1
 697.145323618 610.865833415 l 1
EndSplineSet
Substitution2: "Single Substitution lookup 194 subtable" ky.cvc.3
Substitution2: "Single Substitution lookup 190 subtable" ky.cvc.1
Substitution2: "Single Substitution lookup 186 subtable" ky.ccv.1
Substitution2: "Single Substitution lookup 161 subtable" ky.ccv.2
Substitution2: "Single Substitution lookup 148 subtable" ky.ccv.2
Substitution2: "Single Substitution lookup 128 subtable" ky.cvc.3
Substitution2: "Single Substitution lookup 124 subtable" ky.cvc.1
Substitution2: "Single Substitution lookup 120 subtable" ky.ccv.1
Substitution2: "Single Substitution lookup 95 subtable" ky.ccv.2
Substitution2: "Single Substitution lookup 82 subtable" ky.ccv.2
Substitution2: "Single Substitution lookup 62 subtable" ky.cvc.3
Substitution2: "Single Substitution lookup 58 subtable" ky.cvc.1
Substitution2: "Single Substitution lookup 54 subtable" ky.ccv.1
Substitution2: "Single Substitution lookup 29 subtable" ky.ccv.2
Substitution2: "Single Substitution lookup 16 subtable" ky.ccv.2
EndChar

StartChar: cy
Encoding: 6 60262 6
Width: 810
VWidth: 2197
Flags: W
HStem: 308.571 40<111.868 356.221 451.954 699.121> 580.837 38.3258<650.056 693.101>
VStem: 385.494 40<36.0439 307.664>
AnchorPoint: "Above" 405 0 basechar 0
LayerCount: 2
Back
SplineSet
131.868164062 328.571289062 m 5
 679.12109375 328.571289062 l 1029
405.494140625 251.6484375 m 5
 405.494140625 56.0439453125 l 1029
131.868164062 602.198242188 m 5
 188.588867188 578.239257812 402.5 404.40625 405.494140625 251.6484375 c 5
 402.806640625 398.190429688 607.828125 578.698242188 679.12109375 600 c 1029
EndSplineSet
Fore
SplineSet
113.444365288 609.980506557 m 1
 121.226629658 628.404305332 l 1
 139.650428432 620.622040962 l 2
 192.05362881 598.486781879 342.255913151 479.05612155 401.465421595 348.571289062 c 1
 407.082109486 348.571289062 l 1
 462.917067672 477.823420493 607.223950624 599.391402454 673.395379661 619.162885956 c 2
 692.558265617 624.888600045 l 1
 698.283979706 605.725714089 l 1
 704.009693795 586.562828133 l 1
 684.846807839 580.837114044 l 2
 636.162742056 566.290712108 507.732206499 457.892860757 451.953612545 348.571289062 c 1
 679.12109375 348.571289062 l 1
 699.12109375 348.571289062 l 1
 699.12109375 328.571289062 l 1
 699.12109375 308.571289062 l 1
 679.12109375 308.571289062 l 1
 435.02115763 308.571289062 l 1
 429.211104082 290.978114181 425.81678882 273.661353436 425.494140625 257.020971443 c 2
 425.494140625 251.6484375 l 1
 425.494140625 56.0439453125 l 1
 425.494140625 36.0439453125 l 1
 405.494140625 36.0439453125 l 1
 385.494140625 36.0439453125 l 1
 385.494140625 56.0439453125 l 1
 385.494140625 251.445937316 l 2
 385.105135172 270.015925704 381.026401819 289.207747877 374.131812462 308.571289062 c 1
 131.868164062 308.571289062 l 1
 111.868164062 308.571289062 l 1
 111.868164062 328.571289062 l 1
 111.868164062 348.571289062 l 1
 131.868164062 348.571289062 l 1
 356.221330016 348.571289062 l 1
 296.72549787 460.007962124 164.02800002 566.902788005 124.085899693 583.774443413 c 2
 105.662100918 591.556707783 l 1
 113.444365288 609.980506557 l 1
EndSplineSet
Substitution2: "Single Substitution lookup 194 subtable" cy.cvc.3
Substitution2: "Single Substitution lookup 190 subtable" cy.cvc.1
Substitution2: "Single Substitution lookup 186 subtable" cy.ccv.1
Substitution2: "Single Substitution lookup 171 subtable" cy.ccv.2
Substitution2: "Single Substitution lookup 128 subtable" cy.cvc.3
Substitution2: "Single Substitution lookup 124 subtable" cy.cvc.1
Substitution2: "Single Substitution lookup 120 subtable" cy.ccv.1
Substitution2: "Single Substitution lookup 105 subtable" cy.ccv.2
Substitution2: "Single Substitution lookup 62 subtable" cy.cvc.3
Substitution2: "Single Substitution lookup 58 subtable" cy.cvc.1
Substitution2: "Single Substitution lookup 54 subtable" cy.ccv.1
Substitution2: "Single Substitution lookup 39 subtable" cy.ccv.2
EndChar

StartChar: xy
Encoding: 7 60263 7
Width: 810
VWidth: 2197
Flags: W
HStem: 577.429 38.5488<634.649 691.495>
VStem: 385.494 40<34.9453 351.696>
AnchorPoint: "Above" 405 0 basechar 0
LayerCount: 2
Back
SplineSet
405.494140625 257.142578125 m 5
 405.494140625 54.9453125 l 1029
131.868164062 598.901367188 m 5
 216.153320312 567.732421875 401.045898438 455.877929688 405.494140625 257.142578125 c 5
 401.715820312 448.077148438 576.711914062 568.948242188 676.922851562 596.703125 c 1029
EndSplineSet
Fore
SplineSet
113.109727849 605.83830245 m 1
 120.046663112 624.596738663 l 1
 138.805099325 617.659803401 l 2
 210.46911545 591.158199811 349.138503007 510.745853129 403.616072137 369.273565243 c 1
 453.013881434 508.22019956 586.031342609 592.282315696 671.584526472 615.977519549 c 2
 690.858921021 621.315844639 l 1
 696.197246111 602.04145009 l 1
 701.535571202 582.767055541 l 1
 682.261176653 577.428730451 l 2
 589.417554165 551.714333137 429.016359543 440.013481089 425.494140625 268.840191005 c 2
 425.494140625 257.142578125 l 1
 425.494140625 54.9453125 l 1
 425.494140625 34.9453125 l 1
 405.494140625 34.9453125 l 1
 385.494140625 34.9453125 l 1
 385.494140625 54.9453125 l 1
 385.494140625 256.915154216 l 1
 381.210910494 442.176731567 206.271065288 550.063175202 124.9312288 580.142930974 c 2
 106.172792587 587.079866237 l 1
 113.109727849 605.83830245 l 1
EndSplineSet
Substitution2: "Single Substitution lookup 194 subtable" xy.cvc.3
Substitution2: "Single Substitution lookup 190 subtable" xy.cvc.1
Substitution2: "Single Substitution lookup 186 subtable" xy.ccv.1
Substitution2: "Single Substitution lookup 128 subtable" xy.cvc.3
Substitution2: "Single Substitution lookup 124 subtable" xy.cvc.1
Substitution2: "Single Substitution lookup 120 subtable" xy.ccv.1
Substitution2: "Single Substitution lookup 62 subtable" xy.cvc.3
Substitution2: "Single Substitution lookup 58 subtable" xy.cvc.1
Substitution2: "Single Substitution lookup 54 subtable" xy.ccv.1
EndChar

StartChar: iy
Encoding: 8 60264 8
Width: 810
VWidth: 2197
Flags: W
HStem: 35.4942 40<151.868 700.2>
VStem: 111.868 40<74.9653 617.802>
AnchorPoint: "Above" 405 0 basechar 0
LayerCount: 2
Back
SplineSet
131.868164062 597.801757812 m 5
 131.868164062 54.9453125 l 5
 680.219726562 55.494140625 l 1029
EndSplineSet
Fore
SplineSet
131.868164062 617.801757812 m 1
 151.868164062 617.801757812 l 1
 151.868164062 597.801757812 l 1
 151.868164062 74.965339899 l 1
 680.199709191 75.4941306076 l 1
 700.199699174 75.5141479792 l 1
 700.219716545 55.5141579966 l 1
 700.239733917 35.514168014 l 1
 680.239743934 35.4941506424 l 1
 131.888181434 34.9453225174 l 2
 123.267228711 34.9366940723 111.868164062 42.8457428906 111.868164062 54.9453125 c 2
 111.868164062 597.801757812 l 1
 111.868164062 617.801757812 l 1
 131.868164062 617.801757812 l 1
EndSplineSet
Substitution2: "Single Substitution lookup 194 subtable" iy.cvc.3
Substitution2: "Single Substitution lookup 190 subtable" iy.cvc.1
Substitution2: "Single Substitution lookup 186 subtable" iy.ccv.1
Substitution2: "Single Substitution lookup 128 subtable" iy.cvc.3
Substitution2: "Single Substitution lookup 124 subtable" iy.cvc.1
Substitution2: "Single Substitution lookup 120 subtable" iy.ccv.1
Substitution2: "Single Substitution lookup 62 subtable" iy.cvc.3
Substitution2: "Single Substitution lookup 58 subtable" iy.cvc.1
Substitution2: "Single Substitution lookup 54 subtable" iy.ccv.1
EndChar

StartChar: ry
Encoding: 9 60265 9
Width: 810
VWidth: 2197
Flags: W
AnchorPoint: "Above" 405 0 basechar 0
LayerCount: 2
Back
SplineSet
131.868164062 54.9453125 m 5
 679.12109375 602.198242188 l 1053
131.868164062 602.198242188 m 5
 679.12109375 54.9453125 l 1029
EndSplineSet
Fore
SplineSet
117.726028439 616.340377811 m 1
 131.868164062 630.482513435 l 1
 146.010299686 616.340377811 l 1
 405.494628906 356.856048591 l 1
 664.978958126 616.340377811 l 1
 679.12109375 630.482513435 l 1
 693.263229374 616.340377811 l 1
 707.405364997 602.198242188 l 1
 693.263229374 588.056106564 l 1
 433.778900154 328.571777344 l 1
 693.263229374 69.0874481237 l 1
 707.405364997 54.9453125 l 1
 693.263229374 40.8031768763 l 1
 679.12109375 26.6610412525 l 1
 664.978958126 40.8031768763 l 1
 405.494628906 300.287506096 l 1
 146.010299686 40.8031768763 l 1
 131.868164062 26.6610412525 l 1
 117.726028439 40.8031768763 l 1
 103.583892815 54.9453125 l 1
 117.726028439 69.0874481237 l 1
 377.210357659 328.571777344 l 1
 117.726028439 588.056106564 l 1
 103.583892815 602.198242188 l 1
 117.726028439 616.340377811 l 1
EndSplineSet
Substitution2: "Single Substitution lookup 194 subtable" ry.cvc.3
Substitution2: "Single Substitution lookup 190 subtable" ry.cvc.1
Substitution2: "Single Substitution lookup 186 subtable" ry.ccv.1
Substitution2: "Single Substitution lookup 184 subtable" ry.ccv.2
Substitution2: "Single Substitution lookup 182 subtable" ry.ccv.2
Substitution2: "Single Substitution lookup 180 subtable" ry.ccv.2
Substitution2: "Single Substitution lookup 177 subtable" ry.ccv.2
Substitution2: "Single Substitution lookup 175 subtable" ry.ccv.2
Substitution2: "Single Substitution lookup 172 subtable" ry.ccv.2
Substitution2: "Single Substitution lookup 165 subtable" ry.ccv.2
Substitution2: "Single Substitution lookup 152 subtable" ry.ccv.2
Substitution2: "Single Substitution lookup 144 subtable" ry.ccv.2
Substitution2: "Single Substitution lookup 142 subtable" ry.ccv.2
Substitution2: "Single Substitution lookup 140 subtable" ry.ccv.2
Substitution2: "Single Substitution lookup 138 subtable" ry.ccv.2
Substitution2: "Single Substitution lookup 128 subtable" ry.cvc.3
Substitution2: "Single Substitution lookup 124 subtable" ry.cvc.1
Substitution2: "Single Substitution lookup 120 subtable" ry.ccv.1
Substitution2: "Single Substitution lookup 118 subtable" ry.ccv.2
Substitution2: "Single Substitution lookup 116 subtable" ry.ccv.2
Substitution2: "Single Substitution lookup 114 subtable" ry.ccv.2
Substitution2: "Single Substitution lookup 111 subtable" ry.ccv.2
Substitution2: "Single Substitution lookup 109 subtable" ry.ccv.2
Substitution2: "Single Substitution lookup 106 subtable" ry.ccv.2
Substitution2: "Single Substitution lookup 99 subtable" ry.ccv.2
Substitution2: "Single Substitution lookup 86 subtable" ry.ccv.2
Substitution2: "Single Substitution lookup 78 subtable" ry.ccv.2
Substitution2: "Single Substitution lookup 76 subtable" ry.ccv.2
Substitution2: "Single Substitution lookup 74 subtable" ry.ccv.2
Substitution2: "Single Substitution lookup 72 subtable" ry.ccv.2
Substitution2: "Single Substitution lookup 62 subtable" ry.cvc.3
Substitution2: "Single Substitution lookup 58 subtable" ry.cvc.1
Substitution2: "Single Substitution lookup 54 subtable" ry.ccv.1
Substitution2: "Single Substitution lookup 52 subtable" ry.ccv.2
Substitution2: "Single Substitution lookup 50 subtable" ry.ccv.2
Substitution2: "Single Substitution lookup 48 subtable" ry.ccv.2
Substitution2: "Single Substitution lookup 45 subtable" ry.ccv.2
Substitution2: "Single Substitution lookup 43 subtable" ry.ccv.2
Substitution2: "Single Substitution lookup 40 subtable" ry.ccv.2
Substitution2: "Single Substitution lookup 33 subtable" ry.ccv.2
Substitution2: "Single Substitution lookup 20 subtable" ry.ccv.2
Substitution2: "Single Substitution lookup 12 subtable" ry.ccv.2
Substitution2: "Single Substitution lookup 10 subtable" ry.ccv.2
Substitution2: "Single Substitution lookup 8 subtable" ry.ccv.2
Substitution2: "Single Substitution lookup 6 subtable" ry.ccv.2
EndChar

StartChar: ny
Encoding: 16 60272 16
Width: 810
VWidth: 2197
Flags: W
HStem: 34.9453 40<151.868 659.121> 582.198 40<151.868 659.121>
VStem: 111.868 40<74.9453 582.198> 659.121 40<74.9453 582.198>
AnchorPoint: "Above" 405 0 basechar 0
LayerCount: 2
Back
SplineSet
131.868164062 602.198242188 m 5
 679.12109375 602.198242188 l 5
 679.12109375 54.9453125 l 5
 131.868164062 54.9453125 l 5
 131.868164062 602.198242188 l 5
EndSplineSet
Fore
SplineSet
131.868164062 622.198242188 m 2
 679.12109375 622.198242188 l 2
 691.227124034 622.198242188 699.12109375 610.782165654 699.12109375 602.198242188 c 2
 699.12109375 54.9453125 l 2
 699.12109375 42.8392822156 687.705017216 34.9453125 679.12109375 34.9453125 c 2
 131.868164062 34.9453125 l 2
 119.762133778 34.9453125 111.868164062 46.3613890339 111.868164062 54.9453125 c 2
 111.868164062 602.198242188 l 2
 111.868164062 614.304272472 123.284240596 622.198242188 131.868164062 622.198242188 c 2
151.868164062 582.198242188 m 1
 151.868164062 74.9453125 l 1
 659.12109375 74.9453125 l 1
 659.12109375 582.198242188 l 1
 151.868164062 582.198242188 l 1
EndSplineSet
Substitution2: "Single Substitution lookup 194 subtable" ny.cvc.3
Substitution2: "Single Substitution lookup 190 subtable" ny.cvc.1
Substitution2: "Single Substitution lookup 186 subtable" ny.ccv.1
Substitution2: "Single Substitution lookup 163 subtable" ny.ccv.2
Substitution2: "Single Substitution lookup 150 subtable" ny.ccv.2
Substitution2: "Single Substitution lookup 128 subtable" ny.cvc.3
Substitution2: "Single Substitution lookup 124 subtable" ny.cvc.1
Substitution2: "Single Substitution lookup 120 subtable" ny.ccv.1
Substitution2: "Single Substitution lookup 97 subtable" ny.ccv.2
Substitution2: "Single Substitution lookup 84 subtable" ny.ccv.2
Substitution2: "Single Substitution lookup 62 subtable" ny.cvc.3
Substitution2: "Single Substitution lookup 58 subtable" ny.cvc.1
Substitution2: "Single Substitution lookup 54 subtable" ny.ccv.1
Substitution2: "Single Substitution lookup 31 subtable" ny.ccv.2
Substitution2: "Single Substitution lookup 18 subtable" ny.ccv.2
EndChar

StartChar: ty
Encoding: 17 60273 17
Width: 810
VWidth: 2197
Flags: W
HStem: 34.9453 40<151.868 699.121> 582.198 40<151.868 699.121>
VStem: 111.868 40<74.9453 582.198>
AnchorPoint: "Above" 405 0 basechar 0
LayerCount: 2
Back
SplineSet
679.12109375 54.9453125 m 5
 131.868164062 54.9453125 l 5
 131.868164062 602.198242188 l 5
 679.12109375 602.198242188 l 1029
EndSplineSet
Fore
SplineSet
699.12109375 54.9453125 m 1
 699.12109375 34.9453125 l 1
 679.12109375 34.9453125 l 1
 131.868164062 34.9453125 l 2
 119.762133778 34.9453125 111.868164062 46.3613890339 111.868164062 54.9453125 c 2
 111.868164062 602.198242188 l 2
 111.868164062 614.304272472 123.284240596 622.198242188 131.868164062 622.198242188 c 2
 679.12109375 622.198242188 l 1
 699.12109375 622.198242188 l 1
 699.12109375 602.198242188 l 1
 699.12109375 582.198242188 l 1
 679.12109375 582.198242188 l 1
 151.868164062 582.198242188 l 1
 151.868164062 74.9453125 l 1
 679.12109375 74.9453125 l 1
 699.12109375 74.9453125 l 1
 699.12109375 54.9453125 l 1
EndSplineSet
Substitution2: "Single Substitution lookup 194 subtable" ty.cvc.3
Substitution2: "Single Substitution lookup 190 subtable" ty.cvc.1
Substitution2: "Single Substitution lookup 186 subtable" ty.ccv.1
Substitution2: "Single Substitution lookup 160 subtable" ty.ccv.2
Substitution2: "Single Substitution lookup 147 subtable" ty.ccv.2
Substitution2: "Single Substitution lookup 128 subtable" ty.cvc.3
Substitution2: "Single Substitution lookup 124 subtable" ty.cvc.1
Substitution2: "Single Substitution lookup 120 subtable" ty.ccv.1
Substitution2: "Single Substitution lookup 94 subtable" ty.ccv.2
Substitution2: "Single Substitution lookup 81 subtable" ty.ccv.2
Substitution2: "Single Substitution lookup 62 subtable" ty.cvc.3
Substitution2: "Single Substitution lookup 58 subtable" ty.cvc.1
Substitution2: "Single Substitution lookup 54 subtable" ty.ccv.1
Substitution2: "Single Substitution lookup 28 subtable" ty.ccv.2
Substitution2: "Single Substitution lookup 15 subtable" ty.ccv.2
EndChar

StartChar: dy
Encoding: 18 60274 18
Width: 810
VWidth: 2197
Flags: W
HStem: 34.9453 40<111.868 659.121> 582.198 40<111.868 659.121>
VStem: 659.121 40<74.9453 582.198>
AnchorPoint: "Above" 405 0 basechar 0
LayerCount: 2
Back
SplineSet
131.868164062 602.198242188 m 5
 679.12109375 602.198242188 l 5
 679.12109375 54.9453125 l 5
 131.868164062 54.9453125 l 1029
EndSplineSet
Fore
SplineSet
111.868164062 602.198242188 m 1
 111.868164062 622.198242188 l 1
 131.868164062 622.198242188 l 1
 679.12109375 622.198242188 l 2
 691.227124034 622.198242188 699.12109375 610.782165654 699.12109375 602.198242188 c 2
 699.12109375 54.9453125 l 2
 699.12109375 42.8392822156 687.705017216 34.9453125 679.12109375 34.9453125 c 2
 131.868164062 34.9453125 l 1
 111.868164062 34.9453125 l 1
 111.868164062 54.9453125 l 1
 111.868164062 74.9453125 l 1
 131.868164062 74.9453125 l 1
 659.12109375 74.9453125 l 1
 659.12109375 582.198242188 l 1
 131.868164062 582.198242188 l 1
 111.868164062 582.198242188 l 1
 111.868164062 602.198242188 l 1
EndSplineSet
Substitution2: "Single Substitution lookup 194 subtable" dy.cvc.3
Substitution2: "Single Substitution lookup 190 subtable" dy.cvc.1
Substitution2: "Single Substitution lookup 186 subtable" dy.ccv.1
Substitution2: "Single Substitution lookup 168 subtable" dy.ccv.2
Substitution2: "Single Substitution lookup 155 subtable" dy.ccv.2
Substitution2: "Single Substitution lookup 128 subtable" dy.cvc.3
Substitution2: "Single Substitution lookup 124 subtable" dy.cvc.1
Substitution2: "Single Substitution lookup 120 subtable" dy.ccv.1
Substitution2: "Single Substitution lookup 102 subtable" dy.ccv.2
Substitution2: "Single Substitution lookup 89 subtable" dy.ccv.2
Substitution2: "Single Substitution lookup 62 subtable" dy.cvc.3
Substitution2: "Single Substitution lookup 58 subtable" dy.cvc.1
Substitution2: "Single Substitution lookup 54 subtable" dy.ccv.1
Substitution2: "Single Substitution lookup 36 subtable" dy.ccv.2
Substitution2: "Single Substitution lookup 23 subtable" dy.ccv.2
EndChar

StartChar: sy
Encoding: 19 60275 19
Width: 810
VWidth: 2197
Flags: W
HStem: 35.4941 40<151.868 394.214>
VStem: 111.868 40<75.4941 622.198>
AnchorPoint: "Above" 405 0 basechar 0
LayerCount: 2
Back
SplineSet
131.868164062 602.198242188 m 5
 131.868164062 55.494140625 l 5
 405.494140625 55.494140625 l 5
 480.248046875 297.5859375 543.504882812 431.475585938 679.12109375 602.198242188 c 1029
EndSplineSet
Fore
SplineSet
131.868164062 622.198242188 m 1
 151.868164062 622.198242188 l 1
 151.868164062 602.198242188 l 1
 151.868164062 75.494140625 l 1
 390.763290439 75.494140625 l 1
 464.523858591 311.369525308 528.957769801 445.316995775 663.460768277 614.638266548 c 2
 675.900792638 630.298592021 l 1
 691.561118111 617.85856766 l 1
 707.221443583 605.4185433 l 1
 694.781419223 589.758217827 l 2
 560.579672259 420.816182383 499.076644607 290.774789357 424.603851128 49.5933809716 c 0
 422.205411189 41.8259924339 414.393801002 35.494140625 405.494140625 35.494140625 c 2
 131.868164062 35.494140625 l 2
 123.284240596 35.494140625 111.868164062 43.3881103406 111.868164062 55.494140625 c 2
 111.868164062 602.198242188 l 1
 111.868164062 622.198242188 l 1
 131.868164062 622.198242188 l 1
EndSplineSet
Substitution2: "Single Substitution lookup 194 subtable" sy.cvc.3
Substitution2: "Single Substitution lookup 190 subtable" sy.cvc.1
Substitution2: "Single Substitution lookup 186 subtable" sy.ccv.1
Substitution2: "Single Substitution lookup 173 subtable" sy.ccv.2
Substitution2: "Single Substitution lookup 128 subtable" sy.cvc.3
Substitution2: "Single Substitution lookup 124 subtable" sy.cvc.1
Substitution2: "Single Substitution lookup 120 subtable" sy.ccv.1
Substitution2: "Single Substitution lookup 107 subtable" sy.ccv.2
Substitution2: "Single Substitution lookup 62 subtable" sy.cvc.3
Substitution2: "Single Substitution lookup 58 subtable" sy.cvc.1
Substitution2: "Single Substitution lookup 54 subtable" sy.ccv.1
Substitution2: "Single Substitution lookup 41 subtable" sy.ccv.2
EndChar

StartChar: zy
Encoding: 20 60276 20
Width: 810
VWidth: 2197
Flags: W
HStem: 582.198 40<348.686 659.121>
VStem: 659.121 40<34.9453 582.198>
AnchorPoint: "Above" 405 0 basechar 0
LayerCount: 2
Back
SplineSet
131.868164062 54.9453125 m 5
 229.8125 177.999023438 291.185546875 253.153320312 332.966796875 602.198242188 c 5
 679.12109375 602.198242188 l 5
 679.12109375 54.9453125 l 1029
EndSplineSet
Fore
SplineSet
119.412965538 39.2970528613 m 1
 103.764705899 51.7522513857 l 1
 116.219904424 67.4005110244 l 2
 213.538052688 189.667502482 271.520810931 257.146910221 313.108560072 604.575305724 c 0
 314.360781177 615.036491492 324.075105829 622.198242188 332.966796875 622.198242188 c 2
 679.12109375 622.198242188 l 2
 691.227124034 622.198242188 699.12109375 610.782165654 699.12109375 602.198242188 c 2
 699.12109375 54.9453125 l 1
 699.12109375 34.9453125 l 1
 679.12109375 34.9453125 l 1
 659.12109375 34.9453125 l 1
 659.12109375 54.9453125 l 1
 659.12109375 582.198242188 l 1
 350.670397747 582.198242188 l 1
 308.686102737 247.016119497 244.351756745 164.150513904 147.516423701 42.4901139756 c 2
 135.061225177 26.841854337 l 1
 119.412965538 39.2970528613 l 1
EndSplineSet
Substitution2: "Single Substitution lookup 194 subtable" zy.cvc.3
Substitution2: "Single Substitution lookup 190 subtable" zy.cvc.1
Substitution2: "Single Substitution lookup 186 subtable" zy.ccv.1
Substitution2: "Single Substitution lookup 178 subtable" zy.ccv.2
Substitution2: "Single Substitution lookup 128 subtable" zy.cvc.3
Substitution2: "Single Substitution lookup 124 subtable" zy.cvc.1
Substitution2: "Single Substitution lookup 120 subtable" zy.ccv.1
Substitution2: "Single Substitution lookup 112 subtable" zy.ccv.2
Substitution2: "Single Substitution lookup 62 subtable" zy.cvc.3
Substitution2: "Single Substitution lookup 58 subtable" zy.cvc.1
Substitution2: "Single Substitution lookup 54 subtable" zy.ccv.1
Substitution2: "Single Substitution lookup 46 subtable" zy.ccv.2
EndChar

StartChar: gy
Encoding: 21 60277 21
Width: 810
VWidth: 2197
Flags: W
AnchorPoint: "Above" 405 0 basechar 0
LayerCount: 2
Back
SplineSet
131.868164062 605.494140625 m 5
 682.41796875 339.560546875 l 5
 131.868164062 54.9453125 l 1029
EndSplineSet
Fore
SplineSet
113.859064712 614.193125657 m 1
 122.558049744 632.202225007 l 1
 140.567149095 623.503239975 l 1
 139.666694127 623.938189227 139.567149095 623.503239975 140.567149095 623.503239975 c 1
 691.116953782 357.569646225 l 2
 701.468875022 352.569329099 705.486143072 339.403136139 699.689057895 329.475435088 c 0
 697.733741215 326.126890283 693.137683022 322.58779989 691.602559543 321.794194071 c 2
 141.052754856 37.1789596959 l 1
 141.052754856 36.1789596959 141.941072496 37.6381892355 141.052754856 37.1789596959 c 1
 123.286402052 27.9943689026 l 1
 114.101811258 45.7607217068 l 1
 104.917220465 63.5270745109 l 1
 122.683573269 72.7116653041 l 1
 637.692426253 338.953455146 l 1
 123.16917903 587.485041275 l 1
 105.16007968 596.184026307 l 1
 113.859064712 614.193125657 l 1
EndSplineSet
Substitution2: "Single Substitution lookup 194 subtable" gy.cvc.3
Substitution2: "Single Substitution lookup 190 subtable" gy.cvc.1
Substitution2: "Single Substitution lookup 186 subtable" gy.ccv.1
Substitution2: "Single Substitution lookup 169 subtable" gy.ccv.2
Substitution2: "Single Substitution lookup 156 subtable" gy.ccv.2
Substitution2: "Single Substitution lookup 128 subtable" gy.cvc.3
Substitution2: "Single Substitution lookup 124 subtable" gy.cvc.1
Substitution2: "Single Substitution lookup 120 subtable" gy.ccv.1
Substitution2: "Single Substitution lookup 103 subtable" gy.ccv.2
Substitution2: "Single Substitution lookup 90 subtable" gy.ccv.2
Substitution2: "Single Substitution lookup 62 subtable" gy.cvc.3
Substitution2: "Single Substitution lookup 58 subtable" gy.cvc.1
Substitution2: "Single Substitution lookup 54 subtable" gy.ccv.1
Substitution2: "Single Substitution lookup 37 subtable" gy.ccv.2
Substitution2: "Single Substitution lookup 24 subtable" gy.ccv.2
EndChar

StartChar: jy
Encoding: 22 60278 22
Width: 810
VWidth: 2197
Flags: W
HStem: 35.8979 38.0949<652.295 695.367> 319.561 40<111.868 358.954 449.064 699.121>
VStem: 385.494 40<360.46 622.198>
AnchorPoint: "Above" 405 0 basechar 0
LayerCount: 2
Back
SplineSet
131.868164062 339.560546875 m 5
 679.12109375 339.560546875 l 1029
405.494140625 416.483398438 m 5
 405.494140625 602.198242188 l 1029
131.868164062 54.9453125 m 5
 188.58984375 80.4541015625 402.500976562 253.837890625 405.494140625 416.483398438 c 5
 402.806640625 259.440429688 607.828125 77.7724609375 679.12109375 54.9453125 c 1029
EndSplineSet
Fore
SplineSet
113.627813008 46.7422890697 m 1
 105.424789577 64.9826401245 l 1
 123.665140632 73.1856635548 l 2
 164.573048407 91.5827067343 300.880748576 201.42805827 358.953586094 319.560546875 c 1
 131.868164062 319.560546875 l 1
 111.868164062 319.560546875 l 1
 111.868164062 339.560546875 l 1
 111.868164062 359.560546875 l 1
 131.868164062 359.560546875 l 1
 375.314229203 359.560546875 l 1
 381.491859501 378.741584665 385.127876356 397.895236309 385.494140625 416.672764374 c 2
 385.494140625 602.198242188 l 1
 385.494140625 622.198242188 l 1
 405.494140625 622.198242188 l 1
 425.494140625 622.198242188 l 1
 425.494140625 602.198242188 l 1
 425.494140625 416.483398438 l 1
 425.494140625 410.701286669 l 2
 425.794015373 394.002505793 428.745799732 376.854328959 433.823748397 359.560546875 c 1
 679.12109375 359.560546875 l 1
 699.12109375 359.560546875 l 1
 699.12109375 339.560546875 l 1
 699.12109375 319.560546875 l 1
 679.12109375 319.560546875 l 1
 449.063638926 319.560546875 l 1
 503.211037044 202.733908148 635.543134281 89.8986428125 685.219855373 73.992756073 c 2
 704.267298946 67.8939944501 l 1
 698.168537323 48.8465508771 l 1
 692.0697757 29.7991073041 l 1
 673.022332127 35.897868927 l 2
 606.387860596 57.2334227603 458.959262458 182.857048039 404.978430382 319.560546875 c 1
 403.444742575 319.560546875 l 1
 344.825558875 180.920846856 192.580485542 60.3193645294 140.071187493 36.7049614452 c 2
 121.830836438 28.5019380149 l 1
 113.627813008 46.7422890697 l 1
EndSplineSet
Substitution2: "Single Substitution lookup 194 subtable" jy.cvc.3
Substitution2: "Single Substitution lookup 190 subtable" jy.cvc.1
Substitution2: "Single Substitution lookup 186 subtable" jy.ccv.1
Substitution2: "Single Substitution lookup 176 subtable" jy.ccv.2
Substitution2: "Single Substitution lookup 128 subtable" jy.cvc.3
Substitution2: "Single Substitution lookup 124 subtable" jy.cvc.1
Substitution2: "Single Substitution lookup 120 subtable" jy.ccv.1
Substitution2: "Single Substitution lookup 110 subtable" jy.ccv.2
Substitution2: "Single Substitution lookup 62 subtable" jy.cvc.3
Substitution2: "Single Substitution lookup 58 subtable" jy.cvc.1
Substitution2: "Single Substitution lookup 54 subtable" jy.ccv.1
Substitution2: "Single Substitution lookup 44 subtable" jy.ccv.2
EndChar

StartChar: yhy
Encoding: 23 60279 23
Width: 810
VWidth: 2197
Flags: W
VStem: 111.868 40<102.957 618.901> 662.418 40<34.9453 553.087>
AnchorPoint: "Above" 405 0 basechar 0
LayerCount: 2
Back
SplineSet
131.868164062 598.901367188 m 29
 131.868164062 54.9453125 l 5
 682.41796875 601.098632812 l 29
 682.41796875 54.9453125 l 1029
EndSplineSet
Fore
SplineSet
131.868164062 618.901367188 m 1
 151.868164062 618.901367188 l 1
 151.868164062 598.901367188 l 1
 151.868164062 102.957163815 l 1
 668.332639569 615.297347608 l 2
 676.49429021 623.393822367 690.24683178 622.798272173 697.678009768 614.026554073 c 0
 700.730313982 610.423632415 702.41796875 605.681079602 702.41796875 601.098632812 c 2
 702.41796875 54.9453125 l 1
 702.41796875 34.9453125 l 1
 682.41796875 34.9453125 l 1
 662.41796875 34.9453125 l 1
 662.41796875 54.9453125 l 1
 662.41796875 553.086781498 l 1
 145.953493244 40.7465977043 l 2
 142.775007145 37.5934938034 138.154504251 35.3782046617 133.437305771 35.0069626611 c 0
 121.976420185 34.1049946577 111.868164062 43.4489894046 111.868164062 54.9453125 c 2
 111.868164062 598.901367188 l 1
 111.868164062 618.901367188 l 1
 131.868164062 618.901367188 l 1
EndSplineSet
Substitution2: "Single Substitution lookup 194 subtable" yhy.cvc.3
Substitution2: "Single Substitution lookup 190 subtable" yhy.cvc.1
Substitution2: "Single Substitution lookup 186 subtable" yhy.ccv.1
Substitution2: "Single Substitution lookup 128 subtable" yhy.cvc.3
Substitution2: "Single Substitution lookup 124 subtable" yhy.cvc.1
Substitution2: "Single Substitution lookup 120 subtable" yhy.ccv.1
Substitution2: "Single Substitution lookup 62 subtable" yhy.cvc.3
Substitution2: "Single Substitution lookup 58 subtable" yhy.cvc.1
Substitution2: "Single Substitution lookup 54 subtable" yhy.ccv.1
EndChar

StartChar: uy
Encoding: 24 60280 24
Width: 810
VWidth: 2197
Flags: W
HStem: 35.4941 40<111.868 662.418>
VStem: 662.418 40<75.4941 624.396>
AnchorPoint: "Above" 405 0 basechar 0
LayerCount: 2
Back
SplineSet
131.868164062 55.494140625 m 5
 682.41796875 55.494140625 l 5
 682.41796875 604.395507812 l 1029
EndSplineSet
Fore
SplineSet
111.868164062 55.494140625 m 1
 111.868164062 75.494140625 l 1
 131.868164062 75.494140625 l 1
 662.41796875 75.494140625 l 1
 662.41796875 604.395507812 l 1
 662.41796875 624.395507812 l 1
 682.41796875 624.395507812 l 1
 702.41796875 624.395507812 l 1
 702.41796875 604.395507812 l 1
 702.41796875 55.494140625 l 2
 702.41796875 46.9102171589 694.523999034 35.494140625 682.41796875 35.494140625 c 2
 131.868164062 35.494140625 l 1
 111.868164062 35.494140625 l 1
 111.868164062 55.494140625 l 1
EndSplineSet
Substitution2: "Single Substitution lookup 194 subtable" uy.cvc.3
Substitution2: "Single Substitution lookup 190 subtable" uy.cvc.1
Substitution2: "Single Substitution lookup 186 subtable" uy.ccv.1
Substitution2: "Single Substitution lookup 128 subtable" uy.cvc.3
Substitution2: "Single Substitution lookup 124 subtable" uy.cvc.1
Substitution2: "Single Substitution lookup 120 subtable" uy.ccv.1
Substitution2: "Single Substitution lookup 62 subtable" uy.cvc.3
Substitution2: "Single Substitution lookup 58 subtable" uy.cvc.1
Substitution2: "Single Substitution lookup 54 subtable" uy.ccv.1
EndChar

StartChar: ly
Encoding: 25 60281 25
Width: 810
VWidth: 2197
Flags: W
HStem: 34.9453 40<111.868 659.121> 308.571 40<151.868 659.121> 582.198 40<151.868 699.121>
VStem: 111.868 40<348.571 582.198> 659.121 40<74.9453 308.571>
CounterMasks: 1 e0
AnchorPoint: "Above" 405 0 basechar 0
LayerCount: 2
Back
SplineSet
679.12109375 602.198242188 m 5
 131.868164062 602.198242188 l 5
 131.868164062 328.571289062 l 5
 679.12109375 328.571289062 l 5
 679.12109375 54.9453125 l 5
 131.868164062 54.9453125 l 1029
EndSplineSet
Fore
SplineSet
699.12109375 602.198242188 m 1
 699.12109375 582.198242188 l 1
 679.12109375 582.198242188 l 1
 151.868164062 582.198242188 l 1
 151.868164062 348.571289062 l 1
 679.12109375 348.571289062 l 2
 691.227124034 348.571289062 699.12109375 337.155212529 699.12109375 328.571289062 c 2
 699.12109375 54.9453125 l 2
 699.12109375 42.8392822156 687.705017216 34.9453125 679.12109375 34.9453125 c 2
 131.868164062 34.9453125 l 1
 111.868164062 34.9453125 l 1
 111.868164062 54.9453125 l 1
 111.868164062 74.9453125 l 1
 131.868164062 74.9453125 l 1
 659.12109375 74.9453125 l 1
 659.12109375 308.571289062 l 1
 131.868164062 308.571289062 l 2
 123.284240596 308.571289062 111.868164062 316.465258778 111.868164062 328.571289062 c 2
 111.868164062 602.198242188 l 2
 111.868164062 610.782165654 119.762133778 622.198242188 131.868164062 622.198242188 c 2
 679.12109375 622.198242188 l 1
 699.12109375 622.198242188 l 1
 699.12109375 602.198242188 l 1
EndSplineSet
Substitution2: "Single Substitution lookup 194 subtable" ly.cvc.3
Substitution2: "Single Substitution lookup 190 subtable" ly.cvc.1
Substitution2: "Single Substitution lookup 186 subtable" ly.ccv.1
Substitution2: "Single Substitution lookup 183 subtable" ly.ccv.2
Substitution2: "Single Substitution lookup 181 subtable" ly.ccv.2
Substitution2: "Single Substitution lookup 179 subtable" ly.ccv.2
Substitution2: "Single Substitution lookup 174 subtable" ly.ccv.2
Substitution2: "Single Substitution lookup 164 subtable" ly.ccv.2
Substitution2: "Single Substitution lookup 151 subtable" ly.ccv.2
Substitution2: "Single Substitution lookup 143 subtable" ly.ccv.2
Substitution2: "Single Substitution lookup 141 subtable" ly.ccv.2
Substitution2: "Single Substitution lookup 139 subtable" ly.ccv.2
Substitution2: "Single Substitution lookup 137 subtable" ly.ccv.2
Substitution2: "Single Substitution lookup 128 subtable" ly.cvc.3
Substitution2: "Single Substitution lookup 124 subtable" ly.cvc.1
Substitution2: "Single Substitution lookup 120 subtable" ly.ccv.1
Substitution2: "Single Substitution lookup 117 subtable" ly.ccv.2
Substitution2: "Single Substitution lookup 115 subtable" ly.ccv.2
Substitution2: "Single Substitution lookup 113 subtable" ly.ccv.2
Substitution2: "Single Substitution lookup 108 subtable" ly.ccv.2
Substitution2: "Single Substitution lookup 98 subtable" ly.ccv.2
Substitution2: "Single Substitution lookup 85 subtable" ly.ccv.2
Substitution2: "Single Substitution lookup 77 subtable" ly.ccv.2
Substitution2: "Single Substitution lookup 75 subtable" ly.ccv.2
Substitution2: "Single Substitution lookup 73 subtable" ly.ccv.2
Substitution2: "Single Substitution lookup 71 subtable" ly.ccv.2
Substitution2: "Single Substitution lookup 62 subtable" ly.cvc.3
Substitution2: "Single Substitution lookup 58 subtable" ly.cvc.1
Substitution2: "Single Substitution lookup 54 subtable" ly.ccv.1
Substitution2: "Single Substitution lookup 51 subtable" ly.ccv.2
Substitution2: "Single Substitution lookup 49 subtable" ly.ccv.2
Substitution2: "Single Substitution lookup 47 subtable" ly.ccv.2
Substitution2: "Single Substitution lookup 42 subtable" ly.ccv.2
Substitution2: "Single Substitution lookup 32 subtable" ly.ccv.2
Substitution2: "Single Substitution lookup 19 subtable" ly.ccv.2
Substitution2: "Single Substitution lookup 11 subtable" ly.ccv.2
Substitution2: "Single Substitution lookup 9 subtable" ly.ccv.2
Substitution2: "Single Substitution lookup 7 subtable" ly.ccv.2
Substitution2: "Single Substitution lookup 5 subtable" ly.ccv.2
EndChar

StartChar: denpabu
Encoding: 31 60287 31
Width: 810
VWidth: 0
Flags: W
HStem: 14.0664 40<303.459 507.53> 625.055 40<303.459 507.53>
VStem: 87.6924 40<235.25 443.871> 683.297 40<235.25 443.871>
AnchorPoint: "Above" 405 0 basechar 0
LayerCount: 2
Back
SplineSet
107.692382812 339.560546875 m 0
 107.692382812 507.692382812 240.659179688 645.0546875 405.494140625 645.0546875 c 0
 570.330078125 645.0546875 703.296875 507.692382812 703.296875 339.560546875 c 0
 703.296875 171.428710938 570.330078125 34.06640625 405.494140625 34.06640625 c 0
 240.659179688 34.06640625 107.692382812 171.428710938 107.692382812 339.560546875 c 0
EndSplineSet
Fore
SplineSet
87.6923828125 339.560546875 m 0
 87.6923828125 518.270277675 229.142383655 665.0546875 405.494140625 665.0546875 c 0
 581.846795785 665.0546875 723.296875 518.270309947 723.296875 339.560546875 c 0
 723.296875 160.850785747 581.846823073 14.06640625 405.494140625 14.06640625 c 0
 229.142410942 14.06640625 87.6923828125 160.850814133 87.6923828125 339.560546875 c 0
127.692382812 339.560546875 m 0
 127.692382812 182.006607742 252.175948433 54.06640625 405.494140625 54.06640625 c 0
 558.813333177 54.06640625 683.296875 182.006636128 683.296875 339.560546875 c 0
 683.296875 497.114455678 558.813360465 625.0546875 405.494140625 625.0546875 c 0
 252.17597572 625.0546875 127.692382812 497.11448795 127.692382812 339.560546875 c 0
EndSplineSet
EndChar

StartChar: ebu.cv
Encoding: 42 -1 32
Width: 0
VWidth: 0
Flags: W
HStem: -113.406 40<152 385.234 425.305 699>
VStem: 112 40<-362.857 -113.406> 385.234 40.0001<-265.965 -113.406 -73.4062 54.0311>
AnchorPoint: "Above" 405 0 mark 0
LayerCount: 2
Back
SplineSet
405.494140625 34.06640625 m 5
 405 -246 l 1053
679 -93.40625 m 5
 132 -93.40625 l 5
 132 -342.857421875 l 1029
EndSplineSet
Fore
SplineSet
699 -93.40625 m 1
 699 -113.40625 l 1
 679 -113.40625 l 1
 425.233975498 -113.40625 l 1
 424.99996887 -246.035287184 l 1
 424.964681535 -266.035256205 l 1
 404.964712665 -265.99996887 l 1
 384.964743795 -265.964681535 l 1
 385.00003113 -245.964712665 l 1
 385.001795497 -244.964714221 385.00003113 -244.964712665 385.00003113 -245.964712665 c 1
 385.233913238 -113.40625 l 1
 152 -113.40625 l 1
 152 -342.857421875 l 1
 152 -362.857421875 l 1
 132 -362.857421875 l 1
 112 -362.857421875 l 1
 112 -342.857421875 l 1
 112 -93.40625 l 2
 112 -84.8223265339 119.893969716 -73.40625 132 -73.40625 c 2
 385.304488018 -73.40625 l 1
 385.494171755 34.1016935851 l 1
 385.52945909 54.1016624551 l 1
 405.52942796 54.0663751201 l 1
 425.52939683 54.031087785 l 1
 425.494109495 34.0311189149 l 1
 425.304550278 -73.40625 l 1
 679 -73.40625 l 1
 699 -73.40625 l 1
 699 -93.40625 l 1
EndSplineSet
EndChar

StartChar: obu.cv
Encoding: 43 -1 33
Width: 0
VWidth: 0
Flags: W
HStem: -113.406 40<112 385.234 425.305 659>
VStem: 385.234 40.0001<-265.965 -113.406 -73.4062 54.0311> 659 40<-362.857 -113.406>
AnchorPoint: "Above" 405 0 mark 0
LayerCount: 2
Back
SplineSet
405.494140625 34.06640625 m 5
 405 -246 l 1053
132 -93.40625 m 5
 679 -93.40625 l 5
 679 -342.857421875 l 1053
EndSplineSet
Fore
SplineSet
112 -93.40625 m 1
 112 -73.40625 l 1
 132 -73.40625 l 1
 385.304488018 -73.40625 l 1
 385.494171755 34.1016935851 l 1
 385.52945909 54.1016624551 l 1
 405.52942796 54.0663751201 l 1
 425.52939683 54.031087785 l 1
 425.494109495 34.0311189149 l 1
 425.304550278 -73.40625 l 1
 679 -73.40625 l 2
 691.106030284 -73.40625 699 -84.8223265339 699 -93.40625 c 2
 699 -342.857421875 l 1
 699 -362.857421875 l 1
 679 -362.857421875 l 1
 659 -362.857421875 l 1
 659 -342.857421875 l 1
 659 -113.40625 l 1
 425.233975498 -113.40625 l 1
 424.99996887 -246.035287184 l 1
 424.964681535 -266.035256205 l 1
 404.964712665 -265.99996887 l 1
 384.964743795 -265.964681535 l 1
 385.00003113 -245.964712665 l 1
 385.001795497 -244.964714221 385.00003113 -244.964712665 385.00003113 -245.964712665 c 1
 385.233913238 -113.40625 l 1
 132 -113.40625 l 1
 112 -113.40625 l 1
 112 -93.40625 l 1
EndSplineSet
EndChar

StartChar: ibu.cv
Encoding: 44 -1 34
Width: 0
VWidth: 0
Flags: W
HStem: -113.406 40<152 699>
VStem: 112 40<-362.857 -113.406>
AnchorPoint: "Above" 405 0 mark 0
LayerCount: 2
Back
SplineSet
679 -93.40625 m 5
 132 -93.40625 l 5
 132 -342.857421875 l 1029
EndSplineSet
Fore
SplineSet
699 -93.40625 m 1
 699 -113.40625 l 1
 679 -113.40625 l 1
 152 -113.40625 l 1
 152 -342.857421875 l 1
 152 -362.857421875 l 1
 132 -362.857421875 l 1
 112 -362.857421875 l 1
 112 -342.857421875 l 1
 112 -93.40625 l 2
 112 -84.8223265339 119.893969716 -73.40625 132 -73.40625 c 2
 679 -73.40625 l 1
 699 -73.40625 l 1
 699 -93.40625 l 1
EndSplineSet
EndChar

StartChar: my.cvc.1
Encoding: 32 -1 35
Width: 810
VWidth: 0
Flags: W
HStem: 232.747 40<184.835 626.154> 407.473 40<184.835 626.154> 582.198 40<184.835 626.154>
VStem: 144.835 40<272.747 407.473 447.473 582.198> 626.154 40<272.747 407.473 447.473 582.198>
CounterMasks: 1 e0
AnchorPoint: "Above" 405 0 basechar 0
LayerCount: 2
Back
SplineSet
164.834960938 602.198242188 m 1
 646.154296875 602.198242188 l 1
 646.154296875 252.747070312 l 1
 164.834960938 252.747070312 l 1
 164.834960938 602.198242188 l 1
164.834960938 427.47265625 m 1
 646.154296875 427.47265625 l 1025
EndSplineSet
Fore
SplineSet
164.834960938 622.198242188 m 2
 646.154296875 622.198242188 l 2
 658.260327159 622.198242188 666.154296875 610.782165654 666.154296875 602.198242188 c 2
 666.154296875 447.47265625 l 1
 666.154296875 427.47265625 l 1
 666.154296875 407.47265625 l 1
 666.154296875 252.747070312 l 2
 666.154296875 240.641040028 654.738220341 232.747070312 646.154296875 232.747070312 c 2
 164.834960938 232.747070312 l 2
 152.728930653 232.747070312 144.834960938 244.163146846 144.834960938 252.747070312 c 2
 144.834960938 407.47265625 l 1
 144.834960938 427.47265625 l 1
 144.834960938 447.47265625 l 1
 144.834960938 602.198242188 l 2
 144.834960938 614.304272472 156.251037471 622.198242188 164.834960938 622.198242188 c 2
626.154296875 447.47265625 m 1
 626.154296875 582.198242188 l 1
 184.834960938 582.198242188 l 1
 184.834960938 447.47265625 l 1
 626.154296875 447.47265625 l 1
626.154296875 407.47265625 m 1
 184.834960938 407.47265625 l 1
 184.834960938 272.747070312 l 1
 626.154296875 272.747070312 l 1
 626.154296875 407.47265625 l 1
EndSplineSet
EndChar

StartChar: my.ccv.1
Encoding: 96 -1 36
Width: 810
VWidth: 0
Flags: W
HStem: 34.9453 40<124.396 325.055> 308.571 40<124.396 325.055> 582.198 40<124.396 325.055>
VStem: 84.3955 40<74.9453 308.571 348.571 582.198> 325.055 40<74.9453 308.571 348.571 582.198>
CounterMasks: 1 e0
AnchorPoint: "Above" 405 0 basechar 0
LayerCount: 2
Back
SplineSet
345.0546875 328.571289062 m 5
 105.494140625 328.571289062 l 1029
104.395507812 602.198242188 m 5
 345.0546875 602.198242188 l 5
 345.0546875 54.9453125 l 5
 104.395507812 54.9453125 l 5
 104.395507812 602.198242188 l 5
EndSplineSet
Fore
SplineSet
104.395507812 622.198242188 m 2
 345.0546875 622.198242188 l 2
 357.160717784 622.198242188 365.0546875 610.782165654 365.0546875 602.198242188 c 2
 365.0546875 348.571289062 l 1
 365.0546875 328.571289062 l 1
 365.0546875 308.571289062 l 1
 365.0546875 54.9453125 l 2
 365.0546875 42.8392822156 353.638610966 34.9453125 345.0546875 34.9453125 c 2
 104.395507812 34.9453125 l 2
 92.2894775281 34.9453125 84.3955078125 46.3613890339 84.3955078125 54.9453125 c 2
 84.3955078125 602.198242188 l 2
 84.3955078125 614.304272472 95.8115843464 622.198242188 104.395507812 622.198242188 c 2
124.395507812 348.571289062 m 1
 325.0546875 348.571289062 l 1
 325.0546875 582.198242188 l 1
 124.395507812 582.198242188 l 1
 124.395507812 348.571289062 l 1
124.395507812 308.571289062 m 1
 124.395507812 74.9453125 l 1
 325.0546875 74.9453125 l 1
 325.0546875 308.571289062 l 1
 124.395507812 308.571289062 l 1
EndSplineSet
EndChar

StartChar: my.ccv.2
Encoding: 128 -1 37
Width: 0
VWidth: 0
Flags: W
HStem: 34.9453 40<488.132 687.692> 308.571 40<488.132 687.692> 582.198 40<488.132 687.692>
VStem: 448.132 40<74.9453 308.571 348.571 582.198> 687.692 40<74.9453 308.571 348.571 582.198>
CounterMasks: 1 e0
AnchorPoint: "Above" 405 0 mark 0
LayerCount: 2
Back
SplineSet
468.131835938 328.571289062 m 29
 707.692382812 328.571289062 l 1053
468.131835938 602.198242188 m 29
 707.692382812 602.198242188 l 29
 707.692382812 54.9453125 l 29
 468.131835938 54.9453125 l 29
 468.131835938 602.198242188 l 29
EndSplineSet
Fore
SplineSet
468.131835938 622.198242188 m 2
 707.692382812 622.198242188 l 2
 719.798413097 622.198242188 727.692382812 610.782165654 727.692382812 602.198242188 c 2
 727.692382812 348.571289062 l 1
 727.692382812 328.571289062 l 1
 727.692382812 308.571289062 l 1
 727.692382812 54.9453125 l 2
 727.692382812 42.8392822156 716.276306279 34.9453125 707.692382812 34.9453125 c 2
 468.131835938 34.9453125 l 2
 456.025805653 34.9453125 448.131835938 46.3613890339 448.131835938 54.9453125 c 2
 448.131835938 308.571289062 l 1
 448.131835938 328.571289062 l 1
 448.131835938 348.571289062 l 1
 448.131835938 602.198242188 l 2
 448.131835938 614.304272472 459.547912471 622.198242188 468.131835938 622.198242188 c 2
488.131835938 308.571289062 m 1
 488.131835938 74.9453125 l 1
 687.692382812 74.9453125 l 1
 687.692382812 308.571289062 l 1
 488.131835938 308.571289062 l 1
488.131835938 348.571289062 m 1
 687.692382812 348.571289062 l 1
 687.692382812 582.198242188 l 1
 488.131835938 582.198242188 l 1
 488.131835938 348.571289062 l 1
EndSplineSet
EndChar

StartChar: ebu.ccv
Encoding: 106 -1 38
Width: 0
VWidth: 0
Flags: W
HStem: -114 40<124 568 608 728>
VStem: 84 40<-363 -114> 568 40<-266 -114 -74 75>
AnchorPoint: "Above" 405 0 mark 0
LayerCount: 2
Back
SplineSet
588 55 m 5
 588 -246 l 1053
708 -94 m 5
 104 -94 l 5
 104 -343 l 1053
EndSplineSet
Fore
SplineSet
728 -94 m 1
 728 -114 l 1
 708 -114 l 1
 608 -114 l 1
 608 -246 l 1
 608 -266 l 1
 588 -266 l 1
 568 -266 l 1
 568 -246 l 1
 568 -114 l 1
 124 -114 l 1
 124 -343 l 1
 124 -363 l 1
 104 -363 l 1
 84 -363 l 1
 84 -343 l 1
 84 -94 l 2
 84 -85.4160765339 91.8939697156 -74 104 -74 c 2
 568 -74 l 1
 568 55 l 1
 568 75 l 1
 588 75 l 1
 608 75 l 1
 608 55 l 1
 608 -74 l 1
 708 -74 l 1
 728 -74 l 1
 728 -94 l 1
EndSplineSet
EndChar

StartChar: ry.ccv.2
Encoding: 137 -1 39
Width: 0
VWidth: 0
Flags: W
VStem: 441.79 292.244
AnchorPoint: "Above" 405 0 mark 0
LayerCount: 2
Back
SplineSet
468.131835938 54.9453125 m 29
 707.692382812 602.198242188 l 1053
468.131835938 602.198242188 m 29
 707.692382812 54.9453125 l 1053
EndSplineSet
Fore
SplineSet
460.111598721 620.519699417 m 1
 478.43305595 628.539936633 l 1
 486.453293167 610.218479404 l 1
 587.912109375 378.445613892 l 1
 689.370925583 610.218479404 l 1
 697.3911628 628.539936633 l 1
 715.712620029 620.519699417 l 1
 734.034077258 612.4994622 l 1
 726.013840042 594.178004971 l 1
 609.7444339 328.571777344 l 1
 726.013840042 62.9655497162 l 1
 734.034077258 44.6440924871 l 1
 715.712620029 36.6238552709 l 1
 697.3911628 28.6036180548 l 1
 689.370925583 46.9250752838 l 1
 587.912109375 278.697940795 l 1
 486.453293167 46.9250752838 l 1
 478.43305595 28.6036180548 l 1
 460.111598721 36.6238552709 l 1
 441.790141492 44.6440924871 l 1
 449.810378708 62.9655497162 l 1
 566.07978485 328.571777344 l 1
 449.810378708 594.178004971 l 1
 441.790141492 612.4994622 l 1
 460.111598721 620.519699417 l 1
EndSplineSet
EndChar

StartChar: py.cvc.1
Encoding: 33 -1 40
Width: 810
VWidth: 0
Flags: W
HStem: 232.747 40<184.835 666.154> 407.473 40<184.835 665.055> 582.198 40<184.835 666.154>
VStem: 144.835 40<272.747 407.473 447.473 582.198>
CounterMasks: 1 e0
AnchorPoint: "Above" 405 0 basechar 0
LayerCount: 2
Back
SplineSet
164.834960938 427.47265625 m 5
 645.0546875 427.47265625 l 1029
646.154296875 252.747070312 m 5
 164.834960938 252.747070312 l 5
 164.834960938 602.198242188 l 5
 646.154296875 602.198242188 l 1029
EndSplineSet
Fore
SplineSet
666.154296875 252.747070312 m 1
 666.154296875 232.747070312 l 1
 646.154296875 232.747070312 l 1
 164.834960938 232.747070312 l 2
 152.728930653 232.747070312 144.834960938 244.163146846 144.834960938 252.747070312 c 2
 144.834960938 407.47265625 l 1
 144.834960938 427.47265625 l 1
 144.834960938 447.47265625 l 1
 144.834960938 602.198242188 l 2
 144.834960938 614.304272472 156.251037471 622.198242188 164.834960938 622.198242188 c 2
 646.154296875 622.198242188 l 1
 666.154296875 622.198242188 l 1
 666.154296875 602.198242188 l 1
 666.154296875 582.198242188 l 1
 646.154296875 582.198242188 l 1
 184.834960938 582.198242188 l 1
 184.834960938 447.47265625 l 1
 645.0546875 447.47265625 l 1
 665.0546875 447.47265625 l 1
 665.0546875 427.47265625 l 1
 665.0546875 407.47265625 l 1
 645.0546875 407.47265625 l 1
 184.834960938 407.47265625 l 1
 184.834960938 272.747070312 l 1
 646.154296875 272.747070312 l 1
 666.154296875 272.747070312 l 1
 666.154296875 252.747070312 l 1
EndSplineSet
EndChar

StartChar: by.cvc.1
Encoding: 34 -1 41
Width: 810
VWidth: 0
Flags: W
HStem: 232.747 40<144.835 626.154> 407.473 40<145.934 626.154> 582.198 40<144.835 626.154>
VStem: 626.154 40<272.747 407.473 447.473 582.198>
CounterMasks: 1 e0
AnchorPoint: "Above" 405 0 basechar 0
LayerCount: 2
Back
SplineSet
646.154296875 427.47265625 m 5
 165.93359375 427.47265625 l 1029
164.834960938 602.198242188 m 5
 646.154296875 602.198242188 l 5
 646.154296875 252.747070312 l 5
 164.834960938 252.747070312 l 1029
EndSplineSet
Fore
SplineSet
144.834960938 602.198242188 m 1
 144.834960938 622.198242188 l 1
 164.834960938 622.198242188 l 1
 646.154296875 622.198242188 l 2
 658.260327159 622.198242188 666.154296875 610.782165654 666.154296875 602.198242188 c 2
 666.154296875 447.47265625 l 1
 666.154296875 427.47265625 l 1
 666.154296875 407.47265625 l 1
 666.154296875 252.747070312 l 2
 666.154296875 240.641040028 654.738220341 232.747070312 646.154296875 232.747070312 c 2
 164.834960938 232.747070312 l 1
 144.834960938 232.747070312 l 1
 144.834960938 252.747070312 l 1
 144.834960938 272.747070312 l 1
 164.834960938 272.747070312 l 1
 626.154296875 272.747070312 l 1
 626.154296875 407.47265625 l 1
 165.93359375 407.47265625 l 1
 145.93359375 407.47265625 l 1
 145.93359375 427.47265625 l 1
 145.93359375 447.47265625 l 1
 165.93359375 447.47265625 l 1
 626.154296875 447.47265625 l 1
 626.154296875 582.198242188 l 1
 164.834960938 582.198242188 l 1
 144.834960938 582.198242188 l 1
 144.834960938 602.198242188 l 1
EndSplineSet
EndChar

StartChar: fy.cvc.1
Encoding: 35 -1 42
Width: 810
VWidth: 0
Flags: W
HStem: 232.747 40<184.835 558.009> 407.473 40<184.835 578.095>
VStem: 144.835 40<272.747 407.473 447.473 622.198>
AnchorPoint: "Above" 405 0 basechar 0
LayerCount: 2
Back
SplineSet
583.516601562 427.47265625 m 29
 168.131835938 427.47265625 l 1053
164.834960938 602.198242188 m 29
 164.834960938 252.747070312 l 29
 574.725585938 252.747070312 l 21
 586.256835938 419.880859375 623.112304688 490.341796875 690.110351562 602.198242188 c 1037
EndSplineSet
Fore
SplineSet
164.834960938 622.198242188 m 1
 184.834960938 622.198242188 l 1
 184.834960938 602.198242188 l 1
 184.834960938 447.47265625 l 1
 583.516601562 447.47265625 l 1
 590.248529105 447.47265625 l 1
 610.146390112 505.054055384 637.649414175 553.53463267 672.95266021 612.475091289 c 2
 683.229509311 629.632782641 l 1
 700.387200664 619.35593354 l 1
 717.544892016 609.079084439 l 1
 707.268042915 591.921393086 l 2
 640.4877381 480.428478562 606.019143711 415.746629143 594.678153315 251.370460329 c 0
 594.054243673 242.327522007 585.759966621 232.747070312 574.725585938 232.747070312 c 2
 164.834960938 232.747070312 l 2
 156.251037471 232.747070312 144.834960938 240.641040028 144.834960938 252.747070312 c 2
 144.834960938 602.198242188 l 1
 144.834960938 622.198242188 l 1
 164.834960938 622.198242188 l 1
184.834960938 407.47265625 m 1
 184.834960938 272.747070312 l 1
 556.193240275 272.747070312 l 1
 560.684538261 325.706677314 567.970092256 369.115152673 578.094777759 407.47265625 c 1
 184.834960938 407.47265625 l 1
EndSplineSet
EndChar

StartChar: vy.cvc.1
Encoding: 36 -1 43
Width: 810
VWidth: 0
Flags: W
HStem: 407.473 40<232.894 626.154> 582.198 40<252.981 626.154>
VStem: 626.154 40<232.747 407.473 447.473 582.198>
AnchorPoint: "Above" 405 0 basechar 0
LayerCount: 2
Back
SplineSet
227.47265625 427.47265625 m 29
 642.857421875 427.47265625 l 1053
646.154296875 252.747070312 m 29
 646.154296875 602.198242188 l 29
 236.263671875 602.198242188 l 21
 224.731445312 435.063476562 187.876953125 364.603515625 120.87890625 252.747070312 c 1037
EndSplineSet
Fore
SplineSet
646.154296875 232.747070312 m 1
 626.154296875 232.747070312 l 1
 626.154296875 252.747070312 l 1
 626.154296875 407.47265625 l 1
 227.47265625 407.47265625 l 1
 220.740497163 407.47265625 l 1
 200.842754058 349.891221235 173.339966507 301.410884968 138.036597602 242.470221211 c 2
 127.759748501 225.312529859 l 1
 110.602057149 235.58937896 l 1
 93.4443657961 245.866228061 l 1
 103.721214898 263.023919414 l 2
 170.50149243 374.516788388 204.969149214 439.197658598 216.311111951 603.574960195 c 0
 216.935058077 612.617714343 225.229265004 622.198242188 236.263671875 622.198242188 c 2
 646.154296875 622.198242188 l 2
 654.738220341 622.198242188 666.154296875 614.304272472 666.154296875 602.198242188 c 2
 666.154296875 252.747070312 l 1
 666.154296875 232.747070312 l 1
 646.154296875 232.747070312 l 1
626.154296875 447.47265625 m 1
 626.154296875 582.198242188 l 1
 254.795924811 582.198242188 l 1
 250.30436296 529.238481797 243.018774037 485.830033849 232.894173416 447.47265625 c 1
 626.154296875 447.47265625 l 1
EndSplineSet
EndChar

StartChar: ky.cvc.1
Encoding: 37 -1 44
Width: 810
VWidth: 0
Flags: W
AnchorPoint: "Above" 405 0 basechar 0
LayerCount: 2
Back
SplineSet
648.3515625 604.395507812 m 5
 163.736328125 428.571289062 l 5
 648.3515625 250.549804688 l 1029
EndSplineSet
Fore
SplineSet
667.152403725 611.216678477 m 1
 673.973574389 592.415837252 l 1
 655.172733164 585.594666588 l 1
 222.055738361 428.454626744 l 1
 655.247896788 269.323205375 l 1
 674.021297476 262.426871088 l 1
 667.124963188 243.6534704 l 1
 660.2286289 224.880069712 l 1
 641.455228212 231.776404 l 1
 156.839993837 409.797888375 l 2
 152.236548672 411.488945699 147.755075737 415.397249595 145.528609814 420.296085505 c 0
 140.771889125 430.762176132 146.108130201 443.451211195 156.915157461 447.372130287 c 2
 641.530391836 623.196349037 l 1
 660.331233061 630.017519702 l 1
 667.152403725 611.216678477 l 1
EndSplineSet
EndChar

StartChar: cy.cvc.1
Encoding: 38 -1 45
Width: 810
VWidth: 0
Flags: W
HStem: 407.473 40<144.835 356.806 449.089 665.055> 583.066 38.2637<595.232 659.971>
VStem: 384.065 39.9944<233.083 338.346 338.35 406.292>
AnchorPoint: "Above" 405 0 basechar 0
LayerCount: 2
Back
SplineSet
164.834960938 427.47265625 m 5
 645.0546875 427.47265625 l 1029
405.494140625 318.681640625 m 5
 404.395507812 252.747070312 l 1029
164.834960938 602.198242188 m 5
 244.563476562 567.927734375 401.287109375 537.189453125 405.494140625 318.681640625 c 5
 401.715820312 528.708984375 545.942382812 571.66796875 646.154296875 602.198242188 c 1029
EndSplineSet
Fore
SplineSet
146.460510682 610.096316498 m 1
 154.358584992 628.470766753 l 1
 172.733035248 620.572692443 l 2
 231.020416496 595.518442545 348.713479402 568.454488039 400.56819839 447.47265625 c 1
 405.890529958 447.47265625 l 1
 452.050099952 565.738550611 564.408517361 598.201375827 640.325649025 621.330070752 c 2
 659.45747759 627.158718603 l 1
 665.28612544 608.026890038 l 1
 671.11477329 588.895061473 l 1
 651.982944725 583.066413623 l 2
 578.794611079 560.76906645 490.532783402 535.117586332 449.08932686 447.47265625 c 1
 645.0546875 447.47265625 l 1
 665.0546875 447.47265625 l 1
 665.0546875 427.47265625 l 1
 665.0546875 407.47265625 l 1
 645.0546875 407.47265625 l 1
 434.764292211 407.47265625 l 1
 429.517785796 387.151610347 426.310587999 364.248820748 425.580247743 338.34973265 c 1
 425.661687821 338.34973265 425.743127898 338.345661672 425.824567976 338.345661672 c 2
 425.491364824 318.348437473 l 1
 424.392732011 252.41386716 l 1
 424.059528859 232.416642961 l 1
 404.06230466 232.749846114 l 1
 384.065080461 233.083049266 l 1
 384.398283614 253.080273465 l 1
 385.490867627 318.651824451 l 2
 384.801484594 353.044264135 380.257594875 382.347766692 372.775990861 407.47265625 c 1
 164.834960938 407.47265625 l 1
 144.834960938 407.47265625 l 1
 144.834960938 427.47265625 l 1
 144.834960938 447.47265625 l 1
 164.834960938 447.47265625 l 1
 356.806196684 447.47265625 l 1
 310.516023378 537.145130598 218.485772251 557.367616885 156.936886627 583.823791932 c 2
 138.562436372 591.721866242 l 1
 146.460510682 610.096316498 l 1
EndSplineSet
EndChar

StartChar: xy.cvc.1
Encoding: 39 -1 46
Width: 810
VWidth: 0
Flags: W
HStem: 582.924 38.5488<583.631 660.727>
VStem: 385.494 40<232.747 459.001>
AnchorPoint: "Above" 405 0 basechar 0
LayerCount: 2
Back
SplineSet
405.494140625 362.637695312 m 5
 405.494140625 252.747070312 l 1029
164.834960938 602.198242188 m 5
 249.120117188 571.029296875 401.045898438 561.372070312 405.494140625 362.637695312 c 5
 401.715820312 553.571289062 545.942382812 574.443359375 646.154296875 602.198242188 c 1029
EndSplineSet
Fore
SplineSet
146.076524724 609.13517745 m 1
 153.013459987 627.893613663 l 1
 171.7718962 620.956678401 l 2
 233.044664325 598.297794633 353.287888 585.437519966 403.589656719 472.584539534 c 1
 448.871981222 582.471218938 565.761158939 600.685312649 640.8160201 621.472650118 c 2
 660.090428031 626.810926893 l 1
 665.428704806 607.536518962 l 1
 670.76698158 588.262111032 l 1
 651.49257365 582.923834257 l 2
 550.295216469 554.896021239 428.917151471 538.933105788 425.494140625 377.132387403 c 2
 425.494140625 362.637695312 l 1
 425.494140625 252.747070312 l 1
 425.494140625 232.747070312 l 1
 405.494140625 232.747070312 l 1
 385.494140625 232.747070312 l 1
 385.494140625 252.747070312 l 1
 385.494140625 362.411034441 l 1
 381.286500944 545.648817422 248.851600931 549.804856011 157.898025675 583.439805974 c 2
 139.139589462 590.376741237 l 1
 146.076524724 609.13517745 l 1
EndSplineSet
EndChar

StartChar: iy.cvc.1
Encoding: 40 -1 47
Width: 810
VWidth: 0
Flags: W
HStem: 232.747 40<184.835 666.154>
VStem: 144.835 40<272.747 622.198>
AnchorPoint: "Above" 405 0 basechar 0
LayerCount: 2
Back
SplineSet
646.154296875 252.747070312 m 5
 164.834960938 252.747070312 l 5
 164.834960938 602.198242188 l 1029
EndSplineSet
Fore
SplineSet
666.154296875 252.747070312 m 1
 666.154296875 232.747070312 l 1
 646.154296875 232.747070312 l 1
 164.834960938 232.747070312 l 2
 152.728930653 232.747070312 144.834960938 244.163146846 144.834960938 252.747070312 c 2
 144.834960938 602.198242188 l 1
 144.834960938 622.198242188 l 1
 164.834960938 622.198242188 l 1
 184.834960938 622.198242188 l 1
 184.834960938 602.198242188 l 1
 184.834960938 272.747070312 l 1
 646.154296875 272.747070312 l 1
 666.154296875 272.747070312 l 1
 666.154296875 252.747070312 l 1
EndSplineSet
EndChar

StartChar: ry.cvc.1
Encoding: 41 -1 48
Width: 810
VWidth: 0
Flags: W
AnchorPoint: "Above" 405 0 basechar 0
LayerCount: 2
Back
SplineSet
164.834960938 252.747070312 m 5
 646.154296875 602.198242188 l 1029
164.834960938 602.198242188 m 5
 646.154296875 252.747070312 l 1029
EndSplineSet
Fore
SplineSet
148.650659828 613.948493146 m 1
 160.400910787 630.132794256 l 1
 176.585211896 618.382543297 l 1
 405.494628906 452.187965073 l 1
 634.404045916 618.382543297 l 1
 650.588347025 630.132794256 l 1
 662.338597984 613.948493146 l 1
 674.088848943 597.764192037 l 1
 657.904547834 586.013941078 l 1
 439.536455025 427.47265625 l 1
 657.904547633 268.931371568 l 2
 657.904547834 269.931371422 657.904547834 268.931371422 657.904547834 268.931371422 c 1
 674.088848943 257.181120463 l 1
 662.338597984 240.996819354 l 1
 650.588347025 224.812518244 l 1
 634.404045916 236.562769203 l 1
 405.494628906 402.757347427 l 1
 176.585211896 236.562769203 l 1
 160.400910787 224.812518244 l 1
 148.650659828 240.996819354 l 1
 136.900408869 257.181120463 l 1
 153.084709979 268.931371422 l 1
 152.275494923 268.343858874 153.084709979 269.931371422 153.084709979 268.931371422 c 1
 371.452802787 427.47265625 l 1
 153.084709979 586.013941078 l 1
 136.900408869 597.764192037 l 1
 148.650659828 613.948493146 l 1
EndSplineSet
EndChar

StartChar: ny.cvc.1
Encoding: 48 -1 49
Width: 810
VWidth: 0
Flags: W
HStem: 232.747 40<184.835 626.154> 582.198 40<184.835 626.154>
VStem: 144.835 40<272.747 582.198> 626.154 40<272.747 582.198>
AnchorPoint: "Above" 405 0 basechar 0
LayerCount: 2
Back
SplineSet
164.834960938 602.198242188 m 5
 646.154296875 602.198242188 l 5
 646.154296875 252.747070312 l 5
 164.834960938 252.747070312 l 5
 164.834960938 602.198242188 l 5
EndSplineSet
Fore
SplineSet
164.834960938 622.198242188 m 2
 646.154296875 622.198242188 l 2
 658.260327159 622.198242188 666.154296875 610.782165654 666.154296875 602.198242188 c 2
 666.154296875 252.747070312 l 2
 666.154296875 240.641040028 654.738220341 232.747070312 646.154296875 232.747070312 c 2
 164.834960938 232.747070312 l 2
 152.728930653 232.747070312 144.834960938 244.163146846 144.834960938 252.747070312 c 2
 144.834960938 602.198242188 l 2
 144.834960938 614.304272472 156.251037471 622.198242188 164.834960938 622.198242188 c 2
184.834960938 582.198242188 m 1
 184.834960938 272.747070312 l 1
 626.154296875 272.747070312 l 1
 626.154296875 582.198242188 l 1
 184.834960938 582.198242188 l 1
EndSplineSet
EndChar

StartChar: ty.cvc.1
Encoding: 49 -1 50
Width: 810
VWidth: 0
Flags: W
HStem: 230.55 40<184.835 668.352> 585.494 40<184.835 668.352>
VStem: 144.835 40<270.55 585.494>
AnchorPoint: "Above" 405 0 basechar 0
LayerCount: 2
Back
SplineSet
648.3515625 250.549804688 m 5
 164.834960938 250.549804688 l 5
 164.834960938 605.494140625 l 5
 648.3515625 605.494140625 l 1029
EndSplineSet
Fore
SplineSet
668.3515625 250.549804688 m 1
 668.3515625 230.549804688 l 1
 648.3515625 230.549804688 l 1
 164.834960938 230.549804688 l 2
 152.728930653 230.549804688 144.834960938 241.965881221 144.834960938 250.549804688 c 2
 144.834960938 605.494140625 l 2
 144.834960938 617.600170909 156.251037471 625.494140625 164.834960938 625.494140625 c 2
 648.3515625 625.494140625 l 1
 668.3515625 625.494140625 l 1
 668.3515625 605.494140625 l 1
 668.3515625 585.494140625 l 1
 648.3515625 585.494140625 l 1
 184.834960938 585.494140625 l 1
 184.834960938 270.549804688 l 1
 648.3515625 270.549804688 l 1
 668.3515625 270.549804688 l 1
 668.3515625 250.549804688 l 1
EndSplineSet
EndChar

StartChar: dy.cvc.1
Encoding: 50 -1 51
Width: 810
VWidth: 0
Flags: W
HStem: 230.459 39.9996<144.926 626.154> 582.198 40<144.835 626.154>
VStem: 626.154 40<272.656 582.198>
AnchorPoint: "Above" 405 0 basechar 0
LayerCount: 2
Back
SplineSet
164.834960938 602.198242188 m 5
 646.154296875 602.198242188 l 5
 646.154296875 252.747070312 l 5
 164.834960938 250.549804688 l 1029
EndSplineSet
Fore
SplineSet
144.834960938 602.198242188 m 1
 144.834960938 622.198242188 l 1
 164.834960938 622.198242188 l 1
 646.154296875 622.198242188 l 2
 658.260327159 622.198242188 666.154296875 610.782165654 666.154296875 602.198242188 c 2
 666.154296875 252.747070312 l 2
 666.154296875 241.352106638 656.097350591 232.792252839 646.245597704 232.74727871 c 2
 164.926261767 230.550013085 l 1
 144.926470164 230.458712255 l 1
 144.835169335 250.458503858 l 1
 144.743868505 270.458295461 l 1
 164.743660108 270.54959629 l 1
 626.154296875 272.655976931 l 1
 626.154296875 582.198242188 l 1
 164.834960938 582.198242188 l 1
 144.834960938 582.198242188 l 1
 144.834960938 602.198242188 l 1
EndSplineSet
EndChar

StartChar: sy.cvc.1
Encoding: 51 -1 52
Width: 810
VWidth: 0
Flags: W
HStem: 232.747 40<184.835 557.528>
VStem: 144.835 40<272.747 622.198>
AnchorPoint: "Above" 405 0 basechar 0
LayerCount: 2
Back
SplineSet
164.834960938 602.198242188 m 5
 164.834960938 252.747070312 l 5
 574.725585938 252.747070312 l 5
 586.256835938 419.880859375 623.112304688 490.341796875 690.110351562 602.198242188 c 1029
EndSplineSet
Fore
SplineSet
164.834960938 622.198242188 m 1
 184.834960938 622.198242188 l 1
 184.834960938 602.198242188 l 1
 184.834960938 272.747070312 l 1
 556.193240275 272.747070312 l 1
 569.645084578 431.365890529 608.162991309 504.305638682 672.95266021 612.475091289 c 2
 683.229509311 629.632782641 l 1
 700.387200664 619.35593354 l 1
 717.544892016 609.079084439 l 1
 707.268042915 591.921393086 l 2
 640.4877381 480.428478562 606.019143711 415.746629143 594.678153315 251.370460329 c 0
 594.054243673 242.327522007 585.759966621 232.747070312 574.725585938 232.747070312 c 2
 164.834960938 232.747070312 l 2
 156.251037471 232.747070312 144.834960938 240.641040028 144.834960938 252.747070312 c 2
 144.834960938 602.198242188 l 1
 144.834960938 622.198242188 l 1
 164.834960938 622.198242188 l 1
EndSplineSet
EndChar

StartChar: zy.cvc.1
Encoding: 52 -1 53
Width: 810
VWidth: 0
Flags: W
HStem: 582.198 40<253.461 626.154>
VStem: 626.154 40<232.747 582.198>
AnchorPoint: "Above" 405 0 basechar 0
LayerCount: 2
Back
SplineSet
646.154296875 252.747070312 m 29
 646.154296875 602.198242188 l 29
 236.263671875 602.198242188 l 21
 224.731445312 435.063476562 187.876953125 364.603515625 120.87890625 252.747070312 c 1037
EndSplineSet
Fore
SplineSet
646.154296875 232.747070312 m 1
 626.154296875 232.747070312 l 1
 626.154296875 252.747070312 l 1
 626.154296875 582.198242188 l 1
 254.795924811 582.198242188 l 1
 241.343237226 423.57833787 202.826343495 350.63980236 138.036597602 242.470221211 c 2
 127.759748501 225.312529859 l 1
 110.602057149 235.58937896 l 1
 93.4443657961 245.866228061 l 1
 103.721214898 263.023919414 l 2
 170.50149243 374.516788388 204.969149214 439.197658598 216.311111951 603.574960195 c 0
 216.935058077 612.617714343 225.229265004 622.198242188 236.263671875 622.198242188 c 2
 646.154296875 622.198242188 l 2
 654.738220341 622.198242188 666.154296875 614.304272472 666.154296875 602.198242188 c 2
 666.154296875 252.747070312 l 1
 666.154296875 232.747070312 l 1
 646.154296875 232.747070312 l 1
EndSplineSet
EndChar

StartChar: gy.cvc.1
Encoding: 53 -1 54
Width: 810
VWidth: 0
Flags: W
AnchorPoint: "Above" 405 0 basechar 0
LayerCount: 2
Back
SplineSet
164.834960938 602.198242188 m 5
 645.0546875 427.47265625 l 5
 164.834960938 252.747070312 l 1029
EndSplineSet
Fore
SplineSet
146.04035266 609.036567983 m 1
 152.878678456 627.831176261 l 1
 171.673286733 620.992850465 l 1
 651.893013296 446.267264528 l 2
 662.696457756 442.336484389 668.021116378 429.642584664 663.254846135 419.180839461 c 0
 660.899234814 414.010380342 654.907634006 409.774902893 651.893013296 408.678047972 c 2
 171.673286733 233.952462035 l 1
 152.878678456 227.114136239 l 1
 146.04035266 245.908744517 l 1
 139.202026864 264.703352794 l 1
 157.996635142 271.54167859 l 1
 158.936365556 271.88359488 157.996635142 272.54167859 157.996635142 271.54167859 c 1
 586.56083799 427.47265625 l 1
 157.996635142 583.40363391 l 1
 139.202026864 590.241959706 l 1
 146.04035266 609.036567983 l 1
EndSplineSet
EndChar

StartChar: jy.cvc.1
Encoding: 54 -1 55
Width: 810
VWidth: 0
Flags: W
HStem: 227.787 38.2637<151.175 200.64> 407.473 40<145.934 361.9 454.182 666.154>
VStem: 385.163 40.334<448.653 516.596 516.6 621.862>
AnchorPoint: "Above" 405 0 basechar 0
LayerCount: 2
Back
SplineSet
646.154296875 427.47265625 m 5
 165.93359375 427.47265625 l 1029
405.494140625 536.263671875 m 5
 406.59375 602.198242188 l 1029
646.154296875 252.747070312 m 5
 566.42578125 287.016601562 409.702148438 317.754882812 405.494140625 536.263671875 c 5
 409.2734375 326.236328125 265.046875 283.27734375 164.834960938 252.747070312 c 1029
EndSplineSet
Fore
SplineSet
664.528828784 244.849185967 m 1
 656.630944438 226.474654058 l 1
 638.256412529 234.372538404 l 2
 579.968751318 259.426194699 462.275688196 286.489705748 410.420392486 407.47265625 c 1
 405.098296621 407.47265625 l 1
 358.939462658 289.207115286 246.580700992 256.743924652 170.663608788 233.615241748 c 2
 151.531780223 227.786593897 l 1
 145.703132373 246.918422462 l 1
 139.874484522 266.050251027 l 1
 159.006313087 271.878898877 l 1
 159.962904516 272.17033127 159.006313087 272.878898877 159.006313087 271.878898877 c 1
 232.194670034 294.176253148 320.456479678 319.827719304 361.899555379 407.47265625 c 1
 165.93359375 407.47265625 l 1
 145.93359375 407.47265625 l 1
 145.93359375 427.47265625 l 1
 145.93359375 447.47265625 l 1
 165.93359375 447.47265625 l 1
 376.224409629 447.47265625 l 1
 381.470841802 467.79377788 384.677935636 490.696662835 385.408135185 516.595870714 c 1
 385.32656416 516.595870714 385.244993136 516.599951862 385.163422112 516.599951862 c 2
 385.496921362 536.597171125 l 1
 386.596530737 602.531741438 l 1
 386.930029987 622.528960701 l 1
 406.92724925 622.19546145 l 1
 426.924468513 621.8619622 l 1
 426.590969263 601.864742937 l 1
 425.497417297 536.293385835 l 2
 426.18696397 501.901015586 430.730942639 472.59754069 438.212581026 447.47265625 c 1
 646.154296875 447.47265625 l 1
 666.154296875 447.47265625 l 1
 666.154296875 427.47265625 l 1
 666.154296875 407.47265625 l 1
 646.154296875 407.47265625 l 1
 454.182378178 407.47265625 l 1
 500.472841571 317.799352513 592.503345592 297.577001891 654.052181221 271.121602221 c 1
 654.052181221 272.121602221 654.970907816 270.726708004 654.052181221 271.121602221 c 1
 672.426713129 263.223717876 l 1
 664.528828784 244.849185967 l 1
EndSplineSet
EndChar

StartChar: yhy.cvc.1
Encoding: 55 -1 56
Width: 810
VWidth: 0
Flags: W
VStem: 111.868 40<115.907 822.198> 661.318 40<34.9453 741.237>
AnchorPoint: "Above" 405 0 basechar 0
LayerCount: 2
Back
SplineSet
681.318359375 54.9453125 m 1
 681.318359375 802.198242188 l 1
 131.868164062 54.9453125 l 1
 131.868164062 802.198242188 l 1025
EndSplineSet
Fore
SplineSet
681.318359375 34.9453125 m 1
 661.318359375 34.9453125 l 1
 661.318359375 54.9453125 l 1
 661.318359375 741.236681988 l 1
 147.98118934 43.0975103244 l 2
 141.170881251 33.8354830925 127.491861866 32.2955128585 118.792701832 39.8114997799 c 0
 114.40179724 43.6051972576 111.868164062 49.3477721398 111.868164062 54.9453125 c 2
 111.868164062 802.198242188 l 1
 111.868164062 822.198242188 l 1
 131.868164062 822.198242188 l 1
 151.868164062 822.198242188 l 1
 151.868164062 802.198242188 l 1
 151.868164062 115.9068727 l 1
 665.205334097 814.046044363 l 2
 668.605910371 818.670832206 673.995557133 821.683780796 679.749217666 822.136592026 c 0
 691.210103253 823.03856003 701.318359375 813.694565283 701.318359375 802.198242188 c 2
 701.318359375 54.9453125 l 1
 701.318359375 34.9453125 l 1
 681.318359375 34.9453125 l 1
EndSplineSet
EndChar

StartChar: uy.cvc.1
Encoding: 56 -1 57
Width: 810
VWidth: 0
Flags: W
HStem: 232.747 40<144.835 626.154>
VStem: 626.154 40<272.747 622.198>
AnchorPoint: "Above" 405 0 basechar 0
LayerCount: 2
Back
SplineSet
646.154296875 602.198242188 m 29
 646.154296875 252.747070312 l 29
 164.834960938 252.747070312 l 1053
EndSplineSet
Fore
SplineSet
646.154296875 622.198242188 m 1
 666.154296875 622.198242188 l 1
 666.154296875 602.198242188 l 1
 666.154296875 252.747070312 l 2
 666.154296875 240.641040028 654.738220341 232.747070312 646.154296875 232.747070312 c 2
 164.834960938 232.747070312 l 1
 144.834960938 232.747070312 l 1
 144.834960938 252.747070312 l 1
 144.834960938 272.747070312 l 1
 164.834960938 272.747070312 l 1
 626.154296875 272.747070312 l 1
 626.154296875 602.198242188 l 1
 626.154296875 622.198242188 l 1
 646.154296875 622.198242188 l 1
EndSplineSet
EndChar

StartChar: ly.cvc.1
Encoding: 57 -1 58
Width: 810
VWidth: 0
Flags: W
HStem: 232.747 40<144.835 626.028> 407.473 40<184.835 625.18> 582.198 40<184.835 666.154>
VStem: 144.835 40<447.473 582.198> 626.028 40.1259<272.747 407.473>
CounterMasks: 1 e0
AnchorPoint: "Above" 405 0 basechar 0
LayerCount: 2
Back
SplineSet
646.154296875 602.198242188 m 29
 164.834960938 602.198242188 l 29
 164.834960938 427.47265625 l 29
 645.0546875 427.47265625 l 29
 646.154296875 252.747070312 l 29
 164.834960938 252.747070312 l 1053
EndSplineSet
Fore
SplineSet
666.154296875 602.198242188 m 1
 666.154296875 582.198242188 l 1
 646.154296875 582.198242188 l 1
 184.834960938 582.198242188 l 1
 184.834960938 447.47265625 l 1
 645.0546875 447.47265625 l 2
 656.462091986 447.47265625 664.992689661 437.386913641 665.054291449 427.59852077 c 2
 666.153900824 252.872934832 l 2
 666.229827611 240.808330244 654.9710997 232.747070312 646.154296875 232.747070312 c 2
 164.834960938 232.747070312 l 1
 144.834960938 232.747070312 l 1
 144.834960938 252.747070312 l 1
 144.834960938 272.747070312 l 1
 164.834960938 272.747070312 l 1
 626.028033804 272.747070312 l 1
 625.180158454 407.47265625 l 1
 164.834960938 407.47265625 l 2
 156.251037471 407.47265625 144.834960938 415.366625966 144.834960938 427.47265625 c 2
 144.834960938 602.198242188 l 2
 144.834960938 610.782165654 152.728930653 622.198242188 164.834960938 622.198242188 c 2
 646.154296875 622.198242188 l 1
 666.154296875 622.198242188 l 1
 666.154296875 602.198242188 l 1
EndSplineSet
EndChar

StartChar: py.ccv.1
Encoding: 97 -1 59
Width: 810
VWidth: 0
Flags: W
HStem: 34.9453 40<124.396 365.055> 308.571 40<124.396 365.055> 582.198 40<124.396 365.055>
VStem: 84.3955 40<74.9453 308.571 348.571 582.198>
CounterMasks: 1 e0
AnchorPoint: "Above" 405 0 basechar 0
LayerCount: 2
Back
SplineSet
345.0546875 328.571289062 m 29
 104.395507812 328.571289062 l 1053
345.0546875 602.198242188 m 29
 104.395507812 602.198242188 l 29
 104.395507812 54.9453125 l 29
 345.0546875 54.9453125 l 1053
EndSplineSet
Fore
SplineSet
365.0546875 602.198242188 m 1
 365.0546875 582.198242188 l 1
 345.0546875 582.198242188 l 1
 124.395507812 582.198242188 l 1
 124.395507812 348.571289062 l 1
 345.0546875 348.571289062 l 1
 365.0546875 348.571289062 l 1
 365.0546875 328.571289062 l 1
 365.0546875 308.571289062 l 1
 345.0546875 308.571289062 l 1
 124.395507812 308.571289062 l 1
 124.395507812 74.9453125 l 1
 345.0546875 74.9453125 l 1
 365.0546875 74.9453125 l 1
 365.0546875 54.9453125 l 1
 365.0546875 34.9453125 l 1
 345.0546875 34.9453125 l 1
 104.395507812 34.9453125 l 2
 95.8115843464 34.9453125 84.3955078125 42.8392822156 84.3955078125 54.9453125 c 2
 84.3955078125 308.571289062 l 1
 84.3955078125 328.571289062 l 1
 84.3955078125 348.571289062 l 1
 84.3955078125 602.198242188 l 2
 84.3955078125 610.782165654 92.2894775281 622.198242188 104.395507812 622.198242188 c 2
 345.0546875 622.198242188 l 1
 365.0546875 622.198242188 l 1
 365.0546875 602.198242188 l 1
EndSplineSet
EndChar

StartChar: by.ccv.1
Encoding: 98 -1 60
Width: 810
VWidth: 0
Flags: W
HStem: 34.9453 40<84.3955 325.055> 308.571 40<84.3955 325.055> 582.198 40<84.3955 325.055>
VStem: 325.055 40<74.9453 308.571 348.571 582.198>
CounterMasks: 1 e0
AnchorPoint: "Above" 405 0 basechar 0
LayerCount: 2
Back
SplineSet
104.395507812 328.571289062 m 29
 345.0546875 328.571289062 l 1053
104.395507812 54.9453125 m 29
 345.0546875 54.9453125 l 29
 345.0546875 602.198242188 l 29
 104.395507812 602.198242188 l 1053
EndSplineSet
Fore
SplineSet
84.3955078125 54.9453125 m 1
 84.3955078125 74.9453125 l 1
 104.395507812 74.9453125 l 1
 325.0546875 74.9453125 l 1
 325.0546875 308.571289062 l 1
 104.395507812 308.571289062 l 1
 84.3955078125 308.571289062 l 1
 84.3955078125 328.571289062 l 1
 84.3955078125 348.571289062 l 1
 104.395507812 348.571289062 l 1
 325.0546875 348.571289062 l 1
 325.0546875 582.198242188 l 1
 104.395507812 582.198242188 l 1
 84.3955078125 582.198242188 l 1
 84.3955078125 602.198242188 l 1
 84.3955078125 622.198242188 l 1
 104.395507812 622.198242188 l 1
 345.0546875 622.198242188 l 2
 353.638610966 622.198242188 365.0546875 614.304272472 365.0546875 602.198242188 c 2
 365.0546875 348.571289062 l 1
 365.0546875 328.571289062 l 1
 365.0546875 308.571289062 l 1
 365.0546875 54.9453125 l 2
 365.0546875 46.3613890339 357.160717784 34.9453125 345.0546875 34.9453125 c 2
 104.395507812 34.9453125 l 1
 84.3955078125 34.9453125 l 1
 84.3955078125 54.9453125 l 1
EndSplineSet
EndChar

StartChar: fy.ccv.1
Encoding: 99 -1 61
Width: 810
VWidth: 0
Flags: W
HStem: 34.9453 40<124.396 223.651> 321.758 40<124.396 253.717>
VStem: 84.3955 40<74.9453 321.758 361.758 622.198>
AnchorPoint: "Above" 405 0 basechar 0
LayerCount: 2
Back
SplineSet
117.58203125 341.7578125 m 29
 256.043945312 341.7578125 l 1053
104.395507812 602.198242188 m 29
 104.395507812 54.9453125 l 29
 240.659179688 54.9453125 l 21
 253.796875 240.443359375 283.966796875 423.26171875 352.747070312 600 c 1037
EndSplineSet
Fore
SplineSet
104.395507812 622.198242188 m 1
 124.395507812 622.198242188 l 1
 124.395507812 602.198242188 l 1
 124.395507812 361.7578125 l 1
 256.043945312 361.7578125 l 1
 261.698547305 361.7578125 l 1
 279.175024316 444.475783214 302.622355051 526.345817961 334.108712988 607.253387914 c 2
 341.362100902 625.891745239 l 1
 360.000458227 618.638357325 l 1
 378.638815552 611.38496941 l 1
 371.385427637 592.746612086 l 2
 303.586737849 418.530615184 273.661493371 237.824481677 260.609207356 53.5323737149 c 0
 259.973133413 44.5513103386 251.702283074 34.9453125 240.659179688 34.9453125 c 2
 104.395507812 34.9453125 l 2
 95.8115843464 34.9453125 84.3955078125 42.8392822156 84.3955078125 54.9453125 c 2
 84.3955078125 602.198242188 l 1
 84.3955078125 622.198242188 l 1
 104.395507812 622.198242188 l 1
124.395507812 321.7578125 m 1
 124.395507812 74.9453125 l 1
 222.083647227 74.9453125 l 1
 228.495626511 157.943969988 238.386781831 240.250971876 253.716519797 321.7578125 c 1
 124.395507812 321.7578125 l 1
EndSplineSet
EndChar

StartChar: vy.ccv.1
Encoding: 100 -1 62
Width: 810
VWidth: 0
Flags: W
HStem: 295.385 40<195.734 325.055> 582.198 40<225.799 325.055>
VStem: 325.055 40<34.9453 295.385 335.385 582.198>
AnchorPoint: "Above" 405 0 basechar 0
LayerCount: 2
Back
SplineSet
331.868164062 315.384765625 m 5
 193.40625 315.384765625 l 1029
345.0546875 54.9453125 m 5
 345.0546875 602.198242188 l 5
 208.791015625 602.198242188 l 5
 195.653320312 416.69921875 165.483398438 233.881835938 96.703125 57.142578125 c 1029
EndSplineSet
Fore
SplineSet
345.0546875 34.9453125 m 1
 325.0546875 34.9453125 l 1
 325.0546875 54.9453125 l 1
 325.0546875 295.384765625 l 1
 193.40625 295.384765625 l 1
 187.75154961 295.384765625 l 1
 170.275085958 212.666965303 146.827789729 130.797077367 115.34149587 49.8892250174 c 1
 115.34149587 48.8892250174 115.704163526 50.8211435609 115.34149587 49.8892250174 c 1
 108.088142763 31.2508541472 l 1
 89.4497718924 38.5042072548 l 1
 70.8114010222 45.7575603623 l 1
 78.0647541298 64.3959312326 l 2
 145.86346948 238.612956445 175.788701233 419.318092789 188.840987432 603.611173571 c 0
 189.477058919 612.592249541 197.747913999 622.198242188 208.791015625 622.198242188 c 2
 345.0546875 622.198242188 l 2
 353.638610966 622.198242188 365.0546875 614.304272472 365.0546875 602.198242188 c 2
 365.0546875 54.9453125 l 1
 365.0546875 34.9453125 l 1
 345.0546875 34.9453125 l 1
325.0546875 335.384765625 m 1
 325.0546875 582.198242188 l 1
 227.36655511 582.198242188 l 1
 220.954556735 499.198957442 211.063374748 416.891757712 195.733587775 335.384765625 c 1
 325.0546875 335.384765625 l 1
EndSplineSet
EndChar

StartChar: ky.ccv.1
Encoding: 101 -1 63
Width: 810
VWidth: 0
Flags: W
AnchorPoint: "Above" 405 0 basechar 0
LayerCount: 2
Back
SplineSet
343.956054688 596.703125 m 29
 102.198242188 339.560546875 l 29
 340.659179688 52.7470703125 l 1053
EndSplineSet
Fore
SplineSet
357.655572159 611.274440008 m 1
 372.226887166 597.574922537 l 1
 358.527369695 583.003607529 l 1
 128.884399225 338.746824824 l 1
 356.038106897 65.5333362997 l 1
 368.824372884 50.1544090905 l 1
 353.445445675 37.3681431033 l 1
 338.066518466 24.5818771161 l 1
 325.280252478 39.9608043253 l 1
 86.8193149783 326.774280888 l 2
 81.2040586007 333.528138439 80.4020089349 345.57537327 87.6269271796 353.260064346 c 2
 329.38473968 610.402642471 l 1
 343.084257151 624.973957479 l 1
 357.655572159 611.274440008 l 1
EndSplineSet
EndChar

StartChar: cy.ccv.1
Encoding: 102 -1 64
Width: 810
VWidth: 0
Flags: W
HStem: 308.571 40<84.3955 200.761 246.972 365.055>
VStem: 204.176 40<34.9453 308.571>
AnchorPoint: "Above" 405 0 basechar 0
LayerCount: 2
Back
SplineSet
104.395507812 328.571289062 m 29
 345.0546875 328.571289062 l 1053
345.0546875 602.198242188 m 21
 276.921875 535.53125 236.627929688 443.956054688 224.17578125 327.47265625 c 1037
104.395507812 602.198242188 m 21
 180.297851562 536.618164062 208.405273438 439.794921875 224.17578125 327.47265625 c 13
 224.17578125 54.9453125 l 1053
EndSplineSet
Fore
SplineSet
89.2618149617 615.273843156 m 1
 102.337415931 630.407536007 l 1
 117.471108781 617.331935038 l 2
 173.786979301 568.674686713 204.971973286 504.729097666 224.135637349 432.58164133 c 1
 245.44647464 505.876207542 280.980926419 567.484643594 331.067161172 616.493315017 c 2
 345.362234002 630.480841346 l 1
 359.34976033 616.185768516 l 1
 373.337286658 601.890695686 l 1
 359.042213828 587.903169358 l 2
 299.275587169 529.42237154 261.655157862 450.374614923 246.97177251 348.571289062 c 1
 345.0546875 348.571289062 l 1
 365.0546875 348.571289062 l 1
 365.0546875 328.571289062 l 1
 365.0546875 308.571289062 l 1
 345.0546875 308.571289062 l 1
 244.17578125 308.571289062 l 1
 244.17578125 54.9453125 l 1
 244.17578125 34.9453125 l 1
 224.17578125 34.9453125 l 1
 204.17578125 34.9453125 l 1
 204.17578125 54.9453125 l 1
 204.17578125 308.571289062 l 1
 104.395507812 308.571289062 l 1
 84.3955078125 308.571289062 l 1
 84.3955078125 328.571289062 l 1
 84.3955078125 348.571289062 l 1
 104.395507812 348.571289062 l 1
 200.760882166 348.571289062 l 1
 184.548408853 448.514054183 156.267351058 530.94956981 91.3199068436 587.064549337 c 2
 76.1862139928 600.140150306 l 1
 89.2618149617 615.273843156 l 1
EndSplineSet
EndChar

StartChar: xy.ccv.1
Encoding: 103 -1 65
Width: 810
VWidth: 0
Flags: W
VStem: 204.176 40<34.9453 309.497>
AnchorPoint: "Above" 405 0 basechar 0
LayerCount: 2
Back
SplineSet
345.0546875 602.198242188 m 21
 276.921875 535.53125 236.627929688 443.956054688 224.17578125 327.47265625 c 1037
104.395507812 602.198242188 m 21
 180.297851562 536.618164062 208.405273438 439.794921875 224.17578125 327.47265625 c 13
 224.17578125 54.9453125 l 1053
EndSplineSet
Fore
SplineSet
89.2618149617 615.273843156 m 1
 102.337415931 630.407536007 l 1
 117.471108781 617.331935038 l 2
 173.786979301 568.674686713 204.971973286 504.729097666 224.135637349 432.58164133 c 1
 245.44647464 505.876207542 280.980926419 567.484643594 331.067161172 616.493315017 c 2
 345.362234002 630.480841346 l 1
 359.34976033 616.185768516 l 1
 373.337286658 601.890695686 l 1
 359.042213828 587.903169358 l 2
 295.004940255 525.243604012 256.391869481 438.972827989 244.17578125 326.398744094 c 1
 244.17578125 54.9453125 l 1
 244.17578125 34.9453125 l 1
 224.17578125 34.9453125 l 1
 204.17578125 34.9453125 l 1
 204.17578125 54.9453125 l 1
 204.17578125 309.496715997 l 1
 202.163188533 309.711863423 l 1
 204.025105665 327.129133722 l 1
 188.361544375 436.734409365 160.855937897 526.985003387 91.3199068436 587.064549337 c 2
 76.1862139928 600.140150306 l 1
 89.2618149617 615.273843156 l 1
EndSplineSet
EndChar

StartChar: iy.ccv.1
Encoding: 104 -1 66
Width: 810
VWidth: 0
Flags: W
HStem: 34.9453 40<124.396 365.055>
VStem: 84.3955 40<74.9453 622.198>
AnchorPoint: "Above" 405 0 basechar 0
LayerCount: 2
Back
SplineSet
104.395507812 602.198242188 m 29
 104.395507812 54.9453125 l 29
 345.0546875 54.9453125 l 1053
EndSplineSet
Fore
SplineSet
104.395507812 622.198242188 m 1
 124.395507812 622.198242188 l 1
 124.395507812 602.198242188 l 1
 124.395507812 74.9453125 l 1
 345.0546875 74.9453125 l 1
 365.0546875 74.9453125 l 1
 365.0546875 54.9453125 l 1
 365.0546875 34.9453125 l 1
 345.0546875 34.9453125 l 1
 104.395507812 34.9453125 l 2
 95.8115843464 34.9453125 84.3955078125 42.8392822156 84.3955078125 54.9453125 c 2
 84.3955078125 602.198242188 l 1
 84.3955078125 622.198242188 l 1
 104.395507812 622.198242188 l 1
EndSplineSet
EndChar

StartChar: ry.ccv.1
Encoding: 105 -1 67
Width: 810
VWidth: 0
Flags: W
VStem: 78.0538 292.244
AnchorPoint: "Above" 405 0 basechar 0
LayerCount: 2
Back
SplineSet
104.395507812 54.9453125 m 29
 343.956054688 602.198242188 l 1053
104.395507812 602.198242188 m 29
 343.956054688 54.9453125 l 1053
EndSplineSet
Fore
SplineSet
96.3752705963 620.519699417 m 1
 114.696727825 628.539936633 l 1
 122.716965042 610.218479404 l 1
 224.17578125 378.445613892 l 1
 325.634597458 610.218479404 l 1
 333.654834675 628.539936633 l 1
 351.976291904 620.519699417 l 1
 370.297749133 612.4994622 l 1
 362.277511917 594.178004971 l 1
 246.008105775 328.571777344 l 1
 362.277511917 62.9655497162 l 1
 370.297749133 44.6440924871 l 1
 351.976291904 36.6238552709 l 1
 333.654834675 28.6036180548 l 1
 325.634597458 46.9250752838 l 1
 224.17578125 278.697940795 l 1
 122.716965042 46.9250752838 l 1
 114.696727825 28.6036180548 l 1
 96.3752705963 36.6238552709 l 1
 78.0538133673 44.6440924871 l 1
 86.0740505834 62.9655497162 l 1
 202.343456725 328.571777344 l 1
 86.0740505834 594.178004971 l 1
 78.0538133673 612.4994622 l 1
 96.3752705963 620.519699417 l 1
EndSplineSet
EndChar

StartChar: ny.ccv.1
Encoding: 112 -1 68
Width: 810
VWidth: 0
Flags: W
HStem: 34.9453 40<124.396 325.055> 582.198 40<124.396 325.055>
VStem: 84.3955 40<74.9453 582.198> 325.055 40<74.9453 582.198>
AnchorPoint: "Above" 405 0 basechar 0
LayerCount: 2
Back
SplineSet
104.395507812 602.198242188 m 5
 345.0546875 602.198242188 l 5
 345.0546875 54.9453125 l 5
 104.395507812 54.9453125 l 5
 104.395507812 602.198242188 l 5
EndSplineSet
Fore
SplineSet
104.395507812 622.198242188 m 2
 345.0546875 622.198242188 l 2
 357.160717784 622.198242188 365.0546875 610.782165654 365.0546875 602.198242188 c 2
 365.0546875 54.9453125 l 2
 365.0546875 42.8392822156 353.638610966 34.9453125 345.0546875 34.9453125 c 2
 104.395507812 34.9453125 l 2
 92.2894775281 34.9453125 84.3955078125 46.3613890339 84.3955078125 54.9453125 c 2
 84.3955078125 602.198242188 l 2
 84.3955078125 614.304272472 95.8115843464 622.198242188 104.395507812 622.198242188 c 2
124.395507812 582.198242188 m 1
 124.395507812 74.9453125 l 1
 325.0546875 74.9453125 l 1
 325.0546875 582.198242188 l 1
 124.395507812 582.198242188 l 1
EndSplineSet
EndChar

StartChar: ty.ccv.1
Encoding: 113 -1 69
Width: 810
VWidth: 0
Flags: W
HStem: 34.9453 40<124.396 365.055> 582.198 40<124.396 365.055>
VStem: 84.3955 40<74.9453 582.198>
AnchorPoint: "Above" 405 0 basechar 0
LayerCount: 2
Back
SplineSet
345.0546875 602.198242188 m 29
 104.395507812 602.198242188 l 29
 104.395507812 54.9453125 l 29
 345.0546875 54.9453125 l 1053
EndSplineSet
Fore
SplineSet
365.0546875 602.198242188 m 1
 365.0546875 582.198242188 l 1
 345.0546875 582.198242188 l 1
 124.395507812 582.198242188 l 1
 124.395507812 74.9453125 l 1
 345.0546875 74.9453125 l 1
 365.0546875 74.9453125 l 1
 365.0546875 54.9453125 l 1
 365.0546875 34.9453125 l 1
 345.0546875 34.9453125 l 1
 104.395507812 34.9453125 l 2
 95.8115843464 34.9453125 84.3955078125 42.8392822156 84.3955078125 54.9453125 c 2
 84.3955078125 602.198242188 l 2
 84.3955078125 610.782165654 92.2894775281 622.198242188 104.395507812 622.198242188 c 2
 345.0546875 622.198242188 l 1
 365.0546875 622.198242188 l 1
 365.0546875 602.198242188 l 1
EndSplineSet
EndChar

StartChar: dy.ccv.1
Encoding: 114 -1 70
Width: 810
VWidth: 0
Flags: W
HStem: 34.9453 40<84.3955 325.055> 582.198 40<84.3955 325.055>
VStem: 325.055 40<74.9453 582.198>
AnchorPoint: "Above" 405 0 basechar 0
LayerCount: 2
Back
SplineSet
104.395507812 602.198242188 m 29
 345.0546875 602.198242188 l 29
 345.0546875 54.9453125 l 29
 104.395507812 54.9453125 l 1053
EndSplineSet
Fore
SplineSet
84.3955078125 602.198242188 m 1
 84.3955078125 622.198242188 l 1
 104.395507812 622.198242188 l 1
 345.0546875 622.198242188 l 2
 357.160717784 622.198242188 365.0546875 610.782165654 365.0546875 602.198242188 c 2
 365.0546875 54.9453125 l 2
 365.0546875 42.8392822156 353.638610966 34.9453125 345.0546875 34.9453125 c 2
 104.395507812 34.9453125 l 1
 84.3955078125 34.9453125 l 1
 84.3955078125 54.9453125 l 1
 84.3955078125 74.9453125 l 1
 104.395507812 74.9453125 l 1
 325.0546875 74.9453125 l 1
 325.0546875 582.198242188 l 1
 104.395507812 582.198242188 l 1
 84.3955078125 582.198242188 l 1
 84.3955078125 602.198242188 l 1
EndSplineSet
EndChar

StartChar: sy.ccv.1
Encoding: 115 -1 71
Width: 810
VWidth: 0
Flags: W
HStem: 34.9453 40<124.396 223.444>
VStem: 84.3955 40<74.9453 622.198>
AnchorPoint: "Above" 405 0 basechar 0
LayerCount: 2
Back
SplineSet
104.395507812 602.198242188 m 29
 104.395507812 54.9453125 l 29
 240.659179688 54.9453125 l 21
 253.796875 240.443359375 283.966796875 423.26171875 352.747070312 600 c 1037
EndSplineSet
Fore
SplineSet
104.395507812 622.198242188 m 1
 124.395507812 622.198242188 l 1
 124.395507812 602.198242188 l 1
 124.395507812 74.9453125 l 1
 222.083647227 74.9453125 l 1
 236.074727997 256.050220878 266.630933478 433.862004353 334.108712988 607.253387914 c 2
 341.362100902 625.891745239 l 1
 360.000458227 618.638357325 l 1
 378.638815552 611.38496941 l 1
 371.385427637 592.746612086 l 2
 303.586737849 418.530615184 273.661493371 237.824481677 260.609207356 53.5323737149 c 0
 259.973133413 44.5513103386 251.702283074 34.9453125 240.659179688 34.9453125 c 2
 104.395507812 34.9453125 l 2
 95.8115843464 34.9453125 84.3955078125 42.8392822156 84.3955078125 54.9453125 c 2
 84.3955078125 602.198242188 l 1
 84.3955078125 622.198242188 l 1
 104.395507812 622.198242188 l 1
EndSplineSet
EndChar

StartChar: zy.ccv.1
Encoding: 116 -1 72
Width: 810
VWidth: 0
Flags: W
HStem: 582.198 40<226.006 325.055>
VStem: 325.055 40<34.9453 582.198>
AnchorPoint: "Above" 405 0 basechar 0
LayerCount: 2
Back
SplineSet
345.0546875 54.9453125 m 5
 345.0546875 602.198242188 l 5
 208.791015625 602.198242188 l 5
 195.653320312 416.69921875 165.483398438 233.881835938 96.703125 57.142578125 c 1029
EndSplineSet
Fore
SplineSet
345.0546875 34.9453125 m 1
 325.0546875 34.9453125 l 1
 325.0546875 54.9453125 l 1
 325.0546875 582.198242188 l 1
 227.36655511 582.198242188 l 1
 213.375459851 401.092316797 182.819268147 223.281548064 115.34149587 49.8892250174 c 1
 115.34149587 48.8892250174 115.704163526 50.8211435609 115.34149587 49.8892250174 c 1
 108.088142763 31.2508541472 l 1
 89.4497718924 38.5042072548 l 1
 70.8114010222 45.7575603623 l 1
 78.0647541298 64.3959312326 l 2
 145.86346948 238.612956445 175.788701233 419.318092789 188.840987432 603.611173571 c 0
 189.477058919 612.592249541 197.747913999 622.198242188 208.791015625 622.198242188 c 2
 345.0546875 622.198242188 l 2
 353.638610966 622.198242188 365.0546875 614.304272472 365.0546875 602.198242188 c 2
 365.0546875 54.9453125 l 1
 365.0546875 34.9453125 l 1
 345.0546875 34.9453125 l 1
EndSplineSet
EndChar

StartChar: gy.ccv.1
Encoding: 117 -1 73
Width: 810
VWidth: 0
Flags: W
AnchorPoint: "Above" 405 0 basechar 0
LayerCount: 2
Back
SplineSet
104.395507812 602.198242188 m 29
 343.956054688 326.374023438 l 29
 104.395507812 54.9453125 l 1053
EndSplineSet
Fore
SplineSet
91.2808700397 617.298118879 m 1
 106.380746731 630.412756651 l 1
 119.495384504 615.31287996 l 1
 359.055931379 339.48866121 l 2
 365.992434261 331.502139584 364.560990231 319.495811366 358.951040447 313.139583439 c 2
 119.390493572 41.7108725012 l 1
 106.156053573 26.715886742 l 1
 91.1610678137 39.9503267408 l 1
 76.1660820545 53.1847667396 l 1
 89.4005220533 68.1797524988 l 1
 317.373865652 326.479842343 l 1
 89.2956311214 589.083604415 l 1
 76.1809933485 604.183481106 l 1
 91.2808700397 617.298118879 l 1
EndSplineSet
EndChar

StartChar: jy.ccv.1
Encoding: 118 -1 74
Width: 810
VWidth: 0
Flags: W
HStem: 308.571 40<83.2969 201.38 247.591 363.956>
VStem: 204.176 40<348.571 622.198>
AnchorPoint: "Above" 405 0 basechar 0
LayerCount: 2
Back
SplineSet
343.956054688 328.571289062 m 29
 103.296875 328.571289062 l 1053
103.296875 54.9453125 m 21
 171.430664062 121.612304688 211.72265625 213.186523438 224.17578125 329.669921875 c 1037
343.956054688 54.9453125 m 21
 268.053710938 120.5234375 239.946289062 217.348632812 224.17578125 329.669921875 c 13
 224.17578125 602.198242188 l 1053
EndSplineSet
Fore
SplineSet
359.089940188 41.869934507 m 1
 346.014562195 26.7360490066 l 1
 330.880676695 39.8114269995 l 1
 331.63737097 39.1576580999 330.880676695 38.8114269995 330.880676695 39.8114269995 c 1
 274.564449738 88.4675341558 243.379434747 152.41384473 224.215801932 224.561579135 c 1
 202.905179208 151.267186099 167.371431577 89.6589870211 117.284298906 40.6501394518 c 1
 117.284298906 39.6501394518 116.569540253 39.9507682565 117.284298906 40.6501394518 c 1
 102.989125858 26.6627155459 l 1
 89.0017019518 40.9578885942 l 1
 75.0142780459 55.2530616424 l 1
 89.3094510942 69.2404855482 l 1
 88.5946924418 68.541114353 89.3094510942 68.2404855482 89.3094510942 69.2404855482 c 1
 149.076793511 127.721145508 186.695655945 206.767880088 201.379625117 308.571289062 c 1
 103.296875 308.571289062 l 1
 83.296875 308.571289062 l 1
 83.296875 328.571289062 l 1
 83.296875 348.571289062 l 1
 103.296875 348.571289062 l 1
 204.17578125 348.571289062 l 1
 204.17578125 602.198242188 l 1
 204.17578125 622.198242188 l 1
 224.17578125 622.198242188 l 1
 244.17578125 622.198242188 l 1
 244.17578125 602.198242188 l 1
 244.17578125 348.571289062 l 1
 343.956054688 348.571289062 l 1
 363.956054688 348.571289062 l 1
 363.956054688 328.571289062 l 1
 363.956054688 308.571289062 l 1
 343.956054688 308.571289062 l 1
 247.590709097 308.571289062 l 1
 263.803208141 208.629097309 292.084383458 126.19216503 357.03143268 70.0791980005 c 2
 372.165318181 57.0038200075 l 1
 359.089940188 41.869934507 l 1
EndSplineSet
EndChar

StartChar: uy.ccv.1
Encoding: 120 -1 76
Width: 810
VWidth: 0
Flags: W
HStem: 34.9453 40<84.3955 325.055>
VStem: 325.055 40<74.9453 622.198>
AnchorPoint: "Above" 405 0 basechar 0
LayerCount: 2
Back
SplineSet
345.0546875 602.198242188 m 29
 345.0546875 54.9453125 l 29
 104.395507812 54.9453125 l 1053
EndSplineSet
Fore
SplineSet
345.0546875 622.198242188 m 1
 365.0546875 622.198242188 l 1
 365.0546875 602.198242188 l 1
 365.0546875 54.9453125 l 2
 365.0546875 42.8392822156 353.638610966 34.9453125 345.0546875 34.9453125 c 2
 104.395507812 34.9453125 l 1
 84.3955078125 34.9453125 l 1
 84.3955078125 54.9453125 l 1
 84.3955078125 74.9453125 l 1
 104.395507812 74.9453125 l 1
 325.0546875 74.9453125 l 1
 325.0546875 602.198242188 l 1
 325.0546875 622.198242188 l 1
 345.0546875 622.198242188 l 1
EndSplineSet
EndChar

StartChar: ly.ccv.1
Encoding: 121 -1 77
Width: 810
VWidth: 0
Flags: W
HStem: 34.9453 40<84.3955 323.956> 308.571 40<124.396 323.956> 582.198 40<124.396 363.956>
VStem: 84.3955 40<348.571 582.198> 323.956 40<74.9453 308.571>
CounterMasks: 1 e0
AnchorPoint: "Above" 405 0 basechar 0
LayerCount: 2
Back
SplineSet
343.956054688 602.198242188 m 29
 104.395507812 602.198242188 l 29
 104.395507812 328.571289062 l 29
 343.956054688 328.571289062 l 29
 343.956054688 54.9453125 l 29
 104.395507812 54.9453125 l 1053
EndSplineSet
Fore
SplineSet
363.956054688 602.198242188 m 1
 363.956054688 582.198242188 l 1
 343.956054688 582.198242188 l 1
 124.395507812 582.198242188 l 1
 124.395507812 348.571289062 l 1
 343.956054688 348.571289062 l 2
 356.062084972 348.571289062 363.956054688 337.155212529 363.956054688 328.571289062 c 2
 363.956054688 54.9453125 l 2
 363.956054688 42.8392822156 352.539978154 34.9453125 343.956054688 34.9453125 c 2
 104.395507812 34.9453125 l 1
 84.3955078125 34.9453125 l 1
 84.3955078125 54.9453125 l 1
 84.3955078125 74.9453125 l 1
 104.395507812 74.9453125 l 1
 323.956054688 74.9453125 l 1
 323.956054688 308.571289062 l 1
 104.395507812 308.571289062 l 2
 95.8115843464 308.571289062 84.3955078125 316.465258778 84.3955078125 328.571289062 c 2
 84.3955078125 602.198242188 l 2
 84.3955078125 610.782165654 92.2894775281 622.198242188 104.395507812 622.198242188 c 2
 343.956054688 622.198242188 l 1
 363.956054688 622.198242188 l 1
 363.956054688 602.198242188 l 1
EndSplineSet
EndChar

StartChar: denpabu.cvc.1
Encoding: 63 -1 78
Width: 810
VWidth: 0
Flags: W
HStem: 225.055 40<302.272 508.716> 587.692 40<302.272 508.716>
VStem: 145.934 40<361.053 491.695> 625.055 40<361.053 491.695>
AnchorPoint: "Above" 405 0 basechar 0
LayerCount: 2
Back
SplineSet
165.93359375 426.374023438 m 4
 165.93359375 526.374023438 273.625976562 607.692382812 405.494140625 607.692382812 c 4
 537.362304688 607.692382812 645.0546875 526.374023438 645.0546875 426.374023438 c 4
 645.0546875 326.374023438 537.362304688 245.0546875 405.494140625 245.0546875 c 4
 273.625976562 245.0546875 165.93359375 326.374023438 165.93359375 426.374023438 c 4
EndSplineSet
Fore
SplineSet
145.93359375 426.374023438 m 0
 145.93359375 542.128111891 267.344196965 627.692382812 405.494140625 627.692382812 c 0
 543.644840161 627.692382812 665.0546875 542.128626944 665.0546875 426.374023438 c 0
 665.0546875 310.620027042 543.644222881 225.0546875 405.494140625 225.0546875 c 0
 267.343302508 225.0546875 145.93359375 310.619512024 145.93359375 426.374023438 c 0
185.93359375 426.374023438 m 0
 185.93359375 342.128534851 279.908650617 265.0546875 405.494140625 265.0546875 c 0
 531.080386494 265.0546875 625.0546875 342.128019833 625.0546875 426.374023438 c 0
 625.0546875 510.619419931 531.079769214 587.692382812 405.494140625 587.692382812 c 0
 279.90775616 587.692382812 185.93359375 510.619934984 185.93359375 426.374023438 c 0
EndSplineSet
EndChar

StartChar: ybu.cv
Encoding: 47 -1 79
Width: 0
VWidth: 0
Flags: W
HStem: -113.406 40<112 385.228 425.296 699>
VStem: 385.228 40.0001<-265.966 -113.406 -73.4062 61.7234>
AnchorPoint: "Above" 405 0 mark 0
LayerCount: 2
Back
SplineSet
405.494140625 41.7578125 m 5
 405 -246 l 1053
679 -93.40625 m 5
 132 -93.40625 l 1029
EndSplineSet
Fore
SplineSet
699 -93.40625 m 1
 699 -113.40625 l 1
 679 -113.40625 l 1
 425.227720816 -113.40625 l 1
 424.999970512 -246.034344152 l 1
 424.999970512 -247.034344152 425.00168772 -245.034345626 424.999970512 -246.034344152 c 1
 424.96562636 -266.034314664 l 1
 404.965655848 -265.999970512 l 1
 384.965685336 -265.96562636 l 1
 385.000029488 -245.965655848 l 1
 385.001746696 -244.965657323 385.000029488 -244.965655848 385.000029488 -245.965655848 c 1
 385.22766184 -113.40625 l 1
 132 -113.40625 l 1
 112 -113.40625 l 1
 112 -93.40625 l 1
 112 -73.40625 l 1
 132 -73.40625 l 1
 385.296350244 -73.40625 l 1
 385.494170113 41.7921566516 l 1
 385.528514265 61.7921271635 l 1
 405.528484777 61.757783012 l 1
 425.528455289 61.7234388604 l 1
 425.494111137 41.7234683484 l 1
 425.296409221 -73.40625 l 1
 679 -73.40625 l 1
 699 -73.40625 l 1
 699 -93.40625 l 1
EndSplineSet
EndChar

StartChar: eibu.cv
Encoding: 58 -1 80
Width: 0
VWidth: 0
Flags: W
HStem: -113.406 40<152 385.234 425.305 659>
VStem: 112 40<-362.857 -113.406> 385.234 40.0001<-265.965 -113.406 -73.4062 54.0311> 659 40<-185.934 -113.406 -73.4062 -7.47266>
AnchorPoint: "Above" 405 0 mark 0
LayerCount: 2
Back
SplineSet
679 -27.47265625 m 5
 679 -165.93359375 l 1029
405.494140625 34.06640625 m 5
 405 -246 l 1029
679 -93.40625 m 5
 132 -93.40625 l 5
 132 -342.857421875 l 1029
EndSplineSet
Fore
SplineSet
405.52942796 54.0663751201 m 1
 425.52939683 54.031087785 l 1
 425.494109495 34.0311189149 l 1
 425.304550278 -73.40625 l 1
 659 -73.40625 l 1
 659 -27.47265625 l 1
 659 -7.47265625 l 1
 679 -7.47265625 l 1
 699 -7.47265625 l 1
 699 -27.47265625 l 1
 699 -73.40625 l 1
 699 -93.40625 l 1
 699 -113.40625 l 1
 699 -165.93359375 l 1
 699 -185.93359375 l 1
 679 -185.93359375 l 1
 659 -185.93359375 l 1
 659 -165.93359375 l 1
 659 -113.40625 l 1
 425.233975498 -113.40625 l 1
 424.99996887 -246.035287184 l 1
 424.964681535 -266.035256205 l 1
 404.964712665 -265.99996887 l 1
 384.964743795 -265.964681535 l 1
 385.00003113 -245.964712665 l 1
 385.001795497 -244.964714221 385.00003113 -244.964712665 385.00003113 -245.964712665 c 1
 385.233913238 -113.40625 l 1
 152 -113.40625 l 1
 152 -342.857421875 l 1
 152 -362.857421875 l 1
 132 -362.857421875 l 1
 112 -362.857421875 l 1
 112 -342.857421875 l 1
 112 -93.40625 l 2
 112 -84.8223265339 119.893969716 -73.40625 132 -73.40625 c 2
 385.304488018 -73.40625 l 1
 385.494171755 34.1016935851 l 1
 385.52945909 54.1016624551 l 1
 405.52942796 54.0663751201 l 1
EndSplineSet
EndChar

StartChar: oibu.cv
Encoding: 59 -1 81
Width: 0
VWidth: 0
Flags: W
HStem: -113.406 40<152 385.234 425.305 659>
VStem: 112 40<-185.934 -113.406 -73.4062 -7.47266> 385.234 40.0001<-265.965 -113.406 -73.4062 54.0311> 659 40<-362.857 -113.406>
AnchorPoint: "Above" 405 0 mark 0
LayerCount: 2
Back
SplineSet
132 -27.47265625 m 29
 132 -93.40625 l 29
 132 -165.93359375 l 1053
405.494140625 34.06640625 m 5
 405 -246 l 1053
132 -93.40625 m 5
 679 -93.40625 l 5
 679 -342.857421875 l 1053
EndSplineSet
Fore
SplineSet
405.52942796 54.0663751201 m 1
 425.52939683 54.031087785 l 1
 425.494109495 34.0311189149 l 1
 425.304550278 -73.40625 l 1
 679 -73.40625 l 2
 691.106030284 -73.40625 699 -84.8223265339 699 -93.40625 c 2
 699 -342.857421875 l 1
 699 -362.857421875 l 1
 679 -362.857421875 l 1
 659 -362.857421875 l 1
 659 -342.857421875 l 1
 659 -113.40625 l 1
 425.233975498 -113.40625 l 1
 424.99996887 -246.035287184 l 1
 424.964681535 -266.035256205 l 1
 404.964712665 -265.99996887 l 1
 384.964743795 -265.964681535 l 1
 385.00003113 -245.964712665 l 1
 385.001795497 -244.964714221 385.00003113 -244.964712665 385.00003113 -245.964712665 c 1
 385.233913238 -113.40625 l 1
 152 -113.40625 l 1
 152 -165.93359375 l 1
 152 -185.93359375 l 1
 132 -185.93359375 l 1
 112 -185.93359375 l 1
 112 -165.93359375 l 1
 112 -113.40625 l 1
 112 -93.40625 l 1
 112 -73.40625 l 1
 112 -27.47265625 l 1
 112 -7.47265625 l 1
 132 -7.47265625 l 1
 152 -7.47265625 l 1
 152 -27.47265625 l 1
 152 -73.40625 l 1
 385.304488018 -73.40625 l 1
 385.494171755 34.1016935851 l 1
 385.52945909 54.1016624551 l 1
 405.52942796 54.0663751201 l 1
EndSplineSet
EndChar

StartChar: aibu.cv
Encoding: 60 -1 82
Width: 0
VWidth: 0
Flags: W
HStem: -113.406 40<152 659>
VStem: 112 40<-362.857 -113.406> 659 40<-185.934 -113.406 -73.4062 -7.47266>
AnchorPoint: "Above" 405 0 mark 0
LayerCount: 2
Back
SplineSet
679 -93.40625 m 1
 132 -93.40625 l 1
 132 -342.857421875 l 1025
679 -27.47265625 m 1
 679 -93.40625 l 1
 679 -165.93359375 l 1025
679 -93.40625 m 1025
EndSplineSet
Fore
SplineSet
679 -7.47265625 m 1
 699 -7.47265625 l 1
 699 -27.47265625 l 1
 699 -73.40625 l 1
 699 -93.40625 l 1
 699 -113.40625 l 1
 699 -165.93359375 l 1
 699 -185.93359375 l 1
 679 -185.93359375 l 1
 659 -185.93359375 l 1
 659 -165.93359375 l 1
 659 -113.40625 l 1
 152 -113.40625 l 1
 152 -342.857421875 l 1
 152 -362.857421875 l 1
 132 -362.857421875 l 1
 112 -362.857421875 l 1
 112 -342.857421875 l 1
 112 -93.40625 l 2
 112 -84.8223265339 119.893969716 -73.40625 132 -73.40625 c 2
 659 -73.40625 l 1
 659 -27.47265625 l 1
 659 -7.47265625 l 1
 679 -7.47265625 l 1
EndSplineSet
EndChar

StartChar: aubu.cv
Encoding: 61 -1 83
Width: 0
VWidth: 0
Flags: W
HStem: -113.406 40<152 659>
VStem: 112 40<-185.934 -113.406 -73.4062 -7.47266> 659 40<-362.857 -113.406>
AnchorPoint: "Above" 405 0 mark 0
LayerCount: 2
Back
SplineSet
132 -93.40625 m 5
 679 -93.40625 l 5
 679 -342.857421875 l 1053
132 -27.47265625 m 29
 132 -93.40625 l 29
 132 -165.93359375 l 1053
132 -93.40625 m 1029
EndSplineSet
Fore
SplineSet
132 -7.47265625 m 1
 152 -7.47265625 l 1
 152 -27.47265625 l 1
 152 -73.40625 l 1
 679 -73.40625 l 2
 691.106030284 -73.40625 699 -84.8223265339 699 -93.40625 c 2
 699 -342.857421875 l 1
 699 -362.857421875 l 1
 679 -362.857421875 l 1
 659 -362.857421875 l 1
 659 -342.857421875 l 1
 659 -113.40625 l 1
 152 -113.40625 l 1
 152 -165.93359375 l 1
 152 -185.93359375 l 1
 132 -185.93359375 l 1
 112 -185.93359375 l 1
 112 -165.93359375 l 1
 112 -113.40625 l 1
 112 -93.40625 l 1
 112 -73.40625 l 1
 112 -27.47265625 l 1
 112 -7.47265625 l 1
 132 -7.47265625 l 1
EndSplineSet
EndChar

StartChar: ubu.cv
Encoding: 45 -1 84
Width: 0
VWidth: 0
Flags: W
HStem: -113.406 40<112 659>
VStem: 659 40<-362.857 -113.406>
AnchorPoint: "Above" 405 0 mark 0
LayerCount: 2
Back
SplineSet
132 -93.40625 m 5
 679 -93.40625 l 5
 679 -342.857421875 l 1053
EndSplineSet
Fore
SplineSet
112 -93.40625 m 1
 112 -73.40625 l 1
 132 -73.40625 l 1
 679 -73.40625 l 2
 691.106030284 -73.40625 699 -84.8223265339 699 -93.40625 c 2
 699 -342.857421875 l 1
 699 -362.857421875 l 1
 679 -362.857421875 l 1
 659 -362.857421875 l 1
 659 -342.857421875 l 1
 659 -113.40625 l 1
 132 -113.40625 l 1
 112 -113.40625 l 1
 112 -93.40625 l 1
EndSplineSet
EndChar

StartChar: abu.cv
Encoding: 46 -1 85
Width: 0
VWidth: 0
Flags: W
HStem: -113.406 40<112 699>
AnchorPoint: "Above" 405 0 mark 0
LayerCount: 2
Back
SplineSet
132 -93.40625 m 5
 679 -93.40625 l 1029
EndSplineSet
Fore
SplineSet
112 -93.40625 m 1
 112 -73.40625 l 1
 132 -73.40625 l 1
 679 -73.40625 l 1
 699 -73.40625 l 1
 699 -93.40625 l 1
 699 -113.40625 l 1
 679 -113.40625 l 1
 132 -113.40625 l 1
 112 -113.40625 l 1
 112 -93.40625 l 1
EndSplineSet
EndChar

StartChar: py.ccv.2
Encoding: 129 -1 86
Width: 0
VWidth: 0
Flags: W
HStem: 34.9453 40<488.132 728.791> 308.571 40<488.132 728.791> 582.198 40<488.132 728.791>
VStem: 448.132 40<74.9453 308.571 348.571 582.198>
CounterMasks: 1 e0
AnchorPoint: "Above" 405 0 mark 0
LayerCount: 2
Back
SplineSet
708.791015625 328.571289062 m 29
 468.131835938 328.571289062 l 1053
708.791015625 602.198242188 m 29
 468.131835938 602.198242188 l 29
 468.131835938 54.9453125 l 29
 708.791015625 54.9453125 l 1053
EndSplineSet
Fore
SplineSet
728.791015625 602.198242188 m 1
 728.791015625 582.198242188 l 1
 708.791015625 582.198242188 l 1
 488.131835938 582.198242188 l 1
 488.131835938 348.571289062 l 1
 708.791015625 348.571289062 l 1
 728.791015625 348.571289062 l 1
 728.791015625 328.571289062 l 1
 728.791015625 308.571289062 l 1
 708.791015625 308.571289062 l 1
 488.131835938 308.571289062 l 1
 488.131835938 74.9453125 l 1
 708.791015625 74.9453125 l 1
 728.791015625 74.9453125 l 1
 728.791015625 54.9453125 l 1
 728.791015625 34.9453125 l 1
 708.791015625 34.9453125 l 1
 468.131835938 34.9453125 l 2
 459.547912471 34.9453125 448.131835938 42.8392822156 448.131835938 54.9453125 c 2
 448.131835938 308.571289062 l 1
 448.131835938 328.571289062 l 1
 448.131835938 348.571289062 l 1
 448.131835938 602.198242188 l 2
 448.131835938 610.782165654 456.025805653 622.198242188 468.131835938 622.198242188 c 2
 708.791015625 622.198242188 l 1
 728.791015625 622.198242188 l 1
 728.791015625 602.198242188 l 1
EndSplineSet
EndChar

StartChar: by.ccv.2
Encoding: 130 -1 87
Width: 0
VWidth: 0
Flags: W
HStem: 34.9453 40<448.132 688.791> 308.571 40<448.132 688.791> 582.198 40<448.132 688.791>
VStem: 688.791 40<74.9453 308.571 348.571 582.198>
CounterMasks: 1 e0
AnchorPoint: "Above" 405 0 mark 0
LayerCount: 2
Back
SplineSet
468.131835938 328.571289062 m 29
 708.791015625 328.571289062 l 1053
468.131835938 54.9453125 m 29
 708.791015625 54.9453125 l 29
 708.791015625 602.198242188 l 29
 468.131835938 602.198242188 l 1053
EndSplineSet
Fore
SplineSet
448.131835938 54.9453125 m 1
 448.131835938 74.9453125 l 1
 468.131835938 74.9453125 l 1
 688.791015625 74.9453125 l 1
 688.791015625 308.571289062 l 1
 468.131835938 308.571289062 l 1
 448.131835938 308.571289062 l 1
 448.131835938 328.571289062 l 1
 448.131835938 348.571289062 l 1
 468.131835938 348.571289062 l 1
 688.791015625 348.571289062 l 1
 688.791015625 582.198242188 l 1
 468.131835938 582.198242188 l 1
 448.131835938 582.198242188 l 1
 448.131835938 602.198242188 l 1
 448.131835938 622.198242188 l 1
 468.131835938 622.198242188 l 1
 708.791015625 622.198242188 l 2
 717.374939091 622.198242188 728.791015625 614.304272472 728.791015625 602.198242188 c 2
 728.791015625 348.571289062 l 1
 728.791015625 328.571289062 l 1
 728.791015625 308.571289062 l 1
 728.791015625 54.9453125 l 2
 728.791015625 46.3613890339 720.897045909 34.9453125 708.791015625 34.9453125 c 2
 468.131835938 34.9453125 l 1
 448.131835938 34.9453125 l 1
 448.131835938 54.9453125 l 1
EndSplineSet
EndChar

StartChar: fy.ccv.2
Encoding: 131 -1 88
Width: 0
VWidth: 0
Flags: W
HStem: 32.7471 40<485.934 585.19> 319.561 40<485.934 615.255>
VStem: 445.934 40<72.7471 319.561 359.561 620>
AnchorPoint: "Above" 405 0 mark 0
LayerCount: 2
Back
SplineSet
479.12109375 339.560546875 m 29
 617.58203125 339.560546875 l 1053
465.93359375 600 m 29
 465.93359375 52.7470703125 l 29
 602.198242188 52.7470703125 l 21
 615.334960938 238.24609375 645.505859375 421.063476562 714.286132812 597.801757812 c 1037
EndSplineSet
Fore
SplineSet
465.93359375 620 m 1
 485.93359375 620 l 1
 485.93359375 600 l 1
 485.93359375 359.560546875 l 1
 617.58203125 359.560546875 l 1
 623.237423003 359.560546875 l 1
 640.714019314 442.278193304 664.161510602 524.147814878 695.647775488 605.055145727 c 2
 702.901163402 623.693503052 l 1
 721.539520727 616.440115137 l 1
 740.177878052 609.186727223 l 1
 732.924490137 590.548369898 l 2
 665.125768806 416.332291942 635.199583637 235.627181181 622.148277782 51.3342434318 c 0
 621.512240984 42.3529896556 613.241318965 32.7470703125 602.198242188 32.7470703125 c 2
 465.93359375 32.7470703125 l 2
 457.349670284 32.7470703125 445.93359375 40.6410400281 445.93359375 52.7470703125 c 2
 445.93359375 600 l 1
 445.93359375 620 l 1
 465.93359375 620 l 1
485.93359375 319.560546875 m 1
 485.93359375 72.7470703125 l 1
 583.622611821 72.7470703125 l 1
 590.034230402 155.746352555 599.925412761 238.053597441 615.255314392 319.560546875 c 1
 485.93359375 319.560546875 l 1
EndSplineSet
EndChar

StartChar: vy.ccv.2
Encoding: 132 -1 89
Width: 0
VWidth: 0
Flags: W
HStem: 295.385 40<558.371 687.692> 582.198 40<588.437 687.692>
VStem: 687.692 40<34.9453 295.385 335.385 582.198>
AnchorPoint: "Above" 405 0 mark 0
LayerCount: 2
Back
SplineSet
694.505859375 315.384765625 m 5
 556.043945312 315.384765625 l 1029
707.692382812 54.9453125 m 5
 707.692382812 602.198242188 l 5
 571.428710938 602.198242188 l 5
 558.291015625 416.69921875 528.12109375 233.881835938 459.340820312 57.142578125 c 1029
EndSplineSet
Fore
SplineSet
707.692382812 34.9453125 m 1
 687.692382812 34.9453125 l 1
 687.692382812 54.9453125 l 1
 687.692382812 295.384765625 l 1
 556.043945312 295.384765625 l 1
 550.389244923 295.384765625 l 1
 532.912781271 212.666965303 509.465485041 130.797077367 477.979191183 49.8892250174 c 1
 477.979191183 48.8892250174 478.341858838 50.8211435609 477.979191183 49.8892250174 c 1
 470.725838075 31.2508541472 l 1
 452.087467205 38.5042072548 l 1
 433.449096335 45.7575603623 l 1
 440.702449442 64.3959312326 l 2
 508.501164792 238.612956445 538.426396546 419.318092789 551.478682744 603.611173571 c 0
 552.114754231 612.592249541 560.385609311 622.198242188 571.428710938 622.198242188 c 2
 707.692382812 622.198242188 l 2
 716.276306279 622.198242188 727.692382812 614.304272472 727.692382812 602.198242188 c 2
 727.692382812 54.9453125 l 1
 727.692382812 34.9453125 l 1
 707.692382812 34.9453125 l 1
687.692382812 335.384765625 m 1
 687.692382812 582.198242188 l 1
 590.004250422 582.198242188 l 1
 583.592252047 499.198957442 573.701070061 416.891757712 558.371283088 335.384765625 c 1
 687.692382812 335.384765625 l 1
EndSplineSet
EndChar

StartChar: ky.ccv.2
Encoding: 133 -1 90
Width: 0
VWidth: 0
Flags: W
AnchorPoint: "Above" 405 0 mark 0
LayerCount: 2
Back
SplineSet
707.692382812 602.198242188 m 29
 468.131835938 327.47265625 l 29
 707.692382812 54.9453125 l 1053
EndSplineSet
Fore
SplineSet
720.836838459 617.272169537 m 1
 735.910765809 604.12771389 l 1
 722.766310162 589.053786541 l 1
 494.713867034 327.525576323 l 1
 722.713854359 68.1496827075 l 1
 735.918224567 53.128211161 l 1
 720.89675302 39.9238409535 l 1
 705.875281474 26.719470746 l 1
 692.670911266 41.7409422925 l 1
 453.110364391 314.268286042 l 2
 447.513709528 320.635116907 446.105583694 332.644256788 453.057908588 340.617111897 c 2
 692.618455463 615.342697834 l 1
 705.76291111 630.416625184 l 1
 720.836838459 617.272169537 l 1
EndSplineSet
EndChar

StartChar: cy.ccv.2
Encoding: 134 -1 91
Width: 0
VWidth: 0
Flags: W
HStem: 308.571 40<448.132 564.497 610.708 728.791>
VStem: 567.912 40<34.9453 308.571>
AnchorPoint: "Above" 405 0 mark 0
LayerCount: 2
Back
SplineSet
468.131835938 328.571289062 m 29
 708.791015625 328.571289062 l 1053
708.791015625 602.198242188 m 21
 640.657226562 535.53125 600.365234375 443.956054688 587.912109375 327.47265625 c 1037
468.131835938 602.198242188 m 21
 544.034179688 536.619140625 572.141601562 439.793945312 587.912109375 327.47265625 c 13
 587.912109375 54.9453125 l 1053
EndSplineSet
Fore
SplineSet
452.998046762 615.273731669 m 1
 466.073536244 630.407520845 l 1
 481.207325419 617.332031363 l 2
 537.523429672 568.675305656 568.708423469 504.728869385 587.872057684 432.581128894 c 1
 609.182664723 505.875822808 644.716403883 567.484513689 694.803591719 616.493415236 c 2
 709.098764767 630.480839142 l 1
 723.086188673 616.185666093 l 1
 737.073612579 601.890493045 l 1
 722.778439531 587.903069139 l 2
 663.011147956 529.422458927 625.392240157 450.374851656 610.708264043 348.571289062 c 1
 708.791015625 348.571289062 l 1
 728.791015625 348.571289062 l 1
 728.791015625 328.571289062 l 1
 728.791015625 308.571289062 l 1
 708.791015625 308.571289062 l 1
 607.912109375 308.571289062 l 1
 607.912109375 54.9453125 l 1
 607.912109375 34.9453125 l 1
 587.912109375 34.9453125 l 1
 567.912109375 34.9453125 l 1
 567.912109375 54.9453125 l 1
 567.912109375 308.571289062 l 1
 468.131835938 308.571289062 l 1
 448.131835938 308.571289062 l 1
 448.131835938 328.571289062 l 1
 448.131835938 348.571289062 l 1
 468.131835938 348.571289062 l 1
 564.497181931 348.571289062 l 1
 548.284688003 448.513472004 520.00352374 530.950539727 455.056346456 587.064453012 c 2
 439.92255728 600.139942494 l 1
 452.998046762 615.273731669 l 1
EndSplineSet
EndChar

StartChar: xy.ccv.2
Encoding: 135 -1 92
Width: 0
VWidth: 0
Flags: W
VStem: 567.912 40<34.9453 309.497>
AnchorPoint: "Above" 405 0 mark 0
LayerCount: 2
Back
SplineSet
708.791015625 602.198242188 m 21
 640.657226562 535.53125 600.365234375 443.956054688 587.912109375 327.47265625 c 1037
468.131835938 602.198242188 m 21
 544.034179688 536.619140625 572.141601562 439.793945312 587.912109375 327.47265625 c 13
 587.912109375 54.9453125 l 1053
EndSplineSet
Fore
SplineSet
452.998046762 615.273731669 m 1
 466.073536244 630.407520845 l 1
 481.207325419 617.332031363 l 2
 537.523429672 568.675305656 568.708423469 504.728869385 587.872057684 432.581128894 c 1
 609.182664723 505.875822808 644.716403883 567.484513689 694.803591719 616.493415236 c 2
 709.098764767 630.480839142 l 1
 723.086188673 616.185666093 l 1
 737.073612579 601.890493045 l 1
 722.778439531 587.903069139 l 2
 658.74044856 525.24369994 620.129174384 438.973072474 607.912109375 326.398661087 c 1
 607.912109375 54.9453125 l 1
 607.912109375 34.9453125 l 1
 587.912109375 34.9453125 l 1
 567.912109375 34.9453125 l 1
 567.912109375 54.9453125 l 1
 567.912109375 309.496865848 l 1
 565.89936944 309.712045885 l 1
 567.761420663 327.129204598 l 1
 552.097854846 436.733547508 524.59210994 526.986032894 455.056346456 587.064453012 c 2
 439.92255728 600.139942494 l 1
 452.998046762 615.273731669 l 1
EndSplineSet
EndChar

StartChar: iy.ccv.2
Encoding: 136 -1 93
Width: 0
VWidth: 0
Flags: W
HStem: 34.9453 40<488.132 728.791>
VStem: 448.132 40<74.9453 622.198>
AnchorPoint: "Above" 405 0 mark 0
LayerCount: 2
Back
SplineSet
468.131835938 602.198242188 m 29
 468.131835938 54.9453125 l 29
 708.791015625 54.9453125 l 1053
EndSplineSet
Fore
SplineSet
468.131835938 622.198242188 m 1
 488.131835938 622.198242188 l 1
 488.131835938 602.198242188 l 1
 488.131835938 74.9453125 l 1
 708.791015625 74.9453125 l 1
 728.791015625 74.9453125 l 1
 728.791015625 54.9453125 l 1
 728.791015625 34.9453125 l 1
 708.791015625 34.9453125 l 1
 468.131835938 34.9453125 l 2
 459.547912471 34.9453125 448.131835938 42.8392822156 448.131835938 54.9453125 c 2
 448.131835938 602.198242188 l 1
 448.131835938 622.198242188 l 1
 468.131835938 622.198242188 l 1
EndSplineSet
EndChar

StartChar: ny.ccv.2
Encoding: 144 -1 94
Width: 0
VWidth: 0
Flags: W
HStem: 34.9453 40<488.132 687.692> 582.198 40<488.132 687.692>
VStem: 448.132 40<74.9453 582.198> 687.692 40<74.9453 582.198>
AnchorPoint: "Above" 405 0 mark 0
LayerCount: 2
Back
SplineSet
468.131835938 602.198242188 m 25
 707.692382812 602.198242188 l 25
 707.692382812 54.9453125 l 25
 468.131835938 54.9453125 l 25
 468.131835938 602.198242188 l 25
EndSplineSet
Fore
SplineSet
468.131835938 622.198242188 m 2
 707.692382812 622.198242188 l 2
 719.798413097 622.198242188 727.692382812 610.782165654 727.692382812 602.198242188 c 2
 727.692382812 54.9453125 l 2
 727.692382812 42.8392822156 716.276306279 34.9453125 707.692382812 34.9453125 c 2
 468.131835938 34.9453125 l 2
 456.025805653 34.9453125 448.131835938 46.3613890339 448.131835938 54.9453125 c 2
 448.131835938 602.198242188 l 2
 448.131835938 614.304272472 459.547912471 622.198242188 468.131835938 622.198242188 c 2
488.131835938 582.198242188 m 1
 488.131835938 74.9453125 l 1
 687.692382812 74.9453125 l 1
 687.692382812 582.198242188 l 1
 488.131835938 582.198242188 l 1
EndSplineSet
EndChar

StartChar: ty.ccv.2
Encoding: 145 -1 95
Width: 0
VWidth: 0
Flags: W
HStem: 34.9453 40<488.132 727.692> 582.198 40<488.132 727.692>
VStem: 448.132 40<74.9453 582.198>
AnchorPoint: "Above" 405 0 mark 0
LayerCount: 2
Back
SplineSet
707.692382812 602.198242188 m 25
 468.131835938 602.198242188 l 25
 468.131835938 54.9453125 l 25
 707.692382812 54.9453125 l 1049
EndSplineSet
Fore
SplineSet
727.692382812 602.198242188 m 1
 727.692382812 582.198242188 l 1
 707.692382812 582.198242188 l 1
 488.131835938 582.198242188 l 1
 488.131835938 74.9453125 l 1
 707.692382812 74.9453125 l 1
 727.692382812 74.9453125 l 1
 727.692382812 54.9453125 l 1
 727.692382812 34.9453125 l 1
 707.692382812 34.9453125 l 1
 468.131835938 34.9453125 l 2
 459.547912471 34.9453125 448.131835938 42.8392822156 448.131835938 54.9453125 c 2
 448.131835938 602.198242188 l 2
 448.131835938 610.782165654 456.025805653 622.198242188 468.131835938 622.198242188 c 2
 707.692382812 622.198242188 l 1
 727.692382812 622.198242188 l 1
 727.692382812 602.198242188 l 1
EndSplineSet
EndChar

StartChar: dy.ccv.2
Encoding: 146 -1 96
Width: 0
VWidth: 0
Flags: W
HStem: 34.9453 40<448.132 687.692> 582.198 40<448.132 687.692>
VStem: 687.692 40<74.9453 582.198>
AnchorPoint: "Above" 405 0 mark 0
LayerCount: 2
Back
SplineSet
468.131835938 602.198242188 m 29
 707.692382812 602.198242188 l 29
 707.692382812 54.9453125 l 29
 468.131835938 54.9453125 l 1053
EndSplineSet
Fore
SplineSet
448.131835938 602.198242188 m 1
 448.131835938 622.198242188 l 1
 468.131835938 622.198242188 l 1
 707.692382812 622.198242188 l 2
 719.798413097 622.198242188 727.692382812 610.782165654 727.692382812 602.198242188 c 2
 727.692382812 54.9453125 l 2
 727.692382812 42.8392822156 716.276306279 34.9453125 707.692382812 34.9453125 c 2
 468.131835938 34.9453125 l 1
 448.131835938 34.9453125 l 1
 448.131835938 54.9453125 l 1
 448.131835938 74.9453125 l 1
 468.131835938 74.9453125 l 1
 687.692382812 74.9453125 l 1
 687.692382812 582.198242188 l 1
 468.131835938 582.198242188 l 1
 448.131835938 582.198242188 l 1
 448.131835938 602.198242188 l 1
EndSplineSet
EndChar

StartChar: sy.ccv.2
Encoding: 147 -1 97
Width: 0
VWidth: 0
Flags: W
HStem: 32.7471 40<485.934 584.983>
VStem: 445.934 40<72.7471 620>
AnchorPoint: "Above" 405 0 mark 0
LayerCount: 2
Back
SplineSet
465.93359375 600 m 29
 465.93359375 52.7470703125 l 29
 602.198242188 52.7470703125 l 21
 615.334960938 238.24609375 645.505859375 421.063476562 714.286132812 597.801757812 c 1037
EndSplineSet
Fore
SplineSet
465.93359375 620 m 1
 485.93359375 620 l 1
 485.93359375 600 l 1
 485.93359375 72.7470703125 l 1
 583.622611821 72.7470703125 l 1
 597.612873018 253.852921052 628.170028049 431.663844574 695.647775488 605.055145727 c 2
 702.901163402 623.693503052 l 1
 721.539520727 616.440115137 l 1
 740.177878052 609.186727223 l 1
 732.924490137 590.548369898 l 2
 665.125768806 416.332291942 635.199583637 235.627181181 622.148277782 51.3342434318 c 0
 621.512240984 42.3529896556 613.241318965 32.7470703125 602.198242188 32.7470703125 c 2
 465.93359375 32.7470703125 l 2
 457.349670284 32.7470703125 445.93359375 40.6410400281 445.93359375 52.7470703125 c 2
 445.93359375 600 l 1
 445.93359375 620 l 1
 465.93359375 620 l 1
EndSplineSet
EndChar

StartChar: zy.ccv.2
Encoding: 148 -1 98
Width: 0
VWidth: 0
Flags: W
HStem: 582.198 40<588.643 687.692>
VStem: 687.692 40<34.9453 582.198>
AnchorPoint: "Above" 405 0 mark 0
LayerCount: 2
Back
SplineSet
707.692382812 54.9453125 m 5
 707.692382812 602.198242188 l 5
 571.428710938 602.198242188 l 5
 558.291015625 416.69921875 528.12109375 233.881835938 459.340820312 57.142578125 c 1029
EndSplineSet
Fore
SplineSet
707.692382812 34.9453125 m 1
 687.692382812 34.9453125 l 1
 687.692382812 54.9453125 l 1
 687.692382812 582.198242188 l 1
 590.004250422 582.198242188 l 1
 576.013155164 401.092316797 545.45696346 223.281548064 477.979191183 49.8892250174 c 1
 477.979191183 48.8892250174 478.341858838 50.8211435609 477.979191183 49.8892250174 c 1
 470.725838075 31.2508541472 l 1
 452.087467205 38.5042072548 l 1
 433.449096335 45.7575603623 l 1
 440.702449442 64.3959312326 l 2
 508.501164792 238.612956445 538.426396546 419.318092789 551.478682744 603.611173571 c 0
 552.114754231 612.592249541 560.385609311 622.198242188 571.428710938 622.198242188 c 2
 707.692382812 622.198242188 l 2
 716.276306279 622.198242188 727.692382812 614.304272472 727.692382812 602.198242188 c 2
 727.692382812 54.9453125 l 1
 727.692382812 34.9453125 l 1
 707.692382812 34.9453125 l 1
EndSplineSet
EndChar

StartChar: gy.ccv.2
Encoding: 149 -1 99
Width: 0
VWidth: 0
Flags: W
AnchorPoint: "Above" 405 0 mark 0
LayerCount: 2
Back
SplineSet
468.131835938 602.198242188 m 29
 707.692382812 326.374023438 l 29
 468.131835938 54.9453125 l 1053
EndSplineSet
Fore
SplineSet
455.017198165 617.298118879 m 1
 470.117074856 630.412756651 l 1
 483.231712629 615.31287996 l 1
 722.792259504 339.48866121 l 2
 729.728762386 331.502139584 728.297318356 319.495811366 722.687368572 313.139583439 c 2
 483.126821697 41.7108725012 l 1
 469.892381698 26.715886742 l 1
 454.897395939 39.9503267408 l 1
 439.90241018 53.1847667396 l 1
 453.136850178 68.1797524988 l 1
 681.110193777 326.479842343 l 1
 453.031959246 589.083604415 l 1
 439.917321474 604.183481106 l 1
 455.017198165 617.298118879 l 1
EndSplineSet
EndChar

StartChar: jy.ccv.2
Encoding: 150 -1 100
Width: 0
VWidth: 0
Flags: W
HStem: 308.571 40<448.132 566.215 612.426 728.791>
VStem: 569.011 40<348.571 622.198>
AnchorPoint: "Above" 405 0 mark 0
LayerCount: 2
Back
SplineSet
708.791015625 328.571289062 m 29
 468.131835938 328.571289062 l 1053
468.131835938 54.9453125 m 21
 536.265625 121.612304688 576.55859375 213.186523438 589.010742188 329.669921875 c 1037
708.791015625 54.9453125 m 21
 632.888671875 120.5234375 604.782226562 217.348632812 589.010742188 329.669921875 c 13
 589.010742188 602.198242188 l 1053
EndSplineSet
Fore
SplineSet
723.924901125 41.869934507 m 1
 710.849523132 26.7360490066 l 1
 695.715637632 39.8114269995 l 1
 696.472331907 39.1576580999 695.715637632 38.8114269995 695.715637632 39.8114269995 c 1
 639.39936263 88.4675756661 608.214828111 152.413909645 589.051189046 224.561570553 c 1
 567.740582805 151.26710816 532.206332634 89.6589284296 482.119259843 40.6501394518 c 1
 482.119259843 39.6501394518 481.404501191 39.9507682565 482.119259843 40.6501394518 c 1
 467.824086795 26.6627155459 l 1
 453.836662889 40.9578885942 l 1
 439.849238983 55.2530616424 l 1
 454.144412032 69.2404855482 l 1
 453.429653379 68.541114353 454.144412032 68.2404855482 454.144412032 69.2404855482 c 1
 513.911852729 127.721241674 551.531484021 206.768014733 566.214762794 308.571289062 c 1
 468.131835938 308.571289062 l 1
 448.131835938 308.571289062 l 1
 448.131835938 328.571289062 l 1
 448.131835938 348.571289062 l 1
 468.131835938 348.571289062 l 1
 569.010742188 348.571289062 l 1
 569.010742188 602.198242188 l 1
 569.010742188 622.198242188 l 1
 589.010742188 622.198242188 l 1
 609.010742188 622.198242188 l 1
 609.010742188 602.198242188 l 1
 609.010742188 348.571289062 l 1
 708.791015625 348.571289062 l 1
 728.791015625 348.571289062 l 1
 728.791015625 328.571289062 l 1
 728.791015625 308.571289062 l 1
 708.791015625 308.571289062 l 1
 612.425852208 308.571289062 l 1
 628.639015425 208.629045754 656.919448839 126.192074793 721.866393618 70.0791980005 c 2
 737.000279118 57.0038200075 l 1
 723.924901125 41.869934507 l 1
EndSplineSet
EndChar

StartChar: uy.ccv.2
Encoding: 152 -1 102
Width: 0
VWidth: 0
Flags: W
HStem: 34.9453 40<447.033 687.692>
VStem: 687.692 40<74.9453 622.198>
AnchorPoint: "Above" 405 0 mark 0
LayerCount: 2
Back
SplineSet
707.692382812 602.198242188 m 29
 707.692382812 54.9453125 l 29
 467.033203125 54.9453125 l 1053
EndSplineSet
Fore
SplineSet
707.692382812 622.198242188 m 1
 727.692382812 622.198242188 l 1
 727.692382812 602.198242188 l 1
 727.692382812 54.9453125 l 2
 727.692382812 42.8392822156 716.276306279 34.9453125 707.692382812 34.9453125 c 2
 467.033203125 34.9453125 l 1
 447.033203125 34.9453125 l 1
 447.033203125 54.9453125 l 1
 447.033203125 74.9453125 l 1
 467.033203125 74.9453125 l 1
 687.692382812 74.9453125 l 1
 687.692382812 602.198242188 l 1
 687.692382812 622.198242188 l 1
 707.692382812 622.198242188 l 1
EndSplineSet
EndChar

StartChar: ly.ccv.2
Encoding: 153 -1 103
Width: 0
VWidth: 0
Flags: W
HStem: 34.9453 40<448.132 687.692> 308.571 40<488.132 687.692> 582.198 40<488.132 727.692>
VStem: 448.132 40<348.571 582.198> 687.692 40<74.9453 308.571>
CounterMasks: 1 e0
AnchorPoint: "Above" 405 0 mark 0
LayerCount: 2
Back
SplineSet
707.692382812 602.198242188 m 29
 468.131835938 602.198242188 l 29
 468.131835938 328.571289062 l 29
 707.692382812 328.571289062 l 29
 707.692382812 54.9453125 l 29
 468.131835938 54.9453125 l 1053
EndSplineSet
Fore
SplineSet
727.692382812 602.198242188 m 1
 727.692382812 582.198242188 l 1
 707.692382812 582.198242188 l 1
 488.131835938 582.198242188 l 1
 488.131835938 348.571289062 l 1
 707.692382812 348.571289062 l 2
 719.798413097 348.571289062 727.692382812 337.155212529 727.692382812 328.571289062 c 2
 727.692382812 54.9453125 l 2
 727.692382812 42.8392822156 716.276306279 34.9453125 707.692382812 34.9453125 c 2
 468.131835938 34.9453125 l 1
 448.131835938 34.9453125 l 1
 448.131835938 54.9453125 l 1
 448.131835938 74.9453125 l 1
 468.131835938 74.9453125 l 1
 687.692382812 74.9453125 l 1
 687.692382812 308.571289062 l 1
 468.131835938 308.571289062 l 2
 459.547912471 308.571289062 448.131835938 316.465258778 448.131835938 328.571289062 c 2
 448.131835938 602.198242188 l 2
 448.131835938 610.782165654 456.025805653 622.198242188 468.131835938 622.198242188 c 2
 707.692382812 622.198242188 l 1
 727.692382812 622.198242188 l 1
 727.692382812 602.198242188 l 1
EndSplineSet
EndChar

StartChar: eibu.ccv
Encoding: 122 -1 104
Width: 0
VWidth: 0
Flags: W
HStem: -114 40<124 728>
VStem: 84 40<-363 -114> 568 40<-266 75> 688 40<-188 -2>
AnchorPoint: "Above" 405 0 mark 0
LayerCount: 2
Back
SplineSet
708 -22 m 25
 708 -168 l 1049
588 55 m 25
 588 -246 l 1049
104 -343 m 25
 104 -94 l 25
 708 -94 l 1049
EndSplineSet
Fore
SplineSet
708 -2 m 1
 728 -2 l 1
 728 -22 l 1
 728 -168 l 1
 728 -188 l 1
 708 -188 l 1
 688 -188 l 1
 688 -168 l 1
 688 -22 l 1
 688 -2 l 1
 708 -2 l 1
588 75 m 1
 608 75 l 1
 608 55 l 1
 608 -246 l 1
 608 -266 l 1
 588 -266 l 1
 568 -266 l 1
 568 -246 l 1
 568 55 l 1
 568 75 l 1
 588 75 l 1
104 -363 m 1
 84 -363 l 1
 84 -343 l 1
 84 -94 l 2
 84 -81.8939697156 95.4160765339 -74 104 -74 c 2
 708 -74 l 1
 728 -74 l 1
 728 -94 l 1
 728 -114 l 1
 708 -114 l 1
 124 -114 l 1
 124 -343 l 1
 124 -363 l 1
 104 -363 l 1
EndSplineSet
EndChar

StartChar: obu.ccv
Encoding: 107 -1 105
Width: 0
VWidth: 0
Flags: W
HStem: -114 40<84 568 608 688>
VStem: 568 40<-266 -114 -74 75> 688 40<-363 -114>
AnchorPoint: "Above" 405 0 mark 0
LayerCount: 2
Back
SplineSet
588 55 m 29
 588 -246 l 1053
708 -343 m 29
 708 -94 l 5
 104 -94 l 1029
EndSplineSet
Fore
SplineSet
708 -363 m 1
 688 -363 l 1
 688 -343 l 1
 688 -114 l 1
 608 -114 l 1
 608 -246 l 1
 608 -266 l 1
 588 -266 l 1
 568 -266 l 1
 568 -246 l 1
 568 -114 l 1
 104 -114 l 1
 84 -114 l 1
 84 -94 l 1
 84 -74 l 1
 104 -74 l 1
 568 -74 l 1
 568 55 l 1
 568 75 l 1
 588 75 l 1
 608 75 l 1
 608 55 l 1
 608 -74 l 1
 708 -74 l 2
 716.583923466 -74 728 -81.8939697156 728 -94 c 2
 728 -343 l 1
 728 -363 l 1
 708 -363 l 1
EndSplineSet
EndChar

StartChar: oibu.ccv
Encoding: 123 -1 106
Width: 0
VWidth: 0
Flags: W
HStem: -114 40<124 568 608 688>
VStem: 84 40<-187 -114 -74 -2> 568 40<-266 -114 -74 75> 688 40<-363 -114>
AnchorPoint: "Above" 406 0 mark 0
LayerCount: 2
Back
SplineSet
104 -167 m 29
 104 -22 l 1053
588 55 m 29
 588 -246 l 1053
104 -94 m 29
 708 -94 l 29
 708 -343 l 1053
EndSplineSet
Fore
SplineSet
588 75 m 1
 608 75 l 1
 608 55 l 1
 608 -74 l 1
 708 -74 l 2
 720.106030284 -74 728 -85.4160765339 728 -94 c 2
 728 -343 l 1
 728 -363 l 1
 708 -363 l 1
 688 -363 l 1
 688 -343 l 1
 688 -114 l 1
 608 -114 l 1
 608 -246 l 1
 608 -266 l 1
 588 -266 l 1
 568 -266 l 1
 568 -246 l 1
 568 -114 l 1
 124 -114 l 1
 124 -167 l 1
 124 -187 l 1
 104 -187 l 1
 84 -187 l 1
 84 -167 l 1
 84 -114 l 1
 84 -94 l 1
 84 -74 l 1
 84 -22 l 1
 84 -2 l 1
 104 -2 l 1
 124 -2 l 1
 124 -22 l 1
 124 -74 l 1
 568 -74 l 1
 568 55 l 1
 568 75 l 1
 588 75 l 1
EndSplineSet
EndChar

StartChar: ybu.ccv
Encoding: 111 -1 107
Width: 0
VWidth: 0
Flags: W
HStem: -114 40<84 568 608 728>
VStem: 568 40<-266 -114 -74 75>
AnchorPoint: "Above" 405 0 mark 0
LayerCount: 2
Back
SplineSet
588 55 m 25
 588 -246 l 1049
104 -94 m 25
 708 -94 l 1049
EndSplineSet
Fore
SplineSet
84 -94 m 1
 84 -74 l 1
 104 -74 l 1
 568 -74 l 1
 568 55 l 1
 568 75 l 1
 588 75 l 1
 608 75 l 1
 608 55 l 1
 608 -74 l 1
 708 -74 l 1
 728 -74 l 1
 728 -94 l 1
 728 -114 l 1
 708 -114 l 1
 608 -114 l 1
 608 -246 l 1
 608 -266 l 1
 588 -266 l 1
 568 -266 l 1
 568 -246 l 1
 568 -114 l 1
 104 -114 l 1
 84 -114 l 1
 84 -94 l 1
EndSplineSet
EndChar

StartChar: ebu.cvc
Encoding: 74 -1 108
Width: 0
VWidth: 0
Flags: W
HStem: 109.67 40<74.949 385.494 425.494 776.044>
VStem: 35 40<-187.996 109.67> 385.494 40<20.7695 109.67 149.67 238.682>
AnchorPoint: "Above" 405 -0 mark 0
LayerCount: 2
Back
SplineSet
405.494140625 218.681640625 m 5
 405.494140625 40.76953125 l 1053
756.043945312 129.669921875 m 5
 54.9453125 129.669921875 l 5
 55 -168 l 1029
EndSplineSet
Fore
SplineSet
776.043945312 129.669921875 m 1
 776.043945312 109.669921875 l 1
 756.043945312 109.669921875 l 1
 425.494140625 109.669921875 l 1
 425.494140625 40.76953125 l 1
 425.494140625 20.76953125 l 1
 405.494140625 20.76953125 l 1
 385.494140625 20.76953125 l 1
 385.494140625 40.76953125 l 1
 385.494140625 109.669921875 l 1
 74.9489872094 109.669921875 l 1
 74.9999996625 -167.996325628 l 1
 75.0036740343 -187.996325291 l 1
 55.0036743719 -187.999999662 l 1
 35.0036747094 -188.003674034 l 1
 35.0000003375 -168.003674372 l 1
 34.9453128375 129.666247503 l 2
 34.9437345623 138.256968593 42.8404655918 149.669921875 54.9453125 149.669921875 c 2
 385.494140625 149.669921875 l 1
 385.494140625 218.681640625 l 1
 385.494140625 238.681640625 l 1
 405.494140625 238.681640625 l 1
 425.494140625 238.681640625 l 1
 425.494140625 218.681640625 l 1
 425.494140625 149.669921875 l 1
 756.043945312 149.669921875 l 1
 776.043945312 149.669921875 l 1
 776.043945312 129.669921875 l 1
EndSplineSet
EndChar

StartChar: obu.cvc
Encoding: 75 -1 109
Width: 0
VWidth: 0
Flags: W
HStem: 110 40<34 384.419 424.581 735.067>
VStem: 384.419 40.0003<-12.9185 110 150 252.919 253.081 272.919> 736.067 39.9998<-187.933 110>
AnchorPoint: "Above" 405 -1 mark 0
LayerCount: 2
Back
SplineSet
405 253 m 29
 404 7 l 1053
54 130 m 29
 755 130 l 5
 756 -168 l 1053
EndSplineSet
Fore
SplineSet
34 130 m 1
 34 150 l 1
 54 150 l 1
 384.581135568 150 l 1
 385.000165244 253.081300141 l 1
 385.000165244 252.081300141 385.004230251 254.081291879 385.000165244 253.081300141 c 1
 385.081465385 273.081134898 l 1
 405.081300141 272.999834756 l 1
 425.081134898 272.918534615 l 1
 424.999834756 252.918699859 l 1
 425.003899764 253.918691597 424.999834756 253.918699859 424.999834756 252.918699859 c 1
 424.581466058 150 l 1
 755 150 l 2
 766.386154785 150 774.966678804 139.963273484 774.999887393 130.067113716 c 2
 775.999887393 -167.932886284 l 1
 776.067001109 -187.932773677 l 1
 756.067113716 -187.999887393 l 1
 736.067226323 -188.067001109 l 1
 736.000112607 -168.067113716 l 1
 735.067001487 110 l 1
 424.418864432 110 l 1
 423.999834756 6.91869985871 l 1
 423.918534615 -13.0811348978 l 1
 403.918699859 -12.9998347565 l 1
 383.918865102 -12.9185346152 l 1
 384.000165244 7.08130014129 l 1
 384.418533942 110 l 1
 54 110 l 1
 34 110 l 1
 34 130 l 1
EndSplineSet
EndChar

StartChar: ibu.cvc
Encoding: 76 -1 110
Width: 0
VWidth: 0
Flags: W
HStem: 110 40<74.0672 778>
VStem: 35.0001 39.9998<-187.933 110>
AnchorPoint: "Above" 405 0 mark 0
LayerCount: 2
Back
SplineSet
758 130 m 29
 54 130 l 29
 55 -168 l 1053
EndSplineSet
Fore
SplineSet
33.9893673233 133.134980713 m 2
 36.9361003335 142.204044976 45.4328672605 150 54 150 c 2
 758 150 l 1
 778 150 l 1
 778 130 l 1
 778 110 l 1
 758 110 l 1
 74.0672267012 110 l 1
 74.9998873934 -167.932886284 l 1
 75.0670011095 -187.932773677 l 1
 55.0671137161 -187.999887393 l 1
 35.0672263227 -188.067001109 l 1
 35.0001126066 -168.067113716 l 1
 33.9893673233 133.134980713 l 2
EndSplineSet
EndChar

StartChar: ubu.cvc
Encoding: 77 -1 111
Width: 0
VWidth: 0
Flags: W
HStem: 110 40<36 736.933>
VStem: 736 39.9998<-187.933 110>
AnchorPoint: "Above" 405 0 mark 0
LayerCount: 2
Back
SplineSet
56 130 m 29
 757 130 l 29
 756 -168 l 1053
EndSplineSet
Fore
SplineSet
36 130 m 1
 36 150 l 1
 56 150 l 1
 757 150 l 2
 769.084235403 150 777.029109019 138.640930593 776.999887393 129.932886284 c 2
 775.999887393 -168.067113716 l 1
 775.932773677 -188.067001109 l 1
 755.932886284 -187.999887393 l 1
 735.932998891 -187.932773677 l 1
 736.000112607 -167.932886284 l 1
 736.932773299 110 l 1
 56 110 l 1
 36 110 l 1
 36 130 l 1
EndSplineSet
EndChar

StartChar: abu.cvc
Encoding: 78 -1 112
Width: 0
VWidth: 0
Flags: W
HStem: 110 40<35 775>
AnchorPoint: "Above" 405 0 mark 0
LayerCount: 2
Back
SplineSet
55 130 m 29
 755 130 l 1053
EndSplineSet
Fore
SplineSet
35 130 m 1
 35 150 l 1
 55 150 l 1
 755 150 l 1
 775 150 l 1
 775 130 l 1
 775 110 l 1
 755 110 l 1
 55 110 l 1
 35 110 l 1
 35 130 l 1
EndSplineSet
EndChar

StartChar: ybu.cvc
Encoding: 79 -1 113
Width: 0
VWidth: 0
Flags: W
HStem: 110 40<36 385 425 777>
VStem: 385 40<-13 110 150 273>
AnchorPoint: "Above" 405 0 mark 0
LayerCount: 2
Back
SplineSet
405 253 m 29
 405 7 l 1053
56 130 m 29
 757 130 l 1053
EndSplineSet
Fore
SplineSet
36 130 m 1
 36 150 l 1
 56 150 l 1
 385 150 l 1
 385 253 l 1
 385 273 l 1
 405 273 l 1
 425 273 l 1
 425 253 l 1
 425 150 l 1
 757 150 l 1
 777 150 l 1
 777 130 l 1
 777 110 l 1
 757 110 l 1
 425 110 l 1
 425 7 l 1
 425 -13 l 1
 405 -13 l 1
 385 -13 l 1
 385 7 l 1
 385 110 l 1
 56 110 l 1
 36 110 l 1
 36 130 l 1
EndSplineSet
EndChar

StartChar: eibu.cvc
Encoding: 90 -1 114
Width: 0
VWidth: 0
Flags: W
HStem: 109 41<75 384.419 424.583 736>
VStem: 35 40<-188 109> 384.583 40<-12.9185 109.433 150 252.919 253.081 272.919> 736 40<10 109.998 150 241>
AnchorPoint: "Above" 405 0 mark 0
LayerCount: 2
Back
SplineSet
756 221 m 29
 756 30 l 1053
404 253 m 29
 405 7 l 1053
55 -168 m 29
 55 130 l 29
 755 130 l 1053
EndSplineSet
Fore
SplineSet
55 -188 m 1
 35 -188 l 1
 35 -168 l 1
 35 130 l 2
 35 142.106030284 46.4160765339 150 55 150 c 2
 384.418533942 150 l 1
 384.000165244 252.918699859 l 1
 384.000165244 253.918699859 383.996100236 253.918691597 384.000165244 252.918699859 c 1
 383.918865102 272.918534615 l 1
 403.918699859 272.999834756 l 1
 423.918534615 273.081134898 l 1
 423.999834756 253.081300141 l 1
 423.995769749 254.081291879 423.999834756 252.081300141 423.999834756 253.081300141 c 1
 424.418864432 150 l 1
 736 150 l 1
 736 221 l 1
 736 241 l 1
 756 241 l 1
 776 241 l 1
 776 221 l 1
 776 30 l 1
 776 10 l 1
 756 10 l 1
 736 10 l 1
 736 30 l 1
 736 109.9977015 l 1
 632.194470889 109.972824382 528.388941778 109.749935145 424.583412666 109.521134282 c 1
 424.999834756 7.08130014129 l 1
 425.081134898 -12.9185346152 l 1
 405.081300141 -12.9998347565 l 1
 385.081465385 -13.0811348978 l 1
 385.000165244 6.91869985871 l 1
 384.583440106 109.433083639 l 1
 281.388960071 109.207270559 178.194480035 109 75 109 c 1
 75 -168 l 1
 75 -188 l 1
 55 -188 l 1
EndSplineSet
EndChar

StartChar: oibu.cvc
Encoding: 91 -1 115
Width: 0
VWidth: 0
Flags: W
HStem: 109.437 40.5626<75 384 424 736>
VStem: 35 40<7 109.997 150 241> 384 40<-13 109.437 150 273> 736 40<-188 109>
AnchorPoint: "Above" 405 0 mark 0
LayerCount: 2
Back
SplineSet
55 221 m 29
 55 27 l 1053
404 253 m 29
 404 7 l 1053
756 -168 m 29
 756 130 l 5
 55 130 l 1053
EndSplineSet
Fore
SplineSet
756 -188 m 1
 736 -188 l 1
 736 -168 l 1
 736 109 l 1
 632 109 528 109.209901221 424 109.437371266 c 1
 424 7 l 1
 424 -13 l 1
 404 -13 l 1
 384 -13 l 1
 384 7 l 1
 384 109.525320765 l 1
 281 109.751934225 178 109.971594184 75 109.997463122 c 1
 75 27 l 1
 75 7 l 1
 55 7 l 1
 35 7 l 1
 35 27 l 1
 35 110 l 1
 35 130 l 1
 35 150 l 1
 35 221 l 1
 35 241 l 1
 55 241 l 1
 75 241 l 1
 75 221 l 1
 75 150 l 1
 384 150 l 1
 384 253 l 1
 384 273 l 1
 404 273 l 1
 424 273 l 1
 424 253 l 1
 424 150 l 1
 756 150 l 2
 764.583923466 150 776 142.106030284 776 130 c 2
 776 -168 l 1
 776 -188 l 1
 756 -188 l 1
EndSplineSet
EndChar

StartChar: aibu.cvc
Encoding: 92 -1 116
Width: 0
VWidth: 0
Flags: W
HStem: 109 41<75 736>
VStem: 35 40<-188 109> 736 40<10 109.998 150 243>
AnchorPoint: "Above" 405 0 mark 0
LayerCount: 2
Back
SplineSet
756 30 m 29
 756 223 l 1053
55 -168 m 29
 55 130 l 29
 755 130 l 1053
EndSplineSet
Fore
SplineSet
55 -188 m 1
 35 -188 l 1
 35 -168 l 1
 35 130 l 2
 35 142.106030284 46.4160765339 150 55 150 c 2
 736 150 l 1
 736 223 l 1
 736 243 l 1
 756 243 l 1
 776 243 l 1
 776 223 l 1
 776 30 l 1
 776 10 l 1
 756 10 l 1
 736 10 l 1
 736 30 l 1
 736 109.9977015 l 1
 515.666666667 109.944898356 295.333333333 109 75 109 c 1
 75 -168 l 1
 75 -188 l 1
 55 -188 l 1
EndSplineSet
EndChar

StartChar: aubu.cvc
Encoding: 93 -1 117
Width: 0
VWidth: 0
Flags: W
HStem: 110 40<75 735.067>
VStem: 35 40<11 110 150 242> 736.067 39.9998<-187.933 110>
AnchorPoint: "Above" 405 0 mark 0
LayerCount: 2
Back
SplineSet
55 222 m 29
 55 31 l 1053
55 130 m 29
 755 130 l 29
 756 -168 l 1053
EndSplineSet
Fore
SplineSet
55 242 m 1
 75 242 l 1
 75 222 l 1
 75 150 l 1
 755 150 l 2
 766.386154785 150 774.966678804 139.963273484 774.999887393 130.067113716 c 2
 775.999887393 -167.932886284 l 1
 776.067001109 -187.932773677 l 1
 756.067113716 -187.999887393 l 1
 736.067226323 -188.067001109 l 1
 736.000112607 -168.067113716 l 1
 735.067001487 110 l 1
 75 110 l 1
 75 31 l 1
 75 11 l 1
 55 11 l 1
 35 11 l 1
 35 31 l 1
 35 110 l 1
 35 130 l 1
 35 150 l 1
 35 222 l 1
 35 242 l 1
 55 242 l 1
EndSplineSet
EndChar

StartChar: my.cvc.3
Encoding: 64 -1 118
Width: 0
VWidth: 0
Flags: W
HStem: -362.857 40<184.835 626.154> -188.132 40<184.835 626.154> -13.4062 40<184.835 626.154>
VStem: 144.835 40<-322.857 -188.132 -148.132 -13.4062> 626.154 40<-322.857 -188.132 -148.132 -13.4062>
CounterMasks: 1 e0
AnchorPoint: "Above" 405 0 mark 0
LayerCount: 2
Back
SplineSet
164.834960938 6.59375 m 1
 646.154296875 6.59375 l 1
 646.154296875 -342.857421875 l 1
 164.834960938 -342.857421875 l 1
 164.834960938 6.59375 l 1
164.834960938 -168.131835938 m 1
 646.154296875 -168.131835938 l 1025
EndSplineSet
Fore
SplineSet
164.834960938 26.59375 m 2
 646.154296875 26.59375 l 2
 658.260327159 26.59375 666.154296875 15.1776734661 666.154296875 6.59375 c 2
 666.154296875 -148.131835938 l 1
 666.154296875 -168.131835938 l 1
 666.154296875 -188.131835938 l 1
 666.154296875 -342.857421875 l 2
 666.154296875 -354.963452159 654.738220341 -362.857421875 646.154296875 -362.857421875 c 2
 164.834960938 -362.857421875 l 2
 152.728930653 -362.857421875 144.834960938 -351.441345341 144.834960938 -342.857421875 c 2
 144.834960938 -188.131835938 l 1
 144.834960938 -168.131835938 l 1
 144.834960938 -148.131835938 l 1
 144.834960938 6.59375 l 2
 144.834960938 18.6997802844 156.251037471 26.59375 164.834960938 26.59375 c 2
626.154296875 -148.131835938 m 1
 626.154296875 -13.40625 l 1
 184.834960938 -13.40625 l 1
 184.834960938 -148.131835938 l 1
 626.154296875 -148.131835938 l 1
626.154296875 -188.131835938 m 1
 184.834960938 -188.131835938 l 1
 184.834960938 -322.857421875 l 1
 626.154296875 -322.857421875 l 1
 626.154296875 -188.131835938 l 1
EndSplineSet
EndChar

StartChar: ibu.ccv
Encoding: 108 -1 119
Width: 0
VWidth: 0
Flags: W
HStem: -114 40<124 728>
VStem: 84 40<-363 -114>
AnchorPoint: "Above" 405 0 mark 0
LayerCount: 2
Back
SplineSet
708 -94 m 29
 104 -94 l 29
 104 -343 l 1053
EndSplineSet
Fore
SplineSet
728 -94 m 1
 728 -114 l 1
 708 -114 l 1
 124 -114 l 1
 124 -343 l 1
 124 -363 l 1
 104 -363 l 1
 84 -363 l 1
 84 -343 l 1
 84 -94 l 2
 84 -85.4160765339 91.8939697156 -74 104 -74 c 2
 708 -74 l 1
 728 -74 l 1
 728 -94 l 1
EndSplineSet
EndChar

StartChar: ubu.ccv
Encoding: 109 -1 120
Width: 0
VWidth: 0
Flags: W
HStem: -114 40<84 688>
VStem: 688 40<-363 -114>
AnchorPoint: "Above" 405 0 mark 0
LayerCount: 2
Back
SplineSet
104 -94 m 29
 708 -94 l 29
 708 -343 l 1053
EndSplineSet
Fore
SplineSet
84 -94 m 1
 84 -74 l 1
 104 -74 l 1
 708 -74 l 2
 720.106030284 -74 728 -85.4160765339 728 -94 c 2
 728 -343 l 1
 728 -363 l 1
 708 -363 l 1
 688 -363 l 1
 688 -343 l 1
 688 -114 l 1
 104 -114 l 1
 84 -114 l 1
 84 -94 l 1
EndSplineSet
EndChar

StartChar: abu.ccv
Encoding: 110 -1 121
Width: 0
VWidth: 0
Flags: W
HStem: -114 40<84 728>
AnchorPoint: "Above" 405 0 mark 0
LayerCount: 2
Back
SplineSet
104 -94 m 29
 708 -94 l 1053
EndSplineSet
Fore
SplineSet
84 -94 m 1
 84 -74 l 1
 104 -74 l 1
 708 -74 l 1
 728 -74 l 1
 728 -94 l 1
 728 -114 l 1
 708 -114 l 1
 104 -114 l 1
 84 -114 l 1
 84 -94 l 1
EndSplineSet
EndChar

StartChar: aibu.ccv
Encoding: 124 -1 122
Width: 0
VWidth: 0
Flags: W
HStem: -114 40<124 688>
VStem: 84 40<-363 -114> 688 40<-188 -114 -74 -2>
AnchorPoint: "Above" 405 0 mark 0
LayerCount: 2
Back
SplineSet
708 -168 m 29
 708 -22 l 1053
708 -94 m 29
 104 -94 l 29
 104 -343 l 1053
EndSplineSet
Fore
SplineSet
708 -188 m 1
 688 -188 l 1
 688 -168 l 1
 688 -114 l 1
 124 -114 l 1
 124 -343 l 1
 124 -363 l 1
 104 -363 l 1
 84 -363 l 1
 84 -343 l 1
 84 -94 l 2
 84 -85.4160765339 91.8939697156 -74 104 -74 c 2
 688 -74 l 1
 688 -22 l 1
 688 -2 l 1
 708 -2 l 1
 728 -2 l 1
 728 -22 l 1
 728 -74 l 1
 728 -94 l 1
 728 -114 l 1
 728 -168 l 1
 728 -188 l 1
 708 -188 l 1
EndSplineSet
EndChar

StartChar: aubu.ccv
Encoding: 125 -1 123
Width: 0
VWidth: 0
Flags: WO
HStem: -114 40<124 688>
VStem: 84 40<-188 -114 -74 -2> 688 40<-363 -114>
AnchorPoint: "Above" 405 0 mark 0
LayerCount: 2
Back
SplineSet
104 -168 m 29
 104 -22 l 1053
104 -94 m 29
 708 -94 l 29
 708 -343 l 1053
EndSplineSet
Fore
SplineSet
104 -188 m 1
 84 -188 l 1
 84 -168 l 1
 84 -114 l 1
 84 -94 l 1
 84 -74 l 1
 84 -22 l 1
 84 -2 l 1
 104 -2 l 1
 124 -2 l 1
 124 -22 l 1
 124 -74 l 1
 708 -74 l 2
 720.106030284 -74 728 -85.4160765339 728 -94 c 2
 728 -343 l 1
 728 -363 l 1
 708 -363 l 1
 688 -363 l 1
 688 -343 l 1
 688 -114 l 1
 124 -114 l 1
 124 -168 l 1
 124 -188 l 1
 104 -188 l 1
EndSplineSet
EndChar

StartChar: vy.cvc.3
Encoding: 68 -1 124
Width: 0
VWidth: 0
Flags: W
HStem: -188.132 40<232.894 626.154> -13.4062 40<252.981 626.154>
VStem: 626.154 40<-362.857 -188.132 -148.132 -13.4062>
AnchorPoint: "Above" 405 0 mark 0
LayerCount: 2
Back
SplineSet
227.47265625 -168.131835938 m 29
 642.857421875 -168.131835938 l 1053
646.154296875 -342.857421875 m 29
 646.154296875 6.59375 l 29
 236.263671875 6.59375 l 21
 224.731445312 -160.540039062 187.876953125 -231.000976562 120.87890625 -342.857421875 c 1037
EndSplineSet
Fore
SplineSet
646.154296875 -362.857421875 m 1
 626.154296875 -362.857421875 l 1
 626.154296875 -342.857421875 l 1
 626.154296875 -188.131835938 l 1
 227.47265625 -188.131835938 l 1
 220.740358804 -188.131835938 l 1
 200.842628343 -245.713198499 173.339885774 -294.193742007 138.036597602 -353.134270976 c 2
 127.759748501 -370.291962329 l 1
 110.602057149 -360.015113227 l 1
 93.4443657961 -349.738264126 l 1
 103.721214898 -332.580572774 l 2
 170.501462458 -221.087753839 204.969151372 -156.405841865 216.311112503 7.97047601374 c 0
 216.935061333 17.0132165122 225.229263063 26.59375 236.263671875 26.59375 c 2
 646.154296875 26.59375 l 2
 654.738220341 26.59375 666.154296875 18.6997802844 666.154296875 6.59375 c 2
 666.154296875 -342.857421875 l 1
 666.154296875 -362.857421875 l 1
 646.154296875 -362.857421875 l 1
626.154296875 -148.131835938 m 1
 626.154296875 -13.40625 l 1
 254.795916218 -13.40625 l 1
 250.304342045 -66.3658815724 243.018717173 -109.774348999 232.894056917 -148.131835938 c 1
 626.154296875 -148.131835938 l 1
EndSplineSet
EndChar

StartChar: py.cvc.3
Encoding: 65 -1 125
Width: 0
VWidth: 0
Flags: W
HStem: -362.857 40<184.835 666.154> -188.132 40<184.835 665.055> -13.4062 40<184.835 666.154>
VStem: 144.835 40<-322.857 -188.132 -148.132 -13.4062>
CounterMasks: 1 e0
AnchorPoint: "Above" 405 0 mark 0
LayerCount: 2
Back
SplineSet
164.834960938 -168.131835938 m 5
 645.0546875 -168.131835938 l 1029
646.154296875 -342.857421875 m 5
 164.834960938 -342.857421875 l 5
 164.834960938 6.59375 l 5
 646.154296875 6.59375 l 1029
EndSplineSet
Fore
SplineSet
666.154296875 -342.857421875 m 1
 666.154296875 -362.857421875 l 1
 646.154296875 -362.857421875 l 1
 164.834960938 -362.857421875 l 2
 152.728930653 -362.857421875 144.834960938 -351.441345341 144.834960938 -342.857421875 c 2
 144.834960938 -188.131835938 l 1
 144.834960938 -168.131835938 l 1
 144.834960938 -148.131835938 l 1
 144.834960938 6.59375 l 2
 144.834960938 18.6997802844 156.251037471 26.59375 164.834960938 26.59375 c 2
 646.154296875 26.59375 l 1
 666.154296875 26.59375 l 1
 666.154296875 6.59375 l 1
 666.154296875 -13.40625 l 1
 646.154296875 -13.40625 l 1
 184.834960938 -13.40625 l 1
 184.834960938 -148.131835938 l 1
 645.0546875 -148.131835938 l 1
 665.0546875 -148.131835938 l 1
 665.0546875 -168.131835938 l 1
 665.0546875 -188.131835938 l 1
 645.0546875 -188.131835938 l 1
 184.834960938 -188.131835938 l 1
 184.834960938 -322.857421875 l 1
 646.154296875 -322.857421875 l 1
 666.154296875 -322.857421875 l 1
 666.154296875 -342.857421875 l 1
EndSplineSet
EndChar

StartChar: by.cvc.3
Encoding: 66 -1 126
Width: 0
VWidth: 0
Flags: W
HStem: -362.857 40<144.835 626.154> -188.132 40<145.934 626.154> -13.4062 40<144.835 626.154>
VStem: 626.154 40<-322.857 -188.132 -148.132 -13.4062>
CounterMasks: 1 e0
AnchorPoint: "Above" 405 0 mark 0
LayerCount: 2
Back
SplineSet
646.154296875 -168.131835938 m 5
 165.93359375 -168.131835938 l 1029
164.834960938 6.59375 m 5
 646.154296875 6.59375 l 5
 646.154296875 -342.857421875 l 5
 164.834960938 -342.857421875 l 1029
EndSplineSet
Fore
SplineSet
144.834960938 6.59375 m 1
 144.834960938 26.59375 l 1
 164.834960938 26.59375 l 1
 646.154296875 26.59375 l 2
 658.260327159 26.59375 666.154296875 15.1776734661 666.154296875 6.59375 c 2
 666.154296875 -148.131835938 l 1
 666.154296875 -168.131835938 l 1
 666.154296875 -188.131835938 l 1
 666.154296875 -342.857421875 l 2
 666.154296875 -354.963452159 654.738220341 -362.857421875 646.154296875 -362.857421875 c 2
 164.834960938 -362.857421875 l 1
 144.834960938 -362.857421875 l 1
 144.834960938 -342.857421875 l 1
 144.834960938 -322.857421875 l 1
 164.834960938 -322.857421875 l 1
 626.154296875 -322.857421875 l 1
 626.154296875 -188.131835938 l 1
 165.93359375 -188.131835938 l 1
 145.93359375 -188.131835938 l 1
 145.93359375 -168.131835938 l 1
 145.93359375 -148.131835938 l 1
 165.93359375 -148.131835938 l 1
 626.154296875 -148.131835938 l 1
 626.154296875 -13.40625 l 1
 164.834960938 -13.40625 l 1
 144.834960938 -13.40625 l 1
 144.834960938 6.59375 l 1
EndSplineSet
EndChar

StartChar: fy.cvc.3
Encoding: 67 -1 127
Width: 0
VWidth: 0
Flags: W
HStem: -362.857 40<184.835 558.009> -188.132 40<184.835 578.095>
VStem: 144.835 40<-322.857 -188.132 -148.132 26.5938>
AnchorPoint: "Above" 405 0 mark 0
LayerCount: 2
Back
SplineSet
583.516601562 -168.131835938 m 29
 168.131835938 -168.131835938 l 1053
164.834960938 6.59375 m 29
 164.834960938 -342.857421875 l 29
 574.725585938 -342.857421875 l 21
 586.256835938 -175.723632812 623.112304688 -105.262695312 690.110351562 6.59375 c 1037
EndSplineSet
Fore
SplineSet
164.834960938 26.59375 m 1
 184.834960938 26.59375 l 1
 184.834960938 6.59375 l 1
 184.834960938 -148.131835938 l 1
 583.516601562 -148.131835938 l 1
 590.248529105 -148.131835938 l 1
 610.146390112 -90.5504368036 637.649414175 -42.069859518 672.95266021 16.8705991014 c 2
 683.229509311 34.0282904539 l 1
 700.387200664 23.7514413525 l 1
 717.544892016 13.474592251 l 1
 707.268042915 -3.68309910143 l 2
 640.4877381 -115.176013625 606.019143711 -179.857863045 594.678153315 -344.234031858 c 0
 594.054243673 -353.276970181 585.759966621 -362.857421875 574.725585938 -362.857421875 c 2
 164.834960938 -362.857421875 l 2
 156.251037471 -362.857421875 144.834960938 -354.963452159 144.834960938 -342.857421875 c 2
 144.834960938 6.59375 l 1
 144.834960938 26.59375 l 1
 164.834960938 26.59375 l 1
184.834960938 -188.131835938 m 1
 184.834960938 -322.857421875 l 1
 556.193240275 -322.857421875 l 1
 560.684538261 -269.897814874 567.970092256 -226.489339514 578.094777759 -188.131835938 c 1
 184.834960938 -188.131835938 l 1
EndSplineSet
EndChar

StartChar: ky.cvc.3
Encoding: 69 -1 128
Width: 0
VWidth: 0
Flags: W
AnchorPoint: "Above" 405 0 mark 0
LayerCount: 2
Back
SplineSet
646.154296875 6.59375 m 29
 164.834960938 -168.131835938 l 29
 646.154296875 -342.857421875 l 1053
EndSplineSet
Fore
SplineSet
664.953921129 13.418274007 m 1
 671.778445136 -5.38135024668 l 1
 652.978820882 -12.2058742536 l 1
 223.447107307 -168.131835938 l 1
 652.978820882 -324.057797621 l 1
 671.778445136 -330.882321628 l 1
 664.953921129 -349.681945882 l 1
 658.129397122 -368.481570136 l 1
 639.329772868 -361.657046129 l 1
 158.010436931 -186.931460191 l 2
 153.170668044 -185.174557047 148.851645467 -181.299020177 146.62871894 -176.410287021 c 0
 141.870131521 -165.945045003 147.204109206 -153.255058332 158.010436931 -149.332211684 c 2
 639.329772868 25.3933742536 l 1
 639.329772868 24.3933742536 640.269754081 25.734600454 639.329772868 25.3933742536 c 1
 658.129397122 32.2178982606 l 1
 664.953921129 13.418274007 l 1
EndSplineSet
EndChar

StartChar: cy.cvc.3
Encoding: 70 -1 129
Width: 0
VWidth: 0
Flags: W
HStem: -188.132 40<147.033 359.004 451.288 667.253> -12.5381 38.2636<597.43 662.168>
VStem: 386.263 39.9944<-362.521 -257.259 -257.255 -189.313>
AnchorPoint: "Above" 405 0 mark 0
LayerCount: 2
Back
SplineSet
167.033203125 -168.131835938 m 5
 647.252929688 -168.131835938 l 1029
407.692382812 -276.922851562 m 5
 406.59375 -342.857421875 l 1029
167.033203125 6.59375 m 5
 246.76171875 -27.6767578125 403.484375 -58.4140625 407.692382812 -276.922851562 c 5
 403.9140625 -66.8955078125 548.140625 -23.9365234375 648.3515625 6.59375 c 1029
EndSplineSet
Fore
SplineSet
148.658752869 14.49182431 m 1
 156.556827179 32.8662745656 l 1
 174.931277435 24.9682002555 l 1
 174.012554922 25.363103971 174.931277435 23.9682002555 174.931277435 24.9682002555 c 1
 233.218744434 -0.0860865012813 350.910754123 -27.1487901061 402.766194875 -148.131835938 c 1
 408.088767803 -148.131835938 l 1
 454.248532706 -29.8656624358 566.606492836 2.59687451151 642.522862674 25.72556273 c 2
 661.654675404 31.5542625563 l 1
 667.48337523 12.4224498263 l 1
 673.312075056 -6.70936290366 l 1
 654.180262326 -12.53806273 l 2
 580.99261687 -34.8354175273 492.730959638 -60.4868927177 451.287549235 -148.131835938 c 1
 647.252929688 -148.131835938 l 1
 667.252929688 -148.131835938 l 1
 667.252929688 -168.131835938 l 1
 667.252929688 -188.131835938 l 1
 647.252929688 -188.131835938 l 1
 436.962529316 -188.131835938 l 1
 431.716026956 -208.452881828 428.508829978 -231.355671416 427.778489889 -257.254759536 c 1
 427.85992998 -257.254759536 427.941370072 -257.258830516 428.022810164 -257.258830516 c 2
 427.689607011 -277.256054715 l 1
 426.590974199 -343.190625027 l 1
 426.257771047 -363.187849226 l 1
 406.260546848 -362.854646074 l 1
 386.263322649 -362.521442922 l 1
 386.596525801 -342.524218723 l 1
 387.689109078 -276.952711968 l 2
 386.999571897 -242.560244195 382.455614737 -213.256727817 374.974004584 -188.131835938 c 1
 167.033203125 -188.131835938 l 1
 147.033203125 -188.131835938 l 1
 147.033203125 -168.131835938 l 1
 147.033203125 -148.131835938 l 1
 167.033203125 -148.131835938 l 1
 359.004253814 -148.131835938 l 1
 312.714050636 -58.4588754692 220.68411112 -38.2369168603 159.135128815 -11.7807002555 c 1
 159.135128815 -10.7807002555 158.216406302 -11.38579654 159.135128815 -11.7807002555 c 1
 140.760678559 -3.88262594554 l 1
 148.658752869 14.49182431 l 1
EndSplineSet
EndChar

StartChar: xy.cvc.3
Encoding: 71 -1 130
Width: 0
VWidth: 0
Flags: W
HStem: -12.6807 38.5488<583.631 660.727>
VStem: 385.494 40<-362.857 -136.603>
AnchorPoint: "Above" 405 0 mark 0
LayerCount: 2
Back
SplineSet
405.494140625 -232.966796875 m 5
 405.494140625 -342.857421875 l 1029
164.834960938 6.59375 m 5
 249.120117188 -24.5751953125 401.045898438 -34.232421875 405.494140625 -232.966796875 c 5
 401.715820312 -42.033203125 545.942382812 -21.1611328125 646.154296875 6.59375 c 1029
EndSplineSet
Fore
SplineSet
146.076524724 13.5306852623 m 1
 153.013459987 32.2891214756 l 1
 171.7718962 25.3521862133 l 1
 170.833974389 25.6990329764 171.7718962 26.3521862133 171.7718962 25.3521862133 c 1
 233.044664325 2.69330244528 353.287888 -10.1669722217 403.589656719 -123.019952654 c 1
 448.871981222 -13.1332732493 565.761158939 5.08082046167 640.8160201 25.8681579306 c 2
 660.090428031 31.2064347054 l 1
 665.428704806 11.9320267748 l 1
 670.76698158 -7.34238115585 l 1
 651.49257365 -12.6806579306 l 2
 550.295216469 -40.7084709482 428.917151471 -56.6713863993 425.494140625 -218.472104785 c 2
 425.494140625 -232.966796875 l 1
 425.494140625 -342.857421875 l 1
 425.494140625 -362.857421875 l 1
 405.494140625 -362.857421875 l 1
 385.494140625 -362.857421875 l 1
 385.494140625 -342.857421875 l 1
 385.494140625 -233.193457747 l 1
 381.286500944 -49.9556747657 248.851600931 -45.7996361766 157.898025675 -12.1646862133 c 2
 139.139589462 -5.22775095096 l 1
 146.076524724 13.5306852623 l 1
EndSplineSet
EndChar

StartChar: iy.cvc.3
Encoding: 72 -1 131
Width: 0
VWidth: 0
Flags: W
HStem: -362.857 40<184.835 666.154>
VStem: 144.835 40<-322.857 26.5938>
AnchorPoint: "Above" 405 0 mark 0
LayerCount: 2
Back
SplineSet
164.834960938 6.59375 m 29
 164.834960938 -342.857421875 l 29
 646.154296875 -342.857421875 l 1053
EndSplineSet
Fore
SplineSet
164.834960938 26.59375 m 1
 184.834960938 26.59375 l 1
 184.834960938 6.59375 l 1
 184.834960938 -322.857421875 l 1
 646.154296875 -322.857421875 l 1
 666.154296875 -322.857421875 l 1
 666.154296875 -342.857421875 l 1
 666.154296875 -362.857421875 l 1
 646.154296875 -362.857421875 l 1
 164.834960938 -362.857421875 l 2
 156.251037471 -362.857421875 144.834960938 -354.963452159 144.834960938 -342.857421875 c 2
 144.834960938 6.59375 l 1
 144.834960938 26.59375 l 1
 164.834960938 26.59375 l 1
EndSplineSet
EndChar

StartChar: ry.cvc.3
Encoding: 73 -1 132
Width: 0
VWidth: 0
Flags: W
AnchorPoint: "Above" 405 0 mark 0
LayerCount: 2
Back
SplineSet
164.834960938 -342.857421875 m 5
 646.154296875 6.59375 l 1029
164.834960938 6.59375 m 5
 646.154296875 -342.857421875 l 1029
EndSplineSet
Fore
SplineSet
148.650659828 18.344000959 m 1
 160.400910787 34.5283020684 l 1
 176.585211896 22.7780511094 l 1
 175.775996841 23.3655636574 176.585211896 21.7780511094 176.585211896 22.7780511094 c 1
 405.494628906 -143.416527115 l 1
 634.404045879 22.7780510829 l 1
 650.588347025 34.5283020684 l 1
 662.338597984 18.344000959 l 1
 674.088848943 2.15969984953 l 1
 657.904547834 -9.59055110944 l 1
 439.536455025 -168.131835938 l 1
 657.904547834 -326.673120766 l 1
 674.088848943 -338.423371725 l 1
 662.338597984 -354.607672834 l 1
 650.588347025 -370.791973943 l 1
 634.404045916 -359.041722984 l 1
 405.494628906 -192.84714476 l 1
 176.585211896 -359.041722984 l 1
 160.400910787 -370.791973943 l 1
 148.650659828 -354.607672834 l 1
 136.900408869 -338.423371725 l 1
 153.084709979 -326.673120766 l 1
 371.452802787 -168.131835937 l 1
 153.084709979 -9.59055110944 l 1
 136.900408869 2.15969984953 l 1
 148.650659828 18.344000959 l 1
EndSplineSet
EndChar

StartChar: ny.cvc.3
Encoding: 80 -1 133
Width: 0
VWidth: 0
Flags: W
HStem: -362.857 40<184.835 626.154> -13.4062 40<184.835 626.154>
VStem: 144.835 40<-322.857 -13.4062> 626.154 40<-322.857 -13.4062>
AnchorPoint: "Above" 405 0 mark 0
LayerCount: 2
Back
SplineSet
164.834960938 6.59375 m 5
 646.154296875 6.59375 l 5
 646.154296875 -342.857421875 l 5
 164.834960938 -342.857421875 l 5
 164.834960938 6.59375 l 5
EndSplineSet
Fore
SplineSet
164.834960938 26.59375 m 2
 646.154296875 26.59375 l 2
 658.260327159 26.59375 666.154296875 15.1776734661 666.154296875 6.59375 c 2
 666.154296875 -342.857421875 l 2
 666.154296875 -354.963452159 654.738220341 -362.857421875 646.154296875 -362.857421875 c 2
 164.834960938 -362.857421875 l 2
 152.728930653 -362.857421875 144.834960938 -351.441345341 144.834960938 -342.857421875 c 2
 144.834960938 6.59375 l 2
 144.834960938 18.6997802844 156.251037471 26.59375 164.834960938 26.59375 c 2
184.834960938 -13.40625 m 1
 184.834960938 -322.857421875 l 1
 626.154296875 -322.857421875 l 1
 626.154296875 -13.40625 l 1
 184.834960938 -13.40625 l 1
EndSplineSet
EndChar

StartChar: ty.cvc.3
Encoding: 81 -1 134
Width: 0
VWidth: 0
Flags: W
HStem: -362.857 40<184.835 666.154> -13.4062 40<184.835 666.154>
VStem: 144.835 40<-322.857 -13.4062>
AnchorPoint: "Above" 405 0 mark 0
LayerCount: 2
Back
SplineSet
646.154296875 6.59375 m 29
 164.834960938 6.59375 l 29
 164.834960938 -342.857421875 l 29
 646.154296875 -342.857421875 l 1053
EndSplineSet
Fore
SplineSet
666.154296875 6.59375 m 1
 666.154296875 -13.40625 l 1
 646.154296875 -13.40625 l 1
 184.834960938 -13.40625 l 1
 184.834960938 -322.857421875 l 1
 646.154296875 -322.857421875 l 1
 666.154296875 -322.857421875 l 1
 666.154296875 -342.857421875 l 1
 666.154296875 -362.857421875 l 1
 646.154296875 -362.857421875 l 1
 164.834960938 -362.857421875 l 2
 156.251037471 -362.857421875 144.834960938 -354.963452159 144.834960938 -342.857421875 c 2
 144.834960938 6.59375 l 2
 144.834960938 15.1776734661 152.728930653 26.59375 164.834960938 26.59375 c 2
 646.154296875 26.59375 l 1
 666.154296875 26.59375 l 1
 666.154296875 6.59375 l 1
EndSplineSet
EndChar

StartChar: dy.cvc.3
Encoding: 82 -1 135
Width: 0
VWidth: 0
Flags: W
HStem: -362.857 40<144.835 626.154> -13.4062 40<144.835 626.154>
VStem: 626.154 40<-322.857 -13.4062>
AnchorPoint: "Above" 405 0 mark 0
LayerCount: 2
Back
SplineSet
164.834960938 6.59375 m 29
 646.154296875 6.59375 l 29
 646.154296875 -342.857421875 l 29
 164.834960938 -342.857421875 l 1053
EndSplineSet
Fore
SplineSet
144.834960938 6.59375 m 1
 144.834960938 26.59375 l 1
 164.834960938 26.59375 l 1
 646.154296875 26.59375 l 2
 658.260327159 26.59375 666.154296875 15.1776734661 666.154296875 6.59375 c 2
 666.154296875 -342.857421875 l 2
 666.154296875 -354.963452159 654.738220341 -362.857421875 646.154296875 -362.857421875 c 2
 164.834960938 -362.857421875 l 1
 144.834960938 -362.857421875 l 1
 144.834960938 -342.857421875 l 1
 144.834960938 -322.857421875 l 1
 164.834960938 -322.857421875 l 1
 626.154296875 -322.857421875 l 1
 626.154296875 -13.40625 l 1
 164.834960938 -13.40625 l 1
 144.834960938 -13.40625 l 1
 144.834960938 6.59375 l 1
EndSplineSet
EndChar

StartChar: sy.cvc.3
Encoding: 83 -1 136
Width: 0
VWidth: 0
Flags: W
HStem: -362.857 40<184.835 557.528>
VStem: 144.835 40<-322.857 26.5938>
AnchorPoint: "Above" 405 0 mark 0
LayerCount: 2
Back
SplineSet
164.834960938 6.59375 m 5
 164.834960938 -342.857421875 l 5
 574.725585938 -342.857421875 l 5
 586.256835938 -175.723632812 623.112304688 -105.262695312 690.110351562 6.59375 c 1029
EndSplineSet
Fore
SplineSet
164.834960938 26.59375 m 1
 184.834960938 26.59375 l 1
 184.834960938 6.59375 l 1
 184.834960938 -322.857421875 l 1
 556.193240275 -322.857421875 l 1
 569.645084578 -164.238601658 608.162991309 -91.2988535059 672.95266021 16.8705991014 c 2
 683.229509311 34.0282904539 l 1
 700.387200664 23.7514413525 l 1
 717.544892016 13.474592251 l 1
 707.268042915 -3.68309910143 l 2
 640.4877381 -115.176013625 606.019143711 -179.857863045 594.678153315 -344.234031858 c 0
 594.054243673 -353.276970181 585.759966621 -362.857421875 574.725585938 -362.857421875 c 2
 164.834960938 -362.857421875 l 2
 156.251037471 -362.857421875 144.834960938 -354.963452159 144.834960938 -342.857421875 c 2
 144.834960938 6.59375 l 1
 144.834960938 26.59375 l 1
 164.834960938 26.59375 l 1
EndSplineSet
EndChar

StartChar: zy.cvc.3
Encoding: 84 -1 137
Width: 0
VWidth: 0
Flags: W
HStem: -13.4062 40<253.461 626.154>
VStem: 626.154 40<-362.857 -13.4062>
AnchorPoint: "Above" 405 0 mark 0
LayerCount: 2
Back
SplineSet
646.154296875 -342.857421875 m 5
 646.154296875 6.59375 l 5
 236.263671875 6.59375 l 5
 224.731445312 -160.540039062 187.876953125 -231.000976562 120.87890625 -342.857421875 c 1029
EndSplineSet
Fore
SplineSet
646.154296875 -362.857421875 m 1
 626.154296875 -362.857421875 l 1
 626.154296875 -342.857421875 l 1
 626.154296875 -13.40625 l 1
 254.795916218 -13.40625 l 1
 241.343244105 -172.025150923 202.82634907 -244.96468052 138.036597602 -353.134270976 c 2
 127.759748501 -370.291962329 l 1
 110.602057149 -360.015113227 l 1
 93.4443657961 -349.738264126 l 1
 103.721214898 -332.580572774 l 2
 170.501462458 -221.087753839 204.969151372 -156.405841865 216.311112503 7.97047601374 c 0
 216.935061333 17.0132165122 225.229263063 26.59375 236.263671875 26.59375 c 2
 646.154296875 26.59375 l 2
 654.738220341 26.59375 666.154296875 18.6997802844 666.154296875 6.59375 c 2
 666.154296875 -342.857421875 l 1
 666.154296875 -362.857421875 l 1
 646.154296875 -362.857421875 l 1
EndSplineSet
EndChar

StartChar: gy.cvc.3
Encoding: 85 -1 138
Width: 0
VWidth: 0
Flags: W
AnchorPoint: "Above" 405 0 mark 0
LayerCount: 2
Back
SplineSet
164.834960938 6.59375 m 29
 646.154296875 -168.131835938 l 29
 164.834960938 -342.857421875 l 1053
EndSplineSet
Fore
SplineSet
146.035336684 13.418274007 m 1
 152.859860691 32.2178982606 l 1
 171.659484944 25.3933742536 l 1
 170.719503732 25.734600454 171.659484944 24.3933742536 171.659484944 25.3933742536 c 1
 652.978820882 -149.332211684 l 2
 663.785148607 -153.255058332 669.119126291 -165.945045003 664.360538872 -176.410287021 c 0
 662.006778315 -181.586754681 656.04708546 -185.817637649 652.978820882 -186.931460191 c 2
 171.659484944 -361.657046129 l 1
 152.859860691 -368.481570136 l 1
 146.035336684 -349.681945882 l 1
 139.210812677 -330.882321628 l 1
 158.010436931 -324.057797621 l 1
 587.542150505 -168.131835937 l 1
 158.010436931 -12.2058742536 l 1
 139.210812677 -5.38135024668 l 1
 146.035336684 13.418274007 l 1
EndSplineSet
EndChar

StartChar: jy.cvc.3
Encoding: 86 -1 139
Width: 0
VWidth: 0
Flags: W
HStem: -367.818 38.2636<153.373 202.838> -188.132 40<148.132 364.097 456.381 668.352>
VStem: 387.362 40.3337<-146.951 -79.0089 -79.0048 -59.311 -59.0076 26.2578>
AnchorPoint: "Above" 405 0 mark 0
LayerCount: 2
Back
SplineSet
648.3515625 -168.131835938 m 5
 168.131835938 -168.131835938 l 1029
407.692382812 -59.3408203125 m 5
 408.791015625 6.59375 l 1029
648.3515625 -342.857421875 m 5
 568.623046875 -308.586914062 411.900390625 -277.849609375 407.692382812 -59.3408203125 c 5
 411.470703125 -269.368164062 267.244140625 -312.327148438 167.033203125 -342.857421875 c 1029
EndSplineSet
Fore
SplineSet
666.726012756 -350.755496185 m 1
 658.827938446 -369.129946441 l 1
 640.45348819 -361.231872131 l 2
 582.166021191 -336.177585374 464.474011502 -309.114881769 412.61857075 -188.131835938 c 1
 407.295997822 -188.131835938 l 1
 361.136232919 -306.398009439 248.778272789 -338.860546387 172.861902951 -361.989234605 c 2
 153.730090221 -367.817934431 l 1
 147.901390395 -348.686121701 l 1
 142.072690569 -329.554308971 l 1
 161.204503299 -323.725609145 l 2
 234.392148755 -301.428254348 322.653805987 -275.776779157 364.09721639 -188.131835938 c 1
 168.131835938 -188.131835938 l 1
 148.131835938 -188.131835938 l 1
 148.131835938 -168.131835938 l 1
 148.131835938 -148.131835938 l 1
 168.131835938 -148.131835938 l 1
 378.422236309 -148.131835938 l 1
 383.668738669 -127.810790047 386.875935647 -104.908000459 387.606275736 -79.0089123385 c 1
 387.524835645 -79.0089123385 387.443395553 -79.0048413592 387.361955461 -79.0048413592 c 2
 387.695158614 -59.0076171603 l 1
 387.678498456 -60.0074783703 387.695158614 -58.0076171603 387.695158614 -59.0076171603 c 1
 388.793791426 6.92695315215 l 1
 389.126994578 26.924177351 l 1
 409.124218777 26.5909741989 l 1
 429.121442976 26.2577710467 l 1
 428.788239824 6.26054684785 l 1
 427.695656547 -59.3109599072 l 2
 428.385193728 -93.7034276804 432.929150888 -123.006944058 440.410761041 -148.131835938 c 1
 648.3515625 -148.131835938 l 1
 668.3515625 -148.131835938 l 1
 668.3515625 -168.131835938 l 1
 668.3515625 -188.131835938 l 1
 648.3515625 -188.131835938 l 1
 456.380511811 -188.131835938 l 1
 502.670714989 -277.804796406 594.700654505 -298.026755015 656.24963681 -324.482971619 c 2
 674.624087066 -332.381045929 l 1
 666.726012756 -350.755496185 l 1
EndSplineSet
EndChar

StartChar: uy.cvc.3
Encoding: 88 -1 141
Width: 0
VWidth: 0
Flags: W
HStem: -362.857 40<144.835 626.154>
VStem: 626.154 40<-322.857 26.5938>
AnchorPoint: "Above" 405 0 mark 0
LayerCount: 2
Back
SplineSet
646.154296875 6.59375 m 29
 646.154296875 -342.857421875 l 29
 164.834960938 -342.857421875 l 1053
EndSplineSet
Fore
SplineSet
646.154296875 26.59375 m 1
 666.154296875 26.59375 l 1
 666.154296875 6.59375 l 1
 666.154296875 -342.857421875 l 2
 666.154296875 -354.963452159 654.738220341 -362.857421875 646.154296875 -362.857421875 c 2
 164.834960938 -362.857421875 l 1
 144.834960938 -362.857421875 l 1
 144.834960938 -342.857421875 l 1
 144.834960938 -322.857421875 l 1
 164.834960938 -322.857421875 l 1
 626.154296875 -322.857421875 l 1
 626.154296875 6.59375 l 1
 626.154296875 26.59375 l 1
 646.154296875 26.59375 l 1
EndSplineSet
EndChar

StartChar: ly.cvc.3
Encoding: 89 -1 142
Width: 0
VWidth: 0
Flags: W
HStem: -362.857 40<144.835 626.028> -188.132 40<184.835 625.18> -13.4062 40<184.835 666.154>
VStem: 144.835 40<-148.132 -13.4062> 626.028 40.1259<-322.857 -188.132>
CounterMasks: 1 e0
AnchorPoint: "Above" 405 0 mark 0
LayerCount: 2
Back
SplineSet
646.154296875 6.59375 m 29
 164.834960938 6.59375 l 29
 164.834960938 -168.131835938 l 29
 645.0546875 -168.131835938 l 29
 646.154296875 -342.857421875 l 29
 164.834960938 -342.857421875 l 1053
EndSplineSet
Fore
SplineSet
666.154296875 6.59375 m 1
 666.154296875 -13.40625 l 1
 646.154296875 -13.40625 l 1
 184.834960938 -13.40625 l 1
 184.834960938 -148.131835938 l 1
 645.0546875 -148.131835938 l 2
 656.462091986 -148.131835938 664.992689661 -158.217578546 665.054291449 -168.005971418 c 2
 666.153900824 -342.731557355 l 2
 666.229827611 -354.796161944 654.9710997 -362.857421875 646.154296875 -362.857421875 c 2
 164.834960938 -362.857421875 l 1
 144.834960938 -362.857421875 l 1
 144.834960938 -342.857421875 l 1
 144.834960938 -322.857421875 l 1
 164.834960938 -322.857421875 l 1
 626.028033804 -322.857421875 l 1
 625.180158454 -188.131835938 l 1
 164.834960938 -188.131835938 l 2
 156.251037471 -188.131835938 144.834960938 -180.237866222 144.834960938 -168.131835938 c 2
 144.834960938 6.59375 l 2
 144.834960938 15.1776734661 152.728930653 26.59375 164.834960938 26.59375 c 2
 646.154296875 26.59375 l 1
 666.154296875 26.59375 l 1
 666.154296875 6.59375 l 1
EndSplineSet
EndChar
